**ABCDEFGHIJKLMNOPQRSTUVWXYZabcdefghijklmnopqrstuvwxyz**************************
**PARASOLID !"#$%&'()*+,-./:;<=>?@[\]^_`{|}~0123456789**************************
**PART1;
MC=RODRIGO;
MC_MODEL=unknown;
MC_ID=unknown;
OS=Windows NT;
OS_RELEASE=6.2;
FRU=Unigraphics Solutions;
APPL=SolidEdge;
SITE=Huntsville, AL;
USER=GoniR
FORMAT=text;
GUISE=transmit;
KEY=C:\Users\GoniR\OneDrive\Documentos\Facultad\R2\Protecto final R2\Piezas_xt\frontal;
FILE=C:\Users\GoniR\OneDrive\Documentos\Facultad\R2\Protecto final R2\Piezas_xt\frontal.x_t;
DATE=sáb., nov. 21 20;
**PART2;
SCH=SCH_3001256_30100;
USFLD_SIZE=0;
**PART3;
**END_OF_HEADER*****************************************************************
T51 : TRANSMIT FILE created by modeller version 300125623 SCH_3001256_30100_1300
6214 0 12 34 CCCCCCI4 mesh1006 0 I8 polyline1008 0 CCCCCCCDI5 owner1040 0 CCCCCC
I13 boundary_mesh1006 0 I17 boundary_polyline1008 0 CCCA16 index_map_offset0 0 1
 dA9 index_map82 0 A17 node_id_index_map82 0 A20 schema_embedding_map82 0 A5 chi
ld12 0 A14 lowest_node_id0 0 1 dA16 mesh_offset_data206 0 Z1 881 2 3 0 0 0 0 0 0
 1e3 1e-8 0 0 0 1 0 1 1 4 5 6 7 0 0 8 9 10 0 0 0 0 0 0 0 81 255 3 2 842 11 1 12
 0 0 0 13 14 15 70 11 CI9 list_type0 0 1 uI10 notransmit0 0 1 lCCCDCCDI12 finger
_index0 0 1 dI12 finger_block1012 0 CZ3 0 4 T1 0 0 9 20 1 16 16 13 255 4 3 0 1 0
 17 0 0 18 0 50 255 5 77 0 17 19 0 0 +.019 1.24747 -.019 1 0 0 0 0 -1 30 255 6 6
14 0 9 20 0 0 +-.0165 1.24497 .0165 0 0 1 29 255 7 597 0 10 21 0 .019 1.20947 .0
19 19 8 CCCCCCCA5 owner12 0 Z8 1 0 1 18 0 22 V0 16 255 9 560 0 ?23 0 24 6 0 0 1
 18 255 10 595 0 25 0 26 7 ?1 17 255 25 0 27 28 29 10 30 31 0 32 +18 26 557 0 33
 10 34 21 ?1 17 33 0 35 36 37 26 23 9 0 38 -18 34 291 0 39 26 40 41 ?1 29 21 559
 0 26 41 7 -.0165 1.24497 -.0165 29 41 293 0 34 42 21 -.0165 .0025 -.0165 29 42
 117 0 40 43 41 .019 .038 -.019 18 40 115 0 44 34 45 42 ?1 29 43 271 0 45 46 42
 -.019 0 -.019 18 45 201 0 47 40 48 43 ?1 29 46 275 0 48 49 43 .019 .038 .019 18
 48 200 0 50 45 51 46 ?1 29 49 276 0 51 52 46 -.019 0 .019 18 51 199 0 53 48 54
 49 ?1 29 52 525 0 54 55 49 .0165 .0355 -.0165 18 54 408 0 56 51 57 52 ?1 29 55
 527 0 57 58 52 .0165 .0355 .0165 18 57 410 0 59 54 60 55 ?1 29 58 531 0 60 61 5
5 -.0165 .002499999999999945 .0165 18 60 412 0 62 57 63 58 ?1 29 61 822 0 63 64
 58 .0165 1.21197 -.0165 18 63 723 0 36 60 65 61 ?1 29 64 823 0 65 66 61 .0165 1
.21197 .0165 18 65 724 0 67 63 68 64 ?1 29 66 824 0 68 69 64 -.0165 1.24497 .016
5 18 68 725 0 37 65 70 66 ?1 29 69 826 0 70 71 66 .019 1.20947 -.019 18 70 728 0
 28 68 72 69 ?1 29 71 827 0 72 73 69 -.019 1.24747 -.019 18 72 718 0 74 70 75 71
 ?1 29 73 830 0 75 0 71 -.019 1.24747 .019 18 75 719 0 29 72 0 73 ?1 17 29 0 27
 25 74 75 76 77 0 30 -15 255 27 755 0 74 78 0 17 74 0 27 29 28 72 79 80 0 81 +17
 76 0 82 83 84 72 29 77 0 0 +16 77 12 0 ?76 85 86 87 0 0 1 17 30 0 88 89 90 75 2
5 31 0 84 -15 88 599 0 30 91 0 17 89 0 88 92 30 51 84 93 0 94 +17 90 0 88 30 92
 10 50 95 0 0 -16 31 705 96 ?25 97 0 98 0 0 1 17 84 0 82 76 94 75 89 93 0 0 -15
 82 68 0 94 99 0 17 94 0 82 84 83 51 47 86 0 0 -16 93 64 0 ?89 95 100 101 0 0 1
 16 95 596 0 ?50 102 93 103 0 0 1 16 100 63 0 ?83 93 85 104 0 0 1 30 101 80 0 93
 104 103 0 +-.019 1.24747 .019 0 -1 0 30 104 79 0 100 105 101 0 +-.019 1.24747 -
.019 0 -1 0 30 103 81 0 95 101 106 0 +.019 1.24747 .019 0 -1 0 30 106 294 0 102
 103 107 0 +-.0165 .0025 -1.229627006315336 0 0 -1 16 102 292 0 ?108 109 95 106
 0 0 1 30 107 298 0 109 106 110 0 +-.019 0 .0165 -.707106781186547 -.70710678118
6548 0 16 109 296 0 ?111 112 102 107 0 0 1 30 110 302 0 112 107 20 0 +.0165 .035
5 -1.229627006315336 0 0 1 16 112 300 0 ?113 24 109 110 0 0 1 30 20 305 0 24 110
 6 0 +-.019 0 -.0165 .707106781186547 .707106781186548 0 16 24 303 0 ?114 9 112
 20 0 0 1 17 114 0 115 116 39 54 117 24 0 118 +15 115 426 0 116 119 0 17 116 0 1
15 38 114 63 56 120 0 0 -17 39 0 115 114 38 34 121 122 0 108 +17 117 0 123 124 1
18 34 114 24 0 0 -17 118 0 123 117 125 54 113 112 0 0 -15 123 304 0 117 126 127
 17 125 0 123 118 124 57 111 109 0 0 -17 113 0 128 129 56 57 118 112 0 125 +15 1
28 438 0 129 130 0 17 129 0 128 131 113 65 59 132 0 0 -17 56 0 128 113 131 54 11
6 120 0 114 +17 131 0 128 56 129 63 67 133 0 116 +16 120 575 0 ?56 134 132 135 0
 0 1 16 134 179 136 ?92 137 120 138 0 0 1 16 132 567 0 ?59 120 139 140 0 0 1 30
 135 513 0 120 140 138 0 +.0165 1.248627006315336 -.0165 0 -1 0 30 140 514 0 132
 141 135 0 +.0165 1.248627006315336 .0165 0 -1 0 30 138 267 0 134 135 142 0 +-.0
19 0 .019 .707106781186547 .707106781186548 0 30 142 263 0 137 138 143 0 +.019 .
038 -1.229627006315336 0 0 1 16 137 185 0 ?144 145 134 142 0 0 1 30 143 260 0 14
5 142 87 0 +.604735 .623735 -.019 -.707106781186547 -.707106781186548 0 16 145 1
75 0 ?146 86 137 143 0 0 1 30 87 13 0 77 143 147 0 +-.019 1.24747 .019 0 0 -1 30
 147 56 0 86 87 105 0 +-.019 0 .019 0 0 -1 16 86 40 148 ?47 77 145 147 0 0 1 30
 105 78 0 85 147 104 0 +.019 1.24747 -.019 0 -1 0 16 85 588 0 ?44 100 77 105 0 0
 1 17 44 0 149 146 79 40 150 85 0 151 +15 149 591 0 79 152 0 17 146 0 149 81 44
 45 151 145 0 83 +17 79 0 149 44 81 70 74 80 0 150 -17 150 0 153 32 154 70 44 85
 0 0 -17 151 0 127 144 47 40 146 145 0 154 -15 127 217 0 144 126 0 17 144 0 127
 53 151 48 154 137 0 92 +17 47 0 127 151 53 45 94 86 0 146 +17 154 0 153 150 50
 40 144 137 0 0 -15 153 605 0 32 17 0 17 50 0 153 154 32 48 90 95 0 144 +17 32 0
 153 50 150 10 28 97 0 90 +17 28 0 27 74 25 70 32 97 0 79 -16 97 687 0 ?32 155 3
1 156 0 0 1 16 155 685 0 ?157 133 97 158 0 0 1 30 156 809 0 97 98 158 0 +.019 1.
20947 -1.229627006315336 0 0 1 30 98 813 0 31 0 156 0 +-.019 1.24747 .019 .70710
6781186547 -.707106781186548 0 30 158 807 0 155 156 159 0 +-.0018285031576684 1.
23029850315767 .0165 .707106781186547 -.707106781186548 0 30 159 806 0 133 158 1
60 0 +.0165 1.21197 -.0165 0 0 -1 16 133 679 0 ?131 161 155 159 0 0 1 30 160 805
 0 161 159 162 0 +-.0183285031576684 1.24679850315767 -.0165 -.707106781186547 .
707106781186548 0 16 161 681 0 ?38 80 133 160 0 0 1 30 162 804 0 80 160 163 0 +-
.019 1.24747 -.019 -.707106781186547 .707106781186548 0 16 80 694 0 ?74 122 161
 162 0 0 1 30 163 516 0 122 162 141 0 +-.0165 1.248627006315336 -.0165 0 -1 0 16
 122 558 0 ?39 139 80 163 0 0 1 30 141 515 0 139 163 140 0 +-.0165 1.24862700631
5336 .0165 0 -1 0 16 139 555 0 ?62 132 122 141 0 0 1 17 62 0 164 108 23 60 165 1
39 0 111 +15 164 462 0 121 166 0 17 108 0 164 121 62 34 124 102 0 117 +17 23 0 1
64 62 121 68 33 9 0 165 +17 165 0 167 157 111 68 62 139 0 0 -17 111 0 167 165 59
 60 125 109 0 124 +15 167 450 0 165 168 0 17 59 0 167 111 157 57 129 132 0 113 +
17 124 0 123 125 117 60 108 102 0 0 -17 157 0 167 59 165 65 37 155 0 129 +17 37
 0 35 33 67 68 157 155 0 23 -15 35 754 0 67 78 27 17 67 0 35 37 36 65 131 133 0
 157 -17 36 0 35 67 33 63 38 161 0 131 -17 38 0 115 39 116 26 36 161 0 121 +17 1
21 0 164 23 108 26 39 122 0 0 -14 255 78 749 169 ?0 166 35 4 170 -0 0 0 166 22 8
1 2 169 881 171 78 172 0 173 0 174 175 14 166 457 173 ?78 168 164 4 176 -0 0 78
 168 22 50 170 793 0 78 0 176 0 +-.019 1.24747 -1.229627006315336 -.707106781186
548 -.707106781186547 0 .707106781186547 -.707106781186548 0 13 22 82 0 0 0 0 0
 0 8 17 14 17 135 177 ?91 0 153 4 5 +0 0 91 0 22 81 2 177 854 171 17 178 0 0 179
 180 181 14 91 129 179 ?152 17 88 4 19 +0 0 152 17 22 81 2 179 857 171 91 182 0
 177 183 184 185 14 152 120 183 ?99 91 149 4 186 +0 0 99 91 22 50 19 76 0 91 187
 5 0 +.019 1.24747 .019 0 0 1 1 0 0 50 187 75 0 99 186 19 0 +-.019 1.24747 .019
 -1 0 0 0 0 1 14 99 69 188 ?126 152 82 4 187 +0 0 126 152 22 50 186 74 0 152 189
 187 0 +-.019 1.24747 -.019 0 0 -1 -1 0 0 50 189 255 0 126 190 186 0 +-.019 0 -1
.229627006315336 .707106781186548 -.707106781186547 0 .707106781186547 .70710678
1186548 0 14 126 212 191 ?119 99 123 4 189 +0 0 119 99 22 50 190 499 0 119 192 1
89 0 +-.0165 1.248627006315336 -.0165 0 0 -1 -1 0 0 14 119 421 193 ?130 126 115
 4 190 -0 0 130 126 22 50 192 500 0 130 194 190 0 +.0165 1.248627006315336 -.016
5 1 0 0 0 0 -1 14 130 433 195 ?168 119 128 4 192 -0 0 168 119 22 50 194 501 0 16
8 176 192 0 +.0165 1.248627006315336 .0165 0 0 1 1 0 0 14 168 445 196 ?166 130 1
67 4 194 -0 0 166 130 22 50 176 502 0 166 170 194 0 +-.0165 1.248627006315336 .0
165 -1 0 0 0 0 1 81 2 196 875 171 168 197 0 195 173 198 199 80 255 2 171 200 201
 8014 0 0 0 0 3 5 0 0 0 FFFFTFFFFFFFFF2 1 81 1 197 874 202 168 203 196 204 205 2
06 81 2 195 872 171 130 204 0 193 196 207 208 81 2 173 878 171 166 205 0 196 169
 209 210 83 255 1 198 .5 82 255 1 199 0 81 1 205 877 202 166 211 173 197 172 212
 83 1 209 .5 82 1 210 0 80 1 202 171 213 8015 0 0 0 0 3 5 0 0 0 FFFFTFFFFFFFFF2
 81 1 211 876 214 166 215 205 203 216 217 81 1 172 880 202 78 216 169 205 0 218
 83 1 212 0 81 1 216 879 214 78 219 172 211 0 220 83 1 218 0 80 1 214 0 221 8001
 0 0 0 0 3 5 0 0 0 FFFFTFTFFFFFFF2 81 1 219 851 222 78 223 216 215 0 0 83 3 220
 .819607853889465 .819607853889465 .819607853889465 80 1 222 224 225 9000 1 1 1
 1 1 1 1 1 0 FFFFTFTTFFFFFF1 81 3 223 750 226 78 227 219 228 0 229 230 0 81 1 21
5 850 222 166 228 211 231 219 0 81 3 228 458 226 166 232 215 233 223 234 235 0 8
1 1 231 849 222 168 233 203 236 215 0 81 3 233 446 226 168 237 231 238 228 239 2
40 0 81 1 203 873 214 168 231 197 241 211 242 81 1 236 848 222 130 238 241 243 2
31 0 81 3 238 434 226 130 244 236 245 233 246 247 0 81 1 241 870 214 130 236 204
 248 203 249 81 1 243 847 222 119 245 248 250 236 0 81 3 245 422 226 119 251 243
 252 238 253 254 0 81 1 248 867 214 119 243 255 256 241 257 81 1 250 846 222 99
 258 259 260 243 0 81 1 258 98 261 99 262 250 0 263 264 81 1 259 861 214 99 250
 265 266 256 267 81 1 260 845 222 152 268 266 269 250 0 81 3 268 122 226 152 263
 260 262 270 271 272 0 81 1 266 858 214 152 260 273 274 259 275 81 1 269 844 222
 91 270 274 276 260 0 81 3 270 131 226 91 277 269 268 278 279 280 0 81 1 274 855
 214 91 269 182 281 266 282 81 1 276 843 222 17 278 281 283 269 0 81 3 278 137 2
26 17 284 276 270 252 285 286 0 81 1 281 852 214 17 276 178 0 274 287 81 1 283 5
49 222 126 252 256 0 276 0 81 3 252 213 226 126 288 283 278 245 289 290 0 81 1 2
56 864 214 126 283 291 259 248 292 81 1 291 865 202 126 256 191 265 255 293 83 3
 292 .819607853889465 .819607853889465 .819607853889465 81 2 191 866 171 126 291
 0 188 193 294 295 81 1 265 862 202 99 259 188 273 291 296 81 1 255 868 202 119
 248 193 291 204 297 83 1 293 0 81 2 193 869 171 119 255 0 191 195 298 299 81 1
 204 871 202 130 241 195 255 197 300 83 1 297 0 83 1 300 0 83 1 298 .5 82 1 299
 0 81 2 188 863 171 99 265 0 183 191 301 302 81 1 273 859 202 152 266 183 182 26
5 303 83 1 296 0 81 2 183 860 171 152 273 0 179 188 304 305 81 1 182 856 202 91
 274 179 178 273 306 83 1 303 0 81 1 178 853 202 17 281 177 0 182 307 83 1 306 0
 83 1 307 0 83 1 304 .5 82 1 305 0 83 1 301 .5 82 1 302 0 83 1 294 .5 82 1 295 0
 80 3 226 308 309 9000 0 0 0 0 3 6 0 0 0 FFFFTFTTFFFFFF1 1 3 81 1 288 216 261 12
6 0 252 284 251 310 82 1 289 0 82 1 290 9 80 1 261 311 312 9000 0 0 0 0 3 6 0 0
 0 FFFFTFFFFFFFFF1 81 1 284 136 261 17 0 278 277 288 313 81 1 251 425 261 119 0
 245 288 244 314 82 1 310 583 81 1 244 437 261 130 0 238 251 237 315 82 1 314 67
9 81 1 237 449 261 168 0 233 244 232 316 82 1 315 679 81 1 232 461 261 166 0 228
 237 227 317 82 1 316 679 81 1 227 753 261 78 0 223 232 0 318 82 1 317 679 82 1
 318 833 81 1 277 130 261 91 0 270 263 284 319 82 1 313 403 81 1 263 121 261 152
 0 268 258 277 320 82 1 319 403 82 1 320 403 79 255 23 312 SolidEdge/MNKR_ATTR_C
ID79 27 309 MONIKER/MONIKER_DATA_ATTRIB83 3 287 .819607853889465 .81960785388946
5 .819607853889465 82 1 285 0 82 1 286 5 83 3 282 .819607853889465 .819607853889
465 .819607853889465 82 1 279 0 82 1 280 4 83 3 275 .819607853889465 .8196078538
89465 .819607853889465 81 3 262 95 226 99 0 258 0 268 321 322 0 82 1 271 0 82 1
 272 2 82 1 321 0 82 1 322 3 83 3 267 .819607853889465 .819607853889465 .8196078
53889465 82 1 264 403 83 3 257 .819607853889465 .819607853889465 .81960785388946
5 82 1 253 0 82 1 254 16 83 3 249 .819607853889465 .819607853889465 .81960785388
9465 82 1 246 0 82 1 247 15 83 3 242 .819607853889465 .819607853889465 .81960785
3889465 82 1 239 0 82 1 240 14 82 1 234 0 82 1 235 13 82 1 229 0 82 1 230 20 79
 17 225 SolidEdge/Display79 15 221 SDL/TYSA_COLOUR83 3 217 .819607853889465 .819
607853889465 .819607853889465 79 21 213 SDL/TYSA_TRANSLUCENCY83 1 207 .5 82 1 20
8 0 83 1 206 0 79 21 201 SDL/TYSA_REFLECTIVITY83 1 184 .5 82 1 185 0 83 1 180 .5
 82 1 181 0 83 1 174 .5 82 1 175 0 17 53 0 127 47 144 51 92 134 0 89 -17 92 0 88
 90 89 48 53 134 0 0 +17 81 0 149 79 146 72 83 100 0 76 -17 83 0 82 94 76 45 81
 100 0 0 +81 1 148 42 224 86 0 0 0 136 323 80 1 224 324 325 9000 0 0 0 0 3 6 0 0
 0 FFFFTFTTFFFFFF1 81 1 136 182 224 134 0 0 148 96 326 82 1 323 17 81 1 96 708 2
24 31 0 0 136 0 327 82 1 326 17 82 1 327 17 79 27 325 SolidEdge/MNKR_ATTR_TYPE_E
X19 18 83 0 1 0 8 4 S0 74 4 CI16 index_map_offset0 0 1 dCCZ20 16 9 0 0 96 223 22
7 219 12 2 216 172 169 0 0 0 0 0 0 0 0 0 0 0 81 2 12 114 328 1 0 2 0 0 329 330 8
0 2 328 11 331 9000 2 2 2 2 3 6 0 0 0 FFTFFFFFFFFFFF2 3 83 2 329 1 24 84 255 20
 330 SE 219.0.0.91 Type8679 22 331 MONIKER/BODY_ID_ATTRIB80 3 11 332 333 9000 0
 0 0 0 3 6 0 0 0 FFTFFFFFFFFFFF3 3 1 84 38 13 {1b484d61-b335-4f09-9d04-79250468a
8bc}84 2 14 SE82 1 15 0 79 25 333 MONIKER/GUID_TABLE_ATTRIB1 0 
