**ABCDEFGHIJKLMNOPQRSTUVWXYZabcdefghijklmnopqrstuvwxyz**************************
**PARASOLID !"#$%&'()*+,-./:;<=>?@[\]^_`{|}~0123456789**************************
**PART1;
MC=RODRIGO;
MC_MODEL=unknown;
MC_ID=unknown;
OS=Windows NT;
OS_RELEASE=6.2;
FRU=Unigraphics Solutions;
APPL=SolidEdge;
SITE=Huntsville, AL;
USER=GoniR
FORMAT=text;
GUISE=transmit;
KEY=C:\Users\GoniR\OneDrive\Documentos\Facultad\R2\Protecto final R2\Piezas_xt\molde para ;
FILE=C:\Users\GoniR\OneDrive\Documentos\Facultad\R2\Protecto final R2\Piezas_xt\molde para .x_t;
DATE=sáb., nov. 21 20;
**PART2;
SCH=SCH_3001256_30100;
USFLD_SIZE=0;
**PART3;
**END_OF_HEADER*****************************************************************
T51 : TRANSMIT FILE created by modeller version 300125623 SCH_3001256_30100_1300
6214 0 12 34 CCCCCCI4 mesh1006 0 I8 polyline1008 0 CCCCCCCDI5 owner1040 0 CCCCCC
I13 boundary_mesh1006 0 I17 boundary_polyline1008 0 CCCA16 index_map_offset0 0 1
 dA9 index_map82 0 A17 node_id_index_map82 0 A20 schema_embedding_map82 0 A5 chi
ld12 0 A14 lowest_node_id0 0 1 dA16 mesh_offset_data206 0 Z1 464 2 3 0 0 0 0 0 0
 1e3 1e-8 0 0 0 1 0 1 1 4 5 6 7 0 0 8 9 10 0 0 0 0 0 0 0 90 255 2 418 11 1 12 0
 9 13 70 11 CI9 list_type0 0 1 uI10 notransmit0 0 1 lCCCDCCDI12 finger_index0 0
 1 dI12 finger_block1012 0 CZ3 0 4 T1 0 0 12 20 1 14 14 13 255 4 82 0 1 0 15 0 0
 16 0 51 255 5 382 0 15 17 0 0 +-164252690318641e-31 -.089415 -2.181473020493455
 0 0 1 .0025 -183697019872103e-30 -1 0 31 255 6 392 0 9 18 0 0 +-164252690318641
e-31 -.089415 .05 0 0 1 1 -183697019872103e-30 0 .0025 29 255 7 159 0 10 19 0 .8
64058112382723 -.700293112382723 0 19 8 CCCCCCCA5 owner12 0 Z8 1 0 1 16 0 20 V0
 16 255 9 391 21 ?22 0 23 6 0 0 1 18 255 10 157 0 24 0 25 7 ?1 17 255 24 0 26 27
 28 10 29 30 0 31 -18 25 17 0 32 10 33 34 ?1 17 32 0 35 36 37 25 38 39 0 40 +18
 33 11 0 37 25 41 42 ?1 29 34 120 0 25 42 43 -.8375 .673735 .05 29 42 119 0 33 4
4 34 .8375 .673735 .05 29 43 121 0 45 34 19 -.8375 -.673735 .05 18 45 2 0 46 41
 47 43 ?1 29 19 122 0 41 43 7 .8375 -.673735 .05 18 41 5 0 48 33 45 19 ?1 17 48
 0 35 37 36 41 46 49 0 50 +15 255 35 25 0 36 51 0 17 37 0 35 32 48 33 52 53 0 54
 +17 36 0 35 48 32 45 55 56 0 57 +17 46 0 58 59 50 45 48 49 0 36 -16 49 6 0 ?48
 53 56 60 0 0 1 17 50 0 58 46 61 41 62 63 0 52 -15 58 70 0 61 64 0 17 61 0 58 50
 59 65 66 67 0 62 +17 62 0 68 69 52 65 50 63 0 70 +16 63 64 0 ?62 71 72 73 0 0 1
 17 52 0 68 62 54 41 37 53 0 0 -15 68 68 0 69 74 0 17 54 0 68 52 69 33 75 72 0 3
8 -16 53 12 0 ?37 39 49 76 0 0 1 16 39 18 0 ?32 77 53 78 0 0 1 30 255 76 131 0 5
3 79 78 0 -.8375 0 .05 0 -1 0 30 79 130 0 80 81 76 0 -0 .702602513459481 0 1 0 0
 30 78 132 0 39 76 82 0 -0 .673735 .05 1 0 0 30 82 133 0 56 78 60 0 --.8375 0 .0
5 0 1 0 16 56 23 0 ?36 49 80 82 0 0 1 30 60 134 0 49 82 83 0 -0 -.673735 .05 -1
 0 0 31 83 360 0 84 60 85 0 +547508967728803e-32 .089415 .048 0 0 1 612323399573
677e-31 1 0 .0025 16 84 359 0 ?86 87 71 83 0 0 1 31 85 362 0 87 83 88 0 +5475089
67728803e-32 .089415 .05 0 0 1 -1 612323399573677e-31 0 .0025 16 87 361 89 ?90 9
1 84 85 0 0 1 31 88 375 0 91 85 92 0 +-.089415 506584160533194e-31 .048 0 0 1 -1
 566553889764798e-30 0 .0025 16 91 374 0 ?93 94 87 88 0 0 1 31 92 377 0 94 88 18
 0 +-.089415 506584160533194e-31 .05 0 0 1 -566553889764798e-30 -1 0 .0025 16 94
 376 95 ?96 23 91 92 0 0 1 31 18 390 0 23 92 6 0 +-164252690318641e-31 -.089415
 .048 0 0 1 -183697019872103e-30 -1 0 .0025 16 23 389 0 ?97 9 94 18 0 0 1 17 97
 0 98 97 97 0 99 23 0 0 +15 98 379 0 97 100 101 17 99 0 102 99 99 0 97 23 0 0 -1
5 102 387 0 99 15 103 14 255 15 381 104 ?105 0 102 4 5 -0 0 105 0 20 15 103 388
 0 22 15 0 17 22 0 103 22 22 0 106 9 0 0 +17 106 0 107 106 106 0 22 9 0 0 -15 10
7 380 0 106 51 108 14 51 26 109 ?110 111 107 4 112 +0 0 110 111 20 15 108 365 0
 113 51 114 17 113 0 108 113 113 0 96 94 0 0 -15 114 350 0 115 51 116 17 115 0 1
14 115 115 0 90 87 0 0 -15 116 288 0 117 51 35 17 117 0 116 117 117 0 118 119 0
 0 -17 118 0 120 118 118 0 117 119 0 0 +16 119 304 121 ?118 122 0 123 0 0 1 81 2
55 1 121 307 124 119 0 0 125 89 126 16 122 302 0 ?127 128 119 129 0 0 1 31 123 3
38 0 119 0 129 0 +.089415 0 .05 0 0 1 0 1 0 .0025 31 129 337 0 122 123 130 0 +.0
89415 0 .048 0 0 1 1 0 0 .0025 30 130 243 0 131 129 132 0 +-.668614359353945 -.5
04849359353945 .338518510267787 -.447213595499958 -.447213595499958 -.7745966692
41483 16 131 177 0 ?133 134 135 130 0 0 1 30 132 242 0 136 130 137 0 --.83634529
9461621 0 .048 0 1 0 16 136 184 0 ?138 139 140 132 0 0 1 30 137 241 0 141 132 14
2 0 +-.701367359353945 .537602359353945 .2817886501674835 -.447213595499958 .447
213595499958 -.774596669241483 16 141 174 0 ?143 144 145 137 0 0 1 30 142 240 0
 135 137 146 0 +.701367359353945 -.537602359353945 .2817886501674835 .4472135954
99958 -.447213595499958 -.774596669241483 16 135 180 0 ?31 131 144 142 0 0 1 30
 146 239 0 139 142 147 0 -0 -.672580299461621 .048 -1 0 0 16 139 185 0 ?148 149
 136 146 0 0 1 30 147 238 0 144 146 150 0 +.668614359353945 .504849359353945 .33
8518510267787 .447213595499958 .447213595499958 -.774596669241483 16 144 183 0 ?
28 135 141 147 0 0 1 30 150 237 0 149 147 151 0 -.836345299461621 0 .048 0 -1 0
 16 149 186 0 ?152 145 139 150 0 0 1 30 151 236 0 145 150 153 0 -0 .672580299461
621 .048 1 0 0 16 145 187 0 ?154 141 149 151 0 0 1 30 153 235 0 128 151 155 0 --
.864058112382723 0 0 0 1 0 16 128 172 156 ?157 158 122 153 0 0 1 30 155 234 0 14
0 153 159 0 -0 .700293112382723 0 1 0 0 16 140 181 125 ?160 136 30 155 0 0 1 30
 159 233 0 30 155 161 0 -.864058112382723 0 0 0 -1 0 16 30 178 162 ?29 140 158 1
59 0 0 1 30 161 232 0 158 159 163 0 -0 -.700293112382723 0 -1 0 0 16 158 175 164
 ?165 30 128 161 0 0 1 30 163 123 0 72 161 73 0 +.67 .506235 .340118510267787 .4
47213595499958 .447213595499958 -.774596669241483 16 72 63 0 ?75 63 77 163 0 0 1
 30 73 124 0 63 163 166 0 +.702753 -.538988 .2833886501674835 .447213595499958 -
.447213595499958 -.774596669241483 30 166 125 0 71 73 167 0 +-.67 -.506235 .3401
18510267787 -.447213595499958 -.447213595499958 -.774596669241483 16 71 65 0 ?59
 84 63 166 0 0 1 30 167 126 0 77 166 168 0 +-.702753 .538988 .2833886501674835 -
.447213595499958 .447213595499958 -.774596669241483 16 77 62 0 ?169 72 39 167 0
 0 1 30 168 127 0 170 167 171 0 -.866367513459481 0 0 0 -1 0 16 170 40 172 ?69 8
0 67 168 0 0 1 30 171 128 0 67 168 81 0 -0 -.702602513459481 0 -1 0 0 16 67 43 1
73 ?61 170 134 171 0 0 1 30 81 129 0 134 171 79 0 --.866367513459481 0 0 0 1 0 1
6 134 46 174 ?175 67 131 81 0 0 1 81 1 174 48 124 134 0 0 173 156 176 17 175 0 1
77 57 169 178 179 134 0 0 +15 177 72 0 175 180 0 17 57 0 177 55 175 45 59 71 0 0
 -17 169 0 177 175 55 47 40 77 0 179 +18 178 52 0 66 65 181 182 ?1 17 179 0 183
 184 66 47 175 134 0 0 -15 183 36 0 179 110 0 17 184 0 183 70 179 185 186 80 0 0
 -17 66 0 183 179 70 178 61 67 0 59 -18 47 49 0 186 45 185 187 ?1 17 186 0 188 4
0 75 47 184 80 0 169 +18 185 50 0 69 47 65 44 ?1 29 187 117 0 47 182 44 -.866367
513459481 .702602513459481 0 29 182 116 0 178 189 187 -.866367513459481 -.702602
513459481 0 29 44 118 0 185 187 42 .866367513459481 .702602513459481 0 29 189 11
5 0 65 190 182 .866367513459481 -.702602513459481 0 18 65 51 0 61 185 178 189 ?1
 29 190 244 0 191 192 189 -.864058112382723 -.700293112382723 0 18 191 195 0 193
 194 0 190 ?1 29 192 246 0 194 195 190 .864058112382723 .700293112382723 0 18 19
4 190 0 28 196 191 192 ?1 29 195 247 0 196 197 192 -.864058112382723 .7002931123
82723 0 18 196 191 0 143 198 194 195 ?1 29 197 248 0 181 199 195 -.8363452994616
21 .672580299461621 .048 18 181 194 0 154 178 200 197 ?1 29 199 249 0 200 201 19
7 .836345299461621 .672580299461621 .048 18 200 193 0 152 181 202 199 ?1 29 201
 250 0 202 203 199 .836345299461621 -.672580299461621 .048 18 202 192 0 148 200
 198 201 ?1 29 203 251 0 198 0 201 -.836345299461621 -.672580299461621 .048 18 1
98 189 0 204 202 196 203 ?1 17 204 0 205 206 207 198 148 139 0 138 -15 205 219 0
 206 100 0 17 206 0 205 208 204 181 138 136 0 0 -17 207 0 205 204 208 202 152 14
9 0 0 -17 148 0 209 31 210 202 204 139 0 27 +17 138 0 211 133 212 198 206 136 0
 210 +15 211 200 0 213 214 0 17 133 0 211 213 138 191 210 131 0 157 +17 212 0 21
1 138 213 181 143 141 0 206 -17 210 0 209 148 193 198 133 131 0 0 -15 209 205 0
 193 215 0 17 193 0 209 210 31 191 165 158 0 133 -17 31 0 209 193 148 10 27 135
 0 165 +17 165 0 216 29 157 10 193 158 0 0 +15 216 155 0 160 110 183 17 29 0 216
 160 165 194 24 30 0 0 +17 157 0 216 165 160 191 213 128 0 0 +17 160 0 216 157 2
9 196 217 140 0 0 +17 213 0 211 212 133 196 157 128 0 160 -17 217 0 218 219 143
 194 160 140 0 29 -15 218 215 0 217 220 0 17 219 0 218 154 217 200 28 144 0 208
 -17 143 0 218 217 154 196 212 141 0 213 +17 154 0 218 143 219 181 208 145 0 212
 +17 208 0 205 207 206 200 154 145 0 0 -17 28 0 26 24 152 194 219 144 0 217 +15
 26 210 0 24 221 0 17 152 0 26 28 27 200 207 149 0 219 +17 27 0 26 152 24 202 31
 135 0 207 -14 221 206 222 ?220 215 26 4 223 +0 0 220 215 20 81 2 222 455 224 22
1 225 0 226 227 228 229 14 220 211 227 ?100 221 218 4 230 +0 0 100 221 20 14 215
 201 226 ?221 214 209 4 231 +0 0 221 214 20 50 255 223 228 0 221 231 230 0 -.835
767949192431 0 .049 .866025403784439 0 .5 .5 0 -.866025403784439 13 20 3 0 0 0 0
 0 0 8 15 50 231 229 0 215 232 223 0 -0 -.672002949192431 .049 0 -.8660254037844
39 .5 0 -.5 -.866025403784439 50 230 227 0 220 223 233 0 -0 .672002949192431 .04
9 0 .866025403784439 .5 0 -.5 .866025403784439 50 233 226 0 100 230 112 0 +0 0 .
048 0 0 1 1 0 0 14 100 216 234 ?235 220 98 4 233 -0 0 235 220 20 50 112 29 0 51
 233 236 0 +0 0 .05 0 0 1 1 0 0 50 236 53 0 110 112 237 0 +0 0 0 0 0 1 1 0 0 14
 110 35 238 ?214 51 216 4 236 -0 0 214 51 20 50 237 135 0 74 236 239 0 -.8375 0
 .05 .866025403784439 0 .5 .5 0 -.866025403784439 14 74 69 240 ?111 64 68 4 237
 -0 0 111 64 20 50 239 136 0 64 237 241 0 -0 -.673735 .05 0 -.866025403784439 .5
 0 -.5 -.866025403784439 14 64 71 242 ?74 180 58 4 239 -0 0 74 180 20 50 241 137
 0 180 239 243 0 --.8375 0 .05 -.866025403784439 0 .5 .5 0 .866025403784439 14 1
80 73 244 ?64 245 177 4 241 -0 0 64 245 20 50 243 138 0 111 241 246 0 -0 .673735
 .05 0 .866025403784439 .5 0 -.5 .866025403784439 14 111 67 247 ?51 74 188 4 243
 -0 0 51 74 20 51 246 352 0 245 243 17 0 +547508967728803e-32 .089415 -2.1814730
20493455 0 0 1 .0025 612323399573677e-31 1 0 14 245 351 248 ?180 105 249 4 246 -
0 0 180 105 20 51 17 367 0 105 246 5 0 +-.089415 506584160533194e-31 -2.18147302
0493455 0 0 1 .0025 -1 566553889764798e-30 0 14 105 366 250 ?245 15 251 4 17 -0
 0 245 15 20 81 2 250 425 224 105 252 0 104 248 253 254 15 251 372 0 255 105 256
 17 255 0 251 255 255 0 93 91 0 0 -15 256 373 0 96 105 0 17 96 0 256 96 96 0 113
 94 0 0 +17 93 0 101 93 93 0 255 91 0 0 +15 101 364 0 93 100 257 15 257 349 0 86
 100 258 17 86 0 257 86 86 0 259 84 0 0 +15 258 280 0 127 100 205 17 127 0 258 1
27 127 0 260 122 0 0 +17 260 0 261 260 260 0 127 122 0 0 -15 261 320 0 260 235 1
20 14 235 315 262 ?0 100 261 4 263 -0 0 0 100 20 15 120 321 0 118 235 0 81 2 262
 464 224 235 264 0 234 0 265 266 51 263 334 0 235 0 232 0 +.089415 0 -2.18147302
0493455 0 0 1 .0025 1 0 0 50 232 230 0 214 263 231 0 --.835767949192431 0 .049 -
.866025403784439 0 .5 .5 0 .866025403784439 14 214 196 267 ?215 110 211 4 232 +0
 0 215 110 20 81 2 267 449 224 214 268 0 238 226 269 270 80 255 2 224 271 272 80
14 0 0 0 0 3 5 0 0 0 FFFFTFFFFFFFFF2 1 81 1 268 448 273 214 274 267 275 276 277
 81 2 238 446 224 110 275 0 109 267 278 279 81 2 226 452 224 215 276 0 267 222 2
80 281 83 255 1 269 .5 82 255 1 270 0 81 1 276 451 273 215 282 226 268 225 283 8
3 1 280 .5 82 1 281 0 80 1 273 224 284 8015 0 0 0 0 3 5 0 0 0 FFFFTFFFFFFFFF2 81
 1 282 450 285 215 286 276 274 287 288 81 1 225 454 273 221 287 222 276 289 290
 83 1 283 0 81 1 287 453 285 221 291 225 282 292 293 81 1 289 457 273 220 292 22
7 225 294 295 83 1 290 0 81 1 292 456 285 220 296 289 287 297 298 81 2 227 458 2
24 220 289 0 222 234 299 300 81 1 294 460 273 100 297 234 289 264 301 83 1 295 0
 81 1 297 459 285 100 302 294 292 303 304 81 2 234 461 224 100 294 0 227 262 305
 306 81 1 264 463 273 235 303 262 294 0 307 83 1 301 0 81 1 303 462 285 235 13 2
64 297 0 308 83 1 307 0 80 1 285 0 309 8001 0 0 0 0 3 5 0 0 0 FFFFTFTFFFFFFF2 91
 255 13 0 2 235 310 303 0 0 83 3 308 .819607853889465 .819607853889465 .81960785
3889465 81 1 310 348 311 235 312 13 296 313 0 80 1 311 124 314 9000 1 1 1 1 1 1
 1 1 0 FFFFTFTTFFFFFF1 81 5 312 342 315 235 316 310 0 317 318 319 320 0 321 81 1
 296 277 311 220 322 292 291 310 0 81 1 313 412 311 15 323 324 310 325 0 91 323
 0 326 15 327 313 0 0 81 1 324 420 285 15 313 328 0 329 330 81 1 325 413 311 105
 331 329 313 332 0 91 331 0 333 105 334 325 0 0 81 1 329 423 285 105 325 252 324
 335 336 81 1 332 414 311 245 337 335 325 338 0 91 337 0 339 245 340 332 0 0 81
 1 335 426 285 245 332 341 329 342 343 81 1 338 415 311 51 344 345 332 302 0 81
 1 344 87 346 51 347 338 0 348 349 81 1 345 441 285 51 338 350 351 352 353 81 1
 302 416 311 100 354 297 338 0 0 81 1 354 268 346 100 355 302 322 356 357 80 1 3
46 358 359 9000 0 0 0 0 3 6 0 0 0 FFFFTFFFFFFFFF1 81 3 355 266 360 100 0 354 361
 362 363 364 0 81 1 322 265 346 220 361 296 365 354 366 81 1 356 270 346 110 348
 367 354 316 368 82 1 357 531 81 1 348 90 346 110 369 356 344 370 371 81 1 367 2
73 311 110 356 352 372 373 0 81 1 316 316 346 235 362 312 356 340 374 82 1 368 5
31 81 3 362 319 360 235 0 316 355 375 376 377 0 81 1 340 396 346 245 375 337 316
 334 378 82 1 374 368 81 3 375 394 360 245 317 340 362 379 380 381 0 81 1 334 40
1 346 105 379 331 340 327 382 82 1 378 726 81 3 379 399 360 105 383 334 375 384
 385 386 0 81 1 327 406 346 15 384 323 334 0 387 82 1 382 726 81 3 384 404 360 1
5 388 327 379 0 389 390 0 82 1 387 726 80 3 360 391 392 9000 0 0 0 0 3 6 0 0 0 F
FFFTFTTFFFFFF1 1 3 81 5 388 384 315 15 0 384 383 0 393 394 395 0 396 82 1 389 3
 82 1 390 8 80 5 315 397 398 9000 2 2 2 2 3 5 0 0 0 FFFFTFFFFFFFFF1 1 2 10 7 81
 5 383 369 315 105 0 379 317 388 399 400 401 0 402 82 1 393 10 82 28 394 0 1 0 0
 0 0 3 0 1 0 0 1 2 1 2 1 350 0 1 0 1 381 0 0 0 0 0 0 83 29 395 .005 .0127 .0127
 82 .0127 .0127 0 .0508 2 0 0 0 0 .1 0 0 0 .04363323129985825 .1 1 0 0 0 0 0 0 .
0127 0 0 87 255 2 396 -164252690318641e-31 -.089415 .05 0 0 1 81 5 317 354 315 2
45 0 375 312 383 403 404 405 0 406 82 1 399 10 82 28 400 0 1 0 0 0 0 3 0 1 0 0 1
 2 1 2 1 350 0 1 0 1 366 0 0 0 0 0 0 83 29 401 .005 .0127 .0127 82 .0127 .0127 0
 .0508 2 0 0 0 0 .1 0 0 0 .04363323129985825 .1 1 0 0 0 0 0 0 .0127 0 0 87 2 402
 -.089415 506584160533194e-31 .05 0 0 1 82 1 403 10 82 28 404 0 1 0 0 0 0 3 0 1
 0 0 1 2 1 2 1 350 0 1 0 1 351 0 0 0 0 0 0 83 29 405 .005 .0127 .0127 82 .0127 .
0127 0 .0508 2 0 0 0 0 .1 0 0 0 .04363323129985825 .1 1 0 0 0 0 0 0 .0127 0 0 87
 2 406 547508967728803e-32 .089415 .05 0 0 1 79 255 30 398 SolidEdge/EndHoleThre
ad_u_info79 27 392 MONIKER/MONIKER_DATA_ATTRIB82 1 385 3 82 1 386 7 82 1 380 3 8
2 1 381 6 82 1 376 3 82 1 377 5 81 1 352 444 285 110 367 275 345 274 407 81 1 37
2 151 311 111 408 351 409 367 0 81 1 373 274 311 214 410 274 367 286 0 81 1 410
 256 346 214 411 373 408 412 413 81 1 274 447 285 214 373 268 352 282 414 81 1 2
86 275 311 215 412 282 373 291 0 81 1 412 259 346 215 415 286 410 365 416 81 1 2
91 276 311 221 365 287 286 296 0 81 1 365 262 346 221 417 291 412 322 418 81 3 4
17 260 360 221 0 365 415 361 419 420 0 82 1 418 531 81 3 415 257 360 215 0 412 4
11 417 421 422 0 81 3 361 263 360 220 0 322 417 355 423 424 0 82 1 419 2 82 1 42
0 2 82 1 423 2 82 1 424 3 81 3 411 253 360 214 0 410 425 415 426 427 0 82 1 421
 2 82 1 422 1 81 3 425 103 360 180 0 428 429 411 430 431 0 82 1 426 2 82 1 427 0
 81 1 428 106 346 180 425 432 433 434 435 81 3 429 99 360 64 0 433 436 425 437 4
38 0 82 1 430 0 82 1 431 5 81 1 433 102 346 64 429 439 440 428 441 81 3 436 95 3
60 74 0 440 442 429 443 444 0 82 1 437 0 82 1 438 4 81 1 440 98 346 74 436 434 3
70 433 445 81 3 442 91 360 111 0 370 369 436 446 447 0 82 1 443 0 82 1 444 3 81
 1 370 94 346 111 442 408 348 440 448 81 3 369 88 360 110 0 348 347 442 449 450
 0 82 1 446 0 82 1 447 2 81 3 347 84 360 51 0 344 0 369 451 452 0 82 1 449 0 82
 1 450 1 82 1 451 0 82 1 452 0 81 1 408 146 346 111 370 372 432 410 453 82 1 448
 426 81 1 432 144 346 180 428 454 439 408 455 82 1 453 487 81 1 454 148 311 180
 432 342 0 456 0 81 1 439 142 346 64 433 456 434 432 457 82 1 455 487 81 1 456 1
49 311 64 439 458 454 409 0 81 1 434 140 346 74 440 409 428 439 459 82 1 457 487
 81 1 409 150 311 74 434 460 456 372 0 82 1 459 487 81 1 460 435 285 74 409 461
 458 351 462 81 1 461 436 273 74 460 240 463 464 465 81 1 458 432 285 64 456 463
 342 460 466 81 1 351 438 285 111 372 464 460 345 467 83 3 462 .819607853889465
 .819607853889465 .819607853889465 81 1 464 439 273 111 351 247 461 350 468 83 3
 467 .819607853889465 .819607853889465 .819607853889465 81 2 247 440 224 111 464
 0 240 109 469 470 81 1 350 442 273 51 345 109 464 275 471 83 1 468 0 81 2 109 4
43 224 51 350 0 247 238 472 473 81 1 275 445 273 110 352 238 350 268 474 83 1 47
1 0 83 1 474 0 83 1 472 .5 82 1 473 0 81 2 240 437 224 74 461 0 242 247 475 476
 83 1 469 .5 82 1 470 0 81 2 242 434 224 64 463 0 244 240 477 478 83 1 475 .5 82
 1 476 0 81 1 463 433 273 64 458 242 479 461 480 81 2 244 431 224 180 479 0 248
 242 481 482 83 1 477 .5 82 1 478 0 81 1 479 430 273 180 342 244 341 463 483 81
 2 248 428 224 245 341 0 250 244 484 485 83 1 481 .5 82 1 482 0 81 1 341 427 273
 245 335 248 252 479 486 83 1 484 .5 82 1 485 0 81 1 252 424 273 105 329 250 328
 341 487 83 1 486 0 81 1 328 421 273 15 324 104 0 252 488 83 1 487 0 81 2 104 42
2 224 15 328 0 0 250 489 490 83 1 488 0 83 1 489 .5 82 1 490 0 81 1 342 429 285
 180 454 479 335 458 491 83 1 483 0 83 3 491 .819607853889465 .819607853889465 .
819607853889465 83 1 480 0 83 3 466 .819607853889465 .819607853889465 .819607853
889465 83 1 465 0 82 1 445 426 82 1 441 426 82 1 435 426 82 1 416 531 83 3 414 .
819607853889465 .819607853889465 .819607853889465 82 1 413 531 83 3 407 .8196078
53889465 .819607853889465 .819607853889465 82 1 371 426 82 1 366 531 82 1 363 2
 82 1 364 4 79 23 359 SolidEdge/MNKR_ATTR_CID83 3 353 .819607853889465 .81960785
3889465 .819607853889465 82 1 349 426 83 3 343 .819607853889465 .819607853889465
 .819607853889465 90 339 397 492 1 493 333 9 337 81 2 492 398 494 339 0 0 0 495
 496 0 81 2 493 114 497 1 0 339 0 0 498 499 90 333 402 495 1 339 326 9 331 81 2
 495 403 494 333 0 0 492 500 501 0 90 326 407 500 1 333 502 9 323 81 2 500 408 4
94 326 0 0 495 11 503 0 81 3 502 409 504 1 326 505 0 505 506 507 508 80 3 504 50
9 510 9000 0 0 0 0 3 6 0 0 0 FFTFFFFFFFFFFF3 3 1 81 3 505 410 504 1 502 511 502
 511 512 513 514 84 255 38 506 {2d275a6c-893b-4304-b522-00802652fe62}84 2 507 SE
82 1 508 0 81 3 511 411 504 1 505 12 505 0 515 516 517 84 38 512 {0b2bbdb0-fd7f-
4e75-b33a-7b3f16d33a42}84 2 513 SE82 1 514 2 81 5 12 417 518 1 511 2 0 0 519 0 5
20 521 522 84 38 515 {339f5b0e-5bdb-4f86-9ab0-81b5cf2562e3}84 2 516 SE82 1 517 3
 80 5 518 494 523 9000 0 0 0 0 3 6 0 0 0 TTTFFFFFFFFFFF1 1 2 1 2 82 9 519 1 725
 61 1 1 1 4 4 1 83 2 520 1.570796326794895 0 82 4 521 1074791425 1074791172 1074
793995 1074790668 83 2 522 566553889764798e-30 -566553889764798e-30 79 21 523 So
lidEdge/PatternData79 25 510 MONIKER/GUID_TABLE_ATTRIB80 2 494 524 525 9000 0 0
 0 0 3 6 0 0 0 TTTTTTTTTFFFTT1 1 81 2 11 419 494 2 0 0 500 0 526 0 82 3 503 2 72
5 3 82 3 526 2 725 0 79 27 525 SolidEdge/PatternOccurrence82 3 501 2 725 2 80 2
 497 504 527 9000 2 2 2 2 3 6 0 0 0 FFTFFFFFFFFFFF2 3 83 2 498 1 16 84 20 499 SE
 219.0.0.91 Type8679 22 527 MONIKER/BODY_ID_ATTRIB82 3 496 2 725 1 83 3 336 .819
607853889465 .819607853889465 .819607853889465 83 3 330 .819607853889465 .819607
853889465 .819607853889465 82 1 318 10 82 28 319 0 1 0 0 0 0 3 0 1 0 0 1 2 1 2 1
 350 0 1 0 1 315 0 0 0 0 0 0 83 29 320 .005 .0127 .0127 82 .0127 .0127 0 .0508 2
 0 0 0 0 .1 0 0 0 .04363323129985825 .1 1 0 0 0 0 0 0 .0127 0 0 87 2 321 .089415
 0 .05 0 0 1 79 17 314 SolidEdge/Display79 15 309 SDL/TYSA_COLOUR83 1 305 .5 82
 1 306 0 83 3 304 .819607853889465 .819607853889465 .819607853889465 83 1 299 .5
 82 1 300 0 83 3 298 .819607853889465 .819607853889465 .819607853889465 83 3 293
 .819607853889465 .819607853889465 .819607853889465 83 3 288 .819607853889465 .8
19607853889465 .819607853889465 79 21 284 SDL/TYSA_TRANSLUCENCY83 1 278 .5 82 1
 279 0 83 1 277 0 79 21 272 SDL/TYSA_REFLECTIVITY83 1 265 .5 82 1 266 0 17 259 0
 249 259 259 0 86 84 0 0 -15 249 357 0 259 245 528 15 528 358 0 90 245 0 17 90 0
 528 90 90 0 115 87 0 0 +83 1 253 .5 82 1 254 0 15 188 66 0 186 111 0 83 1 228 .
5 82 1 229 0 17 69 0 68 54 62 185 70 170 0 75 +17 70 0 183 66 184 65 69 170 0 0
 -17 75 0 188 186 38 185 54 72 0 184 +17 38 0 188 75 40 33 32 39 0 0 -17 40 0 18
8 38 186 25 169 77 0 55 -17 55 0 177 169 57 25 36 56 0 0 -16 80 37 529 ?186 56 1
70 79 0 0 1 81 1 529 39 124 80 0 0 0 172 530 80 1 124 531 532 9000 0 0 0 0 3 6 0
 0 0 FFFFTFTTFFFFFF1 81 1 172 42 124 170 0 0 529 173 533 82 1 530 17 81 1 173 45
 124 67 0 0 172 174 534 82 1 533 17 82 1 534 17 79 27 532 SolidEdge/MNKR_ATTR_TY
PE_EX17 59 0 58 61 46 178 57 71 0 175 +81 1 156 173 124 128 0 0 174 164 535 82 1
 176 17 81 1 164 176 124 158 0 0 156 162 536 82 1 535 17 81 1 162 179 124 30 0 0
 164 125 537 82 1 536 17 81 1 125 182 124 140 0 0 162 121 538 82 1 537 17 82 1 5
38 17 81 1 89 363 124 87 0 0 121 95 539 82 1 126 17 81 1 95 378 124 94 0 0 89 21
 540 82 1 539 17 81 1 21 393 124 9 0 0 95 0 541 82 1 540 17 82 1 541 17 19 16 83
 0 1 0 8 4 S0 74 4 CI16 index_map_offset0 0 1 dCCZ20 14 12 0 0 21 384 327 493 30
2 388 11 511 12 303 264 262 0 0 0 0 0 0 0 0 1 0 
