**ABCDEFGHIJKLMNOPQRSTUVWXYZabcdefghijklmnopqrstuvwxyz**************************
**PARASOLID !"#$%&'()*+,-./:;<=>?@[\]^_`{|}~0123456789**************************
**PART1;
MC=RODRIGO;
MC_MODEL=unknown;
MC_ID=unknown;
OS=Windows NT;
OS_RELEASE=6.2;
FRU=Unigraphics Solutions;
APPL=SolidEdge;
SITE=Huntsville, AL;
USER=GoniR
FORMAT=text;
GUISE=transmit;
KEY=C:\Users\GoniR\OneDrive\Documentos\Facultad\R2\Protecto final R2\Piezas_xt\motor;
FILE=C:\Users\GoniR\OneDrive\Documentos\Facultad\R2\Protecto final R2\Piezas_xt\motor.x_t;
DATE=sáb., nov. 21 20;
**PART2;
SCH=SCH_3001256_30100;
USFLD_SIZE=0;
**PART3;
**END_OF_HEADER*****************************************************************
T51 : TRANSMIT FILE created by modeller version 300125623 SCH_3001256_30100_1300
6214 0 12 34 CCCCCCI4 mesh1006 0 I8 polyline1008 0 CCCCCCCDI5 owner1040 0 CCCCCC
I13 boundary_mesh1006 0 I17 boundary_polyline1008 0 CCCA16 index_map_offset0 0 1
 dA9 index_map82 0 A17 node_id_index_map82 0 A20 schema_embedding_map82 0 A5 chi
ld12 0 A14 lowest_node_id0 0 1 dA16 mesh_offset_data206 0 Z1 125 2 3 0 0 0 0 0 0
 1e3 1e-8 0 0 0 1 0 1 1 4 5 6 0 0 0 7 8 0 0 0 0 0 0 0 0 81 255 3 2 110 9 1 10 0
 0 0 11 12 13 70 11 CI9 list_type0 0 1 uI10 notransmit0 0 1 lCCCDCCDI12 finger_i
ndex0 0 1 dI12 finger_block1012 0 CZ3 0 4 T1 0 0 10 20 1 14 14 13 255 4 29 0 1 0
 15 0 0 16 0 51 255 5 28 0 15 17 0 0 --.15 0 367381906146713e-32 1 0 0 .04 0 0 -
1 31 255 6 23 0 18 19 0 0 +0 0 367381906146713e-32 -1 612303176911189e-31 0 6123
03176911189e-31 1 0 .04 19 8 CCCCCCCA5 owner12 0 Z7 1 0 1 16 0 20 V0 16 255 8 5
 0 ?21 0 18 19 0 0 1 17 255 21 0 22 21 21 0 23 8 0 0 +16 18 19 24 ?25 8 26 6 0 0
 1 31 19 6 0 8 27 6 0 +-.15 0 367381906146713e-32 -1 612303176911189e-31 0 61230
3176911189e-31 1 0 .04 31 27 104 0 26 28 19 0 +-.15 918454765366783e-32 69388939
0390723e-32 -1 612303176911189e-31 0 -612303176911189e-31 -1 0 .0365 16 26 68 0
 ?29 18 30 27 0 0 1 31 28 105 0 30 0 27 0 +0 0 693889390390723e-32 1 -6123031769
11189e-31 0 612303176911189e-31 1 0 .0365 16 30 71 31 ?32 26 0 28 0 0 1 81 1 31
 74 33 30 0 0 24 0 34 17 32 0 35 32 32 0 36 30 0 0 +15 255 35 80 0 32 37 38 17 3
6 0 39 36 36 0 32 30 0 0 -15 39 48 0 36 40 41 14 255 40 17 42 ?37 43 39 4 17 -0
 0 37 43 20 15 41 18 0 44 40 0 17 44 0 41 44 44 0 25 18 0 0 -17 25 0 45 25 25 0
 44 18 0 0 +15 45 26 0 25 15 0 14 15 25 46 ?43 0 47 4 5 -0 0 43 0 20 81 2 46 116
 48 15 49 0 0 50 51 52 14 43 8 50 ?40 15 53 4 54 +0 0 40 15 20 15 47 24 0 23 15
 45 13 20 3 0 0 0 0 0 0 7 15 17 23 0 47 23 23 0 21 8 0 0 -81 2 50 119 48 43 55 0
 46 42 56 57 15 53 56 0 58 43 22 50 255 54 11 0 43 59 17 0 +-.15 0 3673819061467
13e-32 -1 612303176911189e-31 0 -612303176911189e-31 -1 0 51 59 101 0 37 0 54 0
 +-.1878829422805595 115041322445808e-31 693889390390723e-32 1 -612303176911189e
-31 0 .0365 612303176911189e-31 1 0 50 17 22 0 40 54 5 0 +0 0 367381906146713e-3
2 -1 612303176911189e-31 0 -612303176911189e-31 -1 0 14 37 75 60 ?0 40 35 4 59 -
0 0 0 40 20 81 2 60 125 48 37 61 0 42 0 62 63 80 255 2 48 64 65 8014 0 0 0 0 3 5
 0 0 0 FFFFTFFFFFFFFF2 1 81 1 61 124 66 37 67 60 68 0 69 81 2 42 122 48 40 68 0
 50 60 70 71 83 255 1 62 0 82 255 1 63 0 81 1 68 121 66 40 72 42 55 61 73 83 1 7
0 0 82 1 71 0 80 1 66 48 74 8015 0 0 0 0 3 5 0 0 0 FFFFTFFFFFFFFF2 81 1 72 120 7
5 40 76 68 77 67 78 81 1 55 118 66 43 77 50 49 68 79 83 1 73 0 81 1 77 117 75 43
 80 55 81 72 82 81 1 49 115 66 15 81 46 0 55 83 83 1 79 0 81 1 81 114 75 15 84 4
9 0 77 85 83 1 83 0 80 1 75 0 86 8001 0 0 0 0 3 5 0 0 0 FFFFTFTFFFFFFF2 81 1 84
 43 87 15 88 81 0 80 0 83 3 85 .505882382392883 .529411792755127 .54901963472366
3 80 1 87 33 89 9000 1 1 1 1 1 1 1 1 0 FFFFTFTTFFFFFF1 81 1 88 41 90 15 91 84 92
 93 94 81 1 80 111 87 43 95 77 84 76 0 81 1 95 34 90 43 96 80 0 92 97 81 1 76 11
2 87 40 92 72 80 98 0 81 1 92 37 90 40 99 76 95 88 100 81 1 98 113 87 37 101 67
 76 0 0 81 5 101 109 102 37 103 98 0 0 104 105 106 0 107 81 1 67 123 75 37 98 61
 72 0 108 83 3 108 .505882382392883 .529411792755127 .549019634723663 80 5 102 1
09 110 9000 2 2 2 2 3 5 0 0 0 FFFFTFFFFFFFFF1 1 2 10 7 81 3 103 76 111 37 93 101
 91 0 112 113 0 82 1 104 10 82 28 105 0 1 0 0 0 0 3 0 1 0 0 1 2 1 2 1 350 0 1 0
 1 75 0 0 0 0 0 0 83 29 106 .073 .0127 .0127 82 .0127 .0127 0 .0508 2 0 0 0 0 .1
 0 0 0 .04363323129985825 .1 1 0 0 0 0 0 0 .0127 0 0 87 255 2 107 0 0 6938893903
90723e-32 1 -612303176911189e-31 0 80 3 111 114 115 9000 0 0 0 0 3 6 0 0 0 FFFFT
FTTFFFFFF1 1 3 81 1 93 79 90 37 0 103 88 0 116 81 3 91 38 111 15 0 88 99 103 117
 118 0 82 1 112 0 82 1 113 5 81 3 99 35 111 40 0 92 96 91 119 120 0 82 1 117 0 8
2 1 118 2 81 3 96 31 111 43 0 95 0 99 121 122 0 82 1 119 0 82 1 120 1 82 1 121 0
 82 1 122 0 80 1 90 123 124 9000 0 0 0 0 3 6 0 0 0 FFFFTFFFFFFFFF1 82 1 116 526
 79 255 23 124 SolidEdge/MNKR_ATTR_CID79 27 115 MONIKER/MONIKER_DATA_ATTRIB79 30
 110 SolidEdge/EndHoleThread_u_info82 1 100 457 82 1 97 457 82 1 94 457 79 17 89
 SolidEdge/Display79 15 86 SDL/TYSA_COLOUR83 3 82 .505882382392883 .529411792755
127 .549019634723663 83 3 78 .505882382392883 .529411792755127 .549019634723663
 79 21 74 SDL/TYSA_TRANSLUCENCY83 1 69 0 79 21 65 SDL/TYSA_REFLECTIVITY17 58 0 5
3 58 58 0 29 26 0 0 -15 22 7 0 21 43 0 17 29 0 38 29 29 0 58 26 0 0 +15 38 81 0
 29 37 0 83 1 56 0 82 1 57 0 83 1 51 0 82 1 52 0 80 1 33 125 126 9000 0 0 0 0 3
 6 0 0 0 FFFFTFTTFFFFFF1 81 1 24 21 33 18 0 0 0 31 127 82 1 34 17 82 1 127 17 79
 27 126 SolidEdge/MNKR_ATTR_TYPE_EX19 16 30 0 1 0 7 4 S0 74 4 CI16 index_map_off
set0 0 1 dCCZ20 14 10 0 0 31 103 93 98 10 101 2 67 61 60 0 0 0 0 0 0 0 0 0 0 81
 2 10 46 128 1 0 2 0 0 129 130 80 2 128 9 131 9000 2 2 2 2 3 6 0 0 0 FFTFFFFFFFF
FFF2 3 83 2 129 1 2 84 255 20 130 SE 219.0.0.91 Type8679 22 131 MONIKER/BODY_ID_
ATTRIB80 3 9 132 133 9000 0 0 0 0 3 6 0 0 0 FFTFFFFFFFFFFF3 3 1 84 38 11 {bd9e3e
bd-b27d-4a86-9c1f-e42ef14796a1}84 2 12 SE82 1 13 0 79 25 133 MONIKER/GUID_TABLE_
ATTRIB1 0 
