**ABCDEFGHIJKLMNOPQRSTUVWXYZabcdefghijklmnopqrstuvwxyz**************************
**PARASOLID !"#$%&'()*+,-./:;<=>?@[\]^_`{|}~0123456789**************************
**PART1;
MC=RODRIGO;
MC_MODEL=unknown;
MC_ID=unknown;
OS=Windows NT;
OS_RELEASE=6.2;
FRU=Unigraphics Solutions;
APPL=SolidEdge;
SITE=Huntsville, AL;
USER=GoniR
FORMAT=text;
GUISE=transmit;
KEY=C:\Users\GoniR\OneDrive\Documentos\Facultad\R2\Protecto final R2\Piezas_xt\Pata1;
FILE=C:\Users\GoniR\OneDrive\Documentos\Facultad\R2\Protecto final R2\Piezas_xt\Pata1.x_t;
DATE=sáb., nov. 21 20;
**PART2;
SCH=SCH_3001256_30100;
USFLD_SIZE=0;
**PART3;
**END_OF_HEADER*****************************************************************
T51 : TRANSMIT FILE created by modeller version 300125623 SCH_3001256_30100_1300
6214 0 12 34 CCCCCCI4 mesh1006 0 I8 polyline1008 0 CCCCCCCDI5 owner1040 0 CCCCCC
I13 boundary_mesh1006 0 I17 boundary_polyline1008 0 CCCA16 index_map_offset0 0 1
 dA9 index_map82 0 A17 node_id_index_map82 0 A20 schema_embedding_map82 0 A5 chi
ld12 0 A14 lowest_node_id0 0 1 dA16 mesh_offset_data206 0 Z1 549 2 3 0 0 0 0 0 0
 1e3 1e-8 0 0 0 1 0 1 1 4 5 6 7 0 0 8 9 10 0 0 0 0 0 0 0 81 255 3 2 510 11 1 12
 0 0 0 13 14 15 70 11 CI9 list_type0 0 1 uI10 notransmit0 0 1 lCCCDCCDI12 finger
_index0 0 1 dI12 finger_block1012 0 CZ3 0 4 T1 0 0 10 20 1 16 16 13 255 4 82 0 1
 0 17 0 0 18 0 50 255 5 77 0 17 19 0 0 +.025 .025 1 0 -1 0 0 0 -1 30 255 6 383 0
 9 20 0 0 +.022 1.050371089058722 .002181596184988165 0 -1 0 29 255 7 357 0 10 2
1 0 -.022 -.022 .002181596184988255 19 8 CCCCCCCA5 owner12 0 Z8 1 0 1 18 0 22 V0
 16 255 9 341 0 ?23 0 24 6 0 0 1 18 255 10 355 0 25 0 26 7 ?1 17 255 25 0 27 28
 29 10 30 31 0 32 -18 26 145 0 33 10 34 21 ?1 17 33 0 35 36 32 26 37 38 0 39 -18
 34 17 0 40 26 41 42 ?1 29 21 147 0 26 43 7 -.022 -.022 1 29 43 61 0 44 42 21 -.
025 .025 0 18 44 52 0 45 46 47 43 ?1 29 42 20 0 34 48 43 .025 .025 1 29 48 14 0
 41 49 42 .025 -.025 1 18 41 11 0 50 34 51 48 ?1 29 49 8 0 51 52 48 -.025 -.025
 1 18 51 5 0 53 41 46 49 ?1 29 52 4 0 46 54 49 -.025 .025 1 18 46 2 0 55 51 44 5
2 ?1 29 54 313 0 47 56 52 -.022 .022 1 18 47 220 0 57 44 58 54 ?1 29 56 314 0 58
 59 54 .022 -.022 1 18 58 225 0 36 47 60 56 ?1 29 59 315 0 60 61 56 .022 .022 1
 18 60 222 0 62 58 63 59 ?1 29 61 495 0 63 64 59 .025 .025 0 18 63 438 0 65 60 6
6 61 ?1 29 64 497 0 66 67 61 -.022 .022 .002181596184988165 18 66 441 0 29 63 68
 64 ?1 29 67 498 0 68 69 64 .022 -.022 .002181596184988165 18 68 439 0 28 66 70
 67 ?1 29 69 499 0 70 71 67 .022 .022 .002181596184988165 18 70 442 0 72 68 73 6
9 ?1 29 71 500 0 73 74 69 .025 -.025 0 18 73 443 0 75 70 76 71 ?1 29 74 501 0 76
 0 71 -.025 -.025 0 18 76 436 0 77 73 0 74 ?1 17 77 0 78 45 75 76 79 80 0 81 +15
 255 78 468 0 65 82 0 17 45 0 78 65 77 44 81 83 0 84 -17 75 0 78 77 65 73 85 86
 0 79 -17 79 0 87 88 89 73 77 80 0 90 -16 80 430 91 ?77 92 0 93 0 0 1 17 81 0 94
 95 96 76 45 83 0 89 +15 94 70 0 81 97 0 17 95 0 94 55 81 51 89 98 0 99 -17 96 0
 94 81 55 44 100 24 0 0 +16 83 43 101 ?81 86 102 103 0 0 1 17 89 0 87 79 99 76 9
5 98 0 0 +15 87 68 0 89 104 0 17 99 0 87 89 88 51 50 105 0 0 -16 98 64 0 ?89 24
 106 107 0 0 1 16 24 65 0 ?96 9 98 20 0 0 1 16 106 63 0 ?90 98 108 109 0 0 1 30
 107 80 0 98 109 20 0 +-.025 -.025 1 0 0 -1 30 109 79 0 106 110 107 0 +.025 -.02
5 1 0 0 -1 30 20 81 0 24 107 6 0 +-.025 .025 1 0 0 -1 30 110 78 0 108 111 109 0
 +.025 .025 1 0 0 -1 16 108 62 0 ?112 106 113 110 0 0 1 30 111 55 0 86 103 110 0
 +.025 -.025 0 0 1 0 16 86 37 114 ?85 115 83 111 0 0 1 30 103 57 0 83 116 111 0
 +-.025 .025 0 0 -1 0 30 116 24 0 115 117 103 0 +.025 .025 1 -1 0 0 16 115 23 0
 ?118 119 86 116 0 0 1 30 117 19 0 113 120 116 0 +.025 -.025 1 0 1 0 16 113 18 0
 ?40 108 105 117 0 0 1 30 120 13 0 105 121 117 0 +-.025 -.025 1 1 0 0 16 105 12
 0 ?50 113 119 120 0 0 1 30 121 7 0 119 122 120 0 +-.025 .025 1 0 -1 0 16 119 6
 0 ?53 105 115 121 0 0 1 30 122 296 0 123 124 121 0 +.022 0 1 0 1 0 16 123 199 0
 ?62 125 38 122 0 0 1 30 124 297 0 125 126 122 0 +0 .022 1 -1 0 0 16 125 195 0 ?
57 127 123 124 0 0 1 30 126 298 0 127 128 124 0 +-.022 0 1 0 -1 0 16 127 191 0 ?
39 102 125 126 0 0 1 30 128 299 0 102 129 126 0 +0 -.022 1 1 0 0 16 102 187 0 ?3
6 83 127 128 0 0 1 30 129 300 0 38 130 128 0 +-.022 -.022 1.00249688278817 0 0 -
1 16 38 182 0 ?37 123 131 129 0 0 1 30 130 301 0 131 132 129 0 +-.022 .022 1.002
49688278817 0 0 -1 16 131 183 0 ?133 38 134 130 0 0 1 30 132 302 0 134 135 130 0
 +.022 .022 1.00249688278817 0 0 -1 16 134 184 0 ?136 131 137 132 0 0 1 30 135 3
03 0 137 138 132 0 +.022 -.022 1.00249688278817 0 0 -1 16 137 185 0 ?139 134 140
 135 0 0 1 31 255 138 487 0 140 141 135 0 +0 .025 -.03122498999199195 0 -1 0 0 0
 -1 .04 16 140 424 0 ?84 137 142 138 0 0 1 31 141 489 0 142 143 138 0 +0 -.022 -
.03122498999199195 0 -1 0 0 0 -1 .04 16 142 418 0 ?32 140 31 141 0 0 1 30 143 49
0 0 31 144 141 0 --.022 1.050371089058722 .002181596184988165 0 -1 0 16 31 420 0
 ?30 142 92 143 0 0 1 31 144 491 0 92 93 143 0 +0 .022 -.03122498999199195 0 1 0
 0 0 1 .04 16 92 422 0 ?145 31 80 144 0 0 1 31 93 492 0 80 0 144 0 +0 -.025 -.03
122498999199195 0 -1 0 0 0 1 .04 17 145 0 146 147 133 70 29 92 0 136 +15 146 247
 0 133 148 0 17 147 0 146 57 145 60 136 134 0 149 -17 133 0 146 145 57 66 150 13
1 0 0 +17 29 0 27 25 72 66 145 92 0 30 -17 136 0 151 23 62 70 147 134 0 0 +15 15
1 253 0 136 152 0 17 23 0 151 153 136 68 72 9 0 139 +17 62 0 151 136 153 60 154
 123 0 147 +17 153 0 151 62 23 58 139 137 0 154 -17 154 0 155 156 149 58 62 123
 0 0 -15 155 149 0 156 157 158 17 156 0 155 159 154 26 36 102 0 0 -17 149 0 155
 154 159 60 57 125 0 0 -17 159 0 155 149 156 47 39 127 0 0 -17 57 0 146 133 147
 47 149 125 0 150 +17 150 0 160 39 30 47 133 131 0 159 -15 160 241 0 37 161 0 17
 39 0 160 37 150 26 159 127 0 156 +17 30 0 160 150 37 66 25 31 0 133 +17 37 0 16
0 30 39 10 33 38 0 0 +14 255 161 236 162 ?148 163 160 4 164 -0 0 148 163 22 81 2
 162 540 165 161 166 0 167 168 169 170 14 148 242 168 ?152 161 146 4 171 -0 0 15
2 161 22 14 163 230 167 ?161 157 35 4 172 -0 0 161 157 22 50 164 291 0 161 171 1
72 0 +-.022 -.022 1.00249688278817 -1 0 0 0 0 1 13 22 3 0 0 0 0 0 0 8 17 14 17 7
3 173 ?97 0 174 4 5 -0 0 97 0 22 81 2 173 522 165 17 175 0 0 176 177 178 14 97 7
1 176 ?104 17 94 4 19 -0 0 104 17 22 15 174 72 0 112 17 0 17 112 0 174 84 179 63
 180 108 0 0 +17 84 0 174 100 112 44 65 140 0 96 +17 179 0 174 112 100 34 118 11
5 0 0 -17 180 0 181 182 85 34 112 108 0 179 -15 181 66 0 85 183 0 17 182 0 181 9
0 180 41 40 113 0 0 -17 85 0 181 180 90 63 75 86 0 112 +17 90 0 181 85 182 73 88
 106 0 0 +17 88 0 87 99 79 41 90 106 0 182 -17 40 0 158 118 50 34 182 113 0 180
 +15 158 25 0 118 157 0 17 118 0 158 53 40 46 179 115 0 100 +17 50 0 158 40 53 4
1 99 105 0 88 +17 53 0 158 50 118 51 55 119 0 95 +17 55 0 94 96 95 46 53 119 0 1
18 -17 100 0 174 179 84 46 96 24 0 0 -14 157 26 184 ?163 183 155 4 185 +0 0 163
 183 22 81 2 184 534 165 157 186 0 187 167 188 189 14 183 67 187 ?157 104 181 4
 190 -0 0 157 104 22 50 185 29 0 157 172 190 0 +0 0 1 0 0 1 1 0 0 50 172 290 0 1
63 164 185 0 +.022 -.022 1.00249688278817 0 -1 0 0 0 -1 50 190 74 0 183 185 191
 0 +.025 -.025 1 -1 0 0 0 0 1 50 191 75 0 104 190 19 0 +-.025 -.025 1 0 1 0 0 0
 1 14 104 69 192 ?183 97 87 4 191 -0 0 183 97 22 50 19 76 0 97 191 5 0 +-.025 .0
25 1 1 0 0 0 0 -1 81 2 192 528 165 104 193 0 176 187 194 195 80 255 2 165 196 19
7 8014 0 0 0 0 3 5 0 0 0 FFFFTFFFFFFFFF2 1 81 1 193 527 198 104 199 192 200 201
 202 81 2 176 525 165 97 200 0 173 192 203 204 81 2 187 531 165 183 201 0 192 18
4 205 206 83 255 1 194 .5 82 255 1 195 0 81 1 201 530 198 183 207 187 193 186 20
8 83 1 205 .5 82 1 206 0 80 1 198 165 209 8015 0 0 0 0 3 5 0 0 0 FFFFTFFFFFFFFF2
 81 1 207 529 210 183 211 201 199 212 213 81 1 186 533 198 157 212 184 201 214 2
15 83 1 208 0 81 1 212 532 210 157 216 186 207 217 218 81 1 214 536 198 163 217
 167 186 166 219 83 1 215 0 81 1 217 535 210 163 220 214 212 221 222 81 2 167 53
7 165 163 214 0 184 162 223 224 81 1 166 539 198 161 221 162 214 225 226 83 1 21
9 0 81 1 221 538 210 161 227 166 217 228 229 81 1 225 542 198 148 228 168 166 23
0 231 83 1 226 0 81 1 228 541 210 148 232 225 221 233 234 81 2 168 543 165 148 2
25 0 162 235 236 237 81 1 230 545 198 152 233 235 225 238 239 83 1 231 0 14 152
 248 235 ?82 148 151 4 240 -0 0 82 148 22 81 1 233 544 210 152 241 230 228 242 2
43 81 2 235 546 165 152 230 0 168 244 245 246 81 1 238 548 198 82 242 244 230 0
 247 83 1 239 0 14 82 462 244 ?0 152 27 4 248 -0 0 0 152 22 81 1 242 547 210 82
 249 238 233 0 250 81 2 244 549 165 82 238 0 235 0 251 252 83 1 247 0 83 1 251 .
5 82 1 252 0 80 1 210 0 253 8001 0 0 0 0 3 5 0 0 0 FFFFTFTFFFFFFF2 81 1 249 519
 254 82 255 242 241 0 0 83 3 250 .819607853889465 .819607853889465 .819607853889
465 80 1 254 256 257 9000 1 1 1 1 1 1 1 1 0 FFFFTFTTFFFFFF1 81 5 255 509 258 82
 259 249 0 0 260 261 262 0 263 81 1 241 518 254 152 264 233 232 249 0 81 3 264 2
49 265 152 266 241 267 268 269 270 0 81 1 232 517 254 148 267 228 227 241 0 81 3
 267 243 265 148 271 232 272 264 273 274 0 81 1 227 516 254 161 272 221 220 232
 0 81 3 272 237 265 161 275 227 276 267 277 278 0 81 1 220 515 254 163 276 217 2
11 227 0 81 3 276 231 265 163 279 220 280 272 281 282 0 81 1 211 514 254 183 283
 207 284 220 0 81 1 283 94 285 183 286 211 287 288 289 81 1 284 513 254 104 288
 199 290 211 0 81 1 288 98 285 104 291 284 283 292 293 81 1 199 526 210 104 284
 193 294 207 295 81 1 290 512 254 97 292 294 296 284 0 81 1 292 102 285 97 297 2
90 288 298 299 81 1 294 523 210 97 290 200 300 199 301 81 1 296 511 254 17 298 3
00 216 290 0 81 1 298 106 285 17 280 296 292 279 302 81 1 300 520 210 17 296 175
 0 294 303 81 1 216 329 254 157 287 212 0 296 0 81 1 287 87 285 157 304 216 0 28
3 305 80 1 285 306 307 9000 0 0 0 0 3 6 0 0 0 FFFFTFFFFFFFFF1 81 3 304 84 265 15
7 0 287 0 286 308 309 0 82 1 305 1055 80 3 265 310 311 9000 0 0 0 0 3 6 0 0 0 FF
FFTFTTFFFFFF1 1 3 81 3 286 91 265 183 0 283 304 291 312 313 0 82 1 308 0 82 1 30
9 0 81 3 291 95 265 104 0 288 286 297 314 315 0 82 1 312 0 82 1 313 2 81 3 297 9
9 265 97 0 292 291 280 316 317 0 82 1 314 0 82 1 315 3 81 3 280 103 265 17 0 298
 297 276 318 319 0 82 1 316 0 82 1 317 4 82 1 318 0 82 1 319 5 79 255 27 311 MON
IKER/MONIKER_DATA_ATTRIB79 23 307 SolidEdge/MNKR_ATTR_CID81 1 175 521 198 17 300
 173 0 200 320 83 3 303 .819607853889465 .819607853889465 .819607853889465 81 1
 200 524 198 97 294 176 175 193 321 83 1 320 0 83 1 321 0 81 1 279 234 285 163 0
 276 298 275 322 82 1 302 1055 81 1 275 240 285 161 0 272 279 271 323 82 1 322 1
163 81 1 271 246 285 148 0 267 275 266 324 82 1 323 1163 81 1 266 252 285 152 0
 264 271 259 325 82 1 324 1163 81 1 259 463 285 82 268 255 266 0 326 82 1 325 11
63 81 3 268 466 265 82 0 259 264 0 327 328 0 82 1 326 1374 82 1 327 0 82 1 328 1
4 83 3 301 .819607853889465 .819607853889465 .819607853889465 82 1 299 1055 83 3
 295 .819607853889465 .819607853889465 .819607853889465 82 1 293 1055 82 1 289 1
055 82 1 281 0 82 1 282 11 82 1 277 0 82 1 278 10 82 1 273 0 82 1 274 9 82 1 269
 0 82 1 270 8 80 5 258 329 330 9000 2 2 2 2 3 5 0 0 0 FFFFTFFFFFFFFF1 1 2 10 7 8
2 1 260 10 82 28 261 0 1 0 0 0 0 3 0 1 0 0 1 2 1 2 1 350 0 1 0 1 462 0 0 0 0 0 0
 83 29 262 .08 .0127 .0127 82 .0127 .0127 0 .0508 2 0 0 0 0 .1 0 0 0 .0436332312
9985825 .1 1 0 0 0 0 0 0 .0127 0 0 87 255 2 263 0 -.025 -.03122498999199195 0 -1
 0 79 30 330 SolidEdge/EndHoleThread_u_info79 17 257 SolidEdge/Display79 15 253
 SDL/TYSA_COLOUR15 27 467 0 72 82 78 51 255 248 481 0 82 0 240 0 +0 1.0503710890
58722 -.03122498999199195 0 -1 0 .04 0 0 -1 50 240 293 0 152 248 171 0 +.022 .02
2 1.00249688278817 1 0 0 0 0 -1 50 171 292 0 148 240 164 0 +-.022 .022 1.0024968
8278817 0 1 0 0 0 1 17 72 0 27 29 28 70 23 9 0 145 -17 28 0 27 72 25 68 32 142 0
 23 -17 32 0 35 33 139 10 28 142 0 37 +15 35 235 0 139 163 0 17 139 0 35 32 36 6
8 153 137 0 0 +17 36 0 35 139 33 58 156 102 0 153 +83 1 245 .5 82 1 246 0 83 3 2
43 .819607853889465 .819607853889465 .819607853889465 83 1 236 .5 82 1 237 0 83
 3 234 .819607853889465 .819607853889465 .819607853889465 83 3 229 .819607853889
465 .819607853889465 .819607853889465 83 1 223 .5 82 1 224 0 83 3 222 .819607853
889465 .819607853889465 .819607853889465 83 3 218 .819607853889465 .819607853889
465 .819607853889465 83 3 213 .819607853889465 .819607853889465 .819607853889465
 79 21 209 SDL/TYSA_TRANSLUCENCY83 1 203 .5 82 1 204 0 83 1 202 0 79 21 197 SDL/
TYSA_REFLECTIVITY83 1 188 .5 82 1 189 0 17 65 0 78 75 45 63 84 140 0 85 -83 1 17
7 .5 82 1 178 0 83 1 169 .5 82 1 170 0 81 1 114 39 256 86 0 0 0 101 331 80 1 256
 332 333 9000 0 0 0 0 3 6 0 0 0 FFFFTFTTFFFFFF1 81 1 101 45 256 83 0 0 114 91 33
4 82 1 331 17 81 1 91 432 256 80 0 0 101 0 335 82 1 334 17 82 1 335 17 79 27 333
 SolidEdge/MNKR_ATTR_TYPE_EX19 18 83 0 1 0 8 4 S0 74 4 CI16 index_map_offset0 0
 1 dCCZ20 16 10 0 0 91 268 259 249 12 255 2 242 238 244 0 0 0 0 0 0 0 0 0 0 81 2
 12 114 336 1 0 2 0 0 337 338 80 2 336 11 339 9000 2 2 2 2 3 6 0 0 0 FFTFFFFFFFF
FFF2 3 83 2 337 1 15 84 255 20 338 SE 219.0.0.91 Type8679 22 339 MONIKER/BODY_ID
_ATTRIB80 3 11 340 341 9000 0 0 0 0 3 6 0 0 0 FFTFFFFFFFFFFF3 3 1 84 38 13 {ec9c
293a-6b65-48d0-8376-b6a5656b39cc}84 2 14 SE82 1 15 0 79 25 341 MONIKER/GUID_TABL
E_ATTRIB1 0 
