**ABCDEFGHIJKLMNOPQRSTUVWXYZabcdefghijklmnopqrstuvwxyz**************************
**PARASOLID !"#$%&'()*+,-./:;<=>?@[\]^_`{|}~0123456789**************************
**PART1;
MC=RODRIGO;
MC_MODEL=unknown;
MC_ID=unknown;
OS=Windows NT;
OS_RELEASE=6.2;
FRU=Unigraphics Solutions;
APPL=SolidEdge;
SITE=Huntsville, AL;
USER=GoniR
FORMAT=text;
GUISE=transmit;
KEY=C:\Users\GoniR\OneDrive\Documentos\Facultad\R2\Protecto final R2\Piezas_xt\Base;
FILE=C:\Users\GoniR\OneDrive\Documentos\Facultad\R2\Protecto final R2\Piezas_xt\Base.x_t;
DATE=sáb., nov. 21 20;
**PART2;
SCH=SCH_3001256_30100;
USFLD_SIZE=0;
**PART3;
**END_OF_HEADER*****************************************************************
T51 : TRANSMIT FILE created by modeller version 300125623 SCH_3001256_30100_1300
6214 0 12 34 CCCCCCI4 mesh1006 0 I8 polyline1008 0 CCCCCCCDI5 owner1040 0 CCCCCC
I13 boundary_mesh1006 0 I17 boundary_polyline1008 0 CCCA16 index_map_offset0 0 1
 dA9 index_map82 0 A17 node_id_index_map82 0 A20 schema_embedding_map82 0 A5 chi
ld12 0 A14 lowest_node_id0 0 1 dA16 mesh_offset_data206 0 Z1 346 2 3 0 0 0 0 0 0
 1e3 1e-8 0 0 0 1 0 1 1 4 5 6 0 0 0 7 8 0 0 0 0 0 0 0 0 81 255 3 2 316 9 1 10 0
 0 0 11 12 13 70 11 CI9 list_type0 0 1 uI10 notransmit0 0 1 lCCCDCCDI12 finger_i
ndex0 0 1 dI12 finger_block1012 0 CZ3 0 4 T1 0 0 11 20 1 14 14 13 255 4 131 0 1
 0 15 0 0 16 0 54 255 5 252 0 1 17 0 18 +0 0 .222406325119886 0 0 -1 .5134307558
75251 .4625 183697019872103e-30 1 0 31 255 6 254 0 8 19 0 0 +-1642557519356385e-
32 -.0894166666666667 0 0 0 -1 -183697019872103e-30 -1 0 .0025 19 8 CCCCCCCA5 ow
ner12 0 Z7 133 0 1 16 0 20 V0 16 255 8 253 21 ?22 0 23 6 0 0 1 81 1 21 255 24 8
 0 0 25 26 27 17 255 22 0 28 22 22 0 29 8 0 0 +16 23 250 0 ?30 8 31 19 0 0 1 17
 30 0 32 30 30 0 33 23 0 0 +16 31 238 25 ?34 23 35 36 0 0 1 38 12 CCCCCCCCCCCA17
 intersection_data204 0 Z19 251 0 23 36 6 0 +5 17 37 38 38 39 31 36 239 0 31 40
 19 0 +-.0894166666666667 1095038346237592e-32 0 0 0 -1 -1 1224646799147352e-31
 0 .0025 51 255 17 244 0 15 41 5 42 +-1642557519356385e-32 -.0894166666666667 .3
292099127709655 0 0 -1 .0025 183697019872103e-30 1 0 40 255 22 37 0 1 22 .000843
087478899439 .3841156796873125 ??-.00099750733898492 -.09170904078724 .032507350
8283066 -.001686918638754955 -.0912617426830468 .03348111009477015 -.00235134434
920491 -.0902658896947707 .03568819609298875 -.00223091769105542 -.0882883908778
029 .0402410677463183 -.001469809369809236 -.0873943757834303 .04237915128357265
 -.000891531922408569 -.0870810359528481 .0431409974858475 -.000556621713720972
 -.0869794198043619 .04338949071932135 -.000151373845450352 -.0869212536830278 .
0435320481111773 .000171840693942056 -.0869225795038142 .04352879612047185 .0004
76389542076941 -.0869624757604412 .0434309944031912 .000888681052692093 -.087079
9497418796 .04314365000122205 .001444104055353642 -.0873759404534496 .0424237919
676878 .00217099393091214 -.0881769951973077 .04050466094676955 .002411398626015
89 -.0900763307224169 .0361146069693345 .001894143633794305 -.0910482977201094 .
0339495636684898 .001471406294418578 -.0914377959343646 .0330965715541112 .00082
3928296697273 -.0917769933732693 .03236034808247665 .000462566583235374 -.091873
500433138 .0321519896687069 4281818475641625e-20 -.0919162999603828 .03205974158
74324 -.0003385149443683485 -.0918936421676435 .032108565211273 -.00074373555932
0085 -.0918034757117733 .0323031242054669 -.000997507338984224 -.091709040787239
6 .03250735082830745 41 3 CI8 term_use0 0 1 cCZ1 38 H?-.000997507338984224 -.091
7090407872396 .03250735082830745 204 2 17 INTERSECTION_DATA17 Intersection data7
 uv_type0 0 1 u6 values0 1 1 fT88 39 4 3.15246909495346 2.718489021410125 3.5520
2187112489 .296702561942659 3.16007494971574 2.720796863054515 3.882242222425595
 .2957288026761955 3.167635854788575 2.72601894557451 4.36580253989106 .29352171
66779765 3.16685580583611 2.73675360248382 5.18062213450579 .288968845024647 3.1
5840919129009 2.741777649173435 5.65469557579866 .286830761487393 3.151830253151
45 2.743565245486065 5.91854554034637 .286068915285118 3.147992030783725 2.74414
8019331005 6.05865479306244 .285820422051644 3.14333415737633 2.74448228487716 6
.22259870956963 .285677864659788 3.139615716514805 2.74447466020082 .06879051908
4416 .2856811166504935 3.1361146037462 2.744245341125955 .191728306970035 .28577
89183677745 3.131387661447765 2.743571466999 .36341945123055 .2860662627697435 3
.125066678818185 2.74188243128356 .615836586740741 .2867861208032775 3.116976761
321875 2.737373572879425 1.051961561474854 .288705251824196 3.11482843263782 2.7
27026465490175 1.837824001763905 .293095305801631 3.120791930308055 2.7219062640
01515 2.281876326581095 .2952603491024755 3.125502159578335 2.71988577958781 2.5
12313034209735 .2961133412168545 3.132615391070135 2.71814041195102 2.8057431631
52405 .296849564688489 3.13655787563406 2.71764620680734 2.955493690090515 .2970
579231022585 3.14112681475949 2.717427368461395 3.12446454221422 .29715017118353
3 3.14527640586212 2.717543194496795 3.277415856072035 .2971013475596925 3.14969
3864171675 2.71800469365682 3.44365962138465 .2969067885654985 3.15246909495345
 2.718489021410125 3.5520218711247 .296702561942658 14 255 15 243 43 ?44 0 45 4
 17 -0 0 44 0 20 54 41 237 0 1 46 17 47 +0 0 .222406325119886 0 0 -1 .5134307558
75251 .4625 1 -1224646799147352e-31 0 141 255 42 19 42 42 17 51 46 229 0 44 48 4
1 49 +-.0894166666666667 1095038346237592e-32 .3292099127709655 0 0 -1 .0025 1 -
1224646799147352e-31 0 141 47 40 47 47 41 38 40 236 0 35 50 36 0 +41 46 51 52 52
 53 16 35 235 0 ?54 31 55 40 0 0 1 31 50 224 0 55 56 40 0 +547519173118796e-32 .
0894166666666667 0 0 0 -1 612323399573677e-31 1 0 .0025 40 22 51 0 1 22 .0008430
87478899439 .3841156796873125 ??-.09170904078724 .000997507338984915 .0325073508
283066 -.0912617426830468 .00168691863875495 .03348111009477015 -.09026588969477
07 .002351344349204905 .03568819609298875 -.0882883908778029 .002230917691055415
 .0402410677463183 -.0873943757834303 .00146980936980923 .04237915128357265 -.08
70810359528481 .000891531922408564 .0431409974858475 -.0869794198043619 .0005566
21713720967 .04338949071932135 -.0869212536830278 .000151373845450347 .043532048
1111773 -.0869225795038142 -.0001718406939420615 .04352879612047185 -.0869624757
604412 -.000476389542076946 .0434309944031912 -.0870799497418796 -.0008886810526
92098 .04314365000122205 -.0873759404534496 -.001444104055353648 .04242379196768
78 -.0881769951973077 -.002170993930912145 .04050466094676955 -.0900763307224169
 -.0024113986260159 .0361146069693345 -.0910482977201094 -.00189414363379431 .03
39495636684898 -.0914377959343646 -.001471406294418584 .0330965715541112 -.09177
69933732693 -.000823928296697279 .03236034808247665 -.091873500433138 -.00046256
658323538 .0321519896687069 -.0919162999603828 -428181847564219e-19 .03205974158
74324 -.0918936421676435 .000338514944368343 .032108565211273 -.0918034757117733
 .00074373555932008 .0323031242054669 -.0917090407872396 .000997507338984219 .03
250735082830745 41 1 52 H?-.0917090407872396 .000997507338984219 .03250735082830
745 204 88 53 4 3.15246909495346 2.718489021410125 3.55202187112489 .29670256194
2659 3.16007494971574 2.720796863054515 3.882242222425595 .2957288026761955 3.16
7635854788575 2.72601894557451 4.36580253989106 .2935217166779765 3.166855805836
11 2.73675360248382 5.18062213450579 .288968845024647 3.15840919129009 2.7417776
49173435 5.65469557579866 .286830761487393 3.15183025315145 2.743565245486065 5.
91854554034637 .286068915285118 3.147992030783725 2.744148019331005 6.0586547930
6244 .285820422051644 3.14333415737633 2.74448228487716 6.22259870956963 .285677
864659788 3.139615716514805 2.74447466020082 .068790519084416 .2856811166504935
 3.1361146037462 2.744245341125955 .191728306970035 .2857789183677745 3.13138766
1447765 2.743571466999 .36341945123055 .2860662627697435 3.125066678818185 2.741
88243128356 .615836586740741 .2867861208032775 3.116976761321875 2.7373735728794
25 1.051961561474854 .288705251824196 3.11482843263782 2.727026465490175 1.83782
4001763905 .293095305801631 3.120791930308055 2.721906264001515 2.28187632658109
5 .2952603491024755 3.125502159578335 2.71988577958781 2.512313034209735 .296113
3412168545 3.132615391070135 2.71814041195102 2.805743163152405 .296849564688489
 3.13655787563406 2.71764620680734 2.955493690090515 .2970579231022585 3.1411268
1475949 2.717427368461395 3.12446454221422 .297150171183533 3.14527640586212 2.7
17543194496795 3.277415856072035 .2971013475596925 3.149693864171675 2.718004693
65682 3.44365962138465 .2969067885654985 3.15246909495345 2.718489021410125 3.55
20218711247 .296702561942658 16 55 223 57 ?58 35 59 50 0 0 1 38 56 221 0 59 60 5
0 0 +48 61 62 63 63 64 16 59 220 0 ?65 55 66 56 0 0 1 31 60 23 0 66 67 56 0 +0 0
 0 0 0 -1 1 0 0 .1079166666666666 54 48 222 0 1 61 46 68 +0 0 .222406325119886 0
 0 -1 .513430755875251 .4625 -612323399573677e-31 -1 0 51 61 214 0 69 70 48 71 +
547519173118796e-32 .0894166666666667 .3292099127709655 0 0 -1 .0025 -6123233995
73677e-31 -1 0 40 22 62 0 1 22 .000843087478899439 .3841156796873125 ??.00099750
7338984909 .09170904078724 .0325073508283066 .001686918638754945 .09126174268304
68 .03348111009477015 .0023513443492049 .0902658896947707 .03568819609298875 .00
223091769105541 .0882883908778029 .0402410677463183 .001469809369809226 .0873943
757834303 .04237915128357265 .000891531922408558 .0870810359528481 .043140997485
8475 .000556621713720962 .0869794198043619 .04338949071932135 .00015137384545034
15 .0869212536830278 .0435320481111773 -.0001718406939420665 .0869225795038142 .
04352879612047185 -.000476389542076952 .0869624757604412 .0434309944031912 -.000
888681052692104 .0870799497418796 .04314365000122205 -.001444104055353654 .08737
59404534496 .0424237919676878 -.00217099393091215 .0881769951973077 .04050466094
676955 -.002411398626015905 .0900763307224169 .0361146069693345 -.00189414363379
4315 .0910482977201094 .0339495636684898 -.00147140629441859 .0914377959343646 .
0330965715541112 -.000823928296697284 .0917769933732693 .03236034808247665 -.000
462566583235385 .091873500433138 .0321519896687069 -428181847564275e-19 .0919162
999603828 .0320597415874324 .000338514944368337 .0918936421676435 .0321085652112
73 .000743735559320074 .0918034757117733 .0323031242054669 .000997507338984213 .
0917090407872396 .03250735082830745 41 1 63 H?.000997507338984213 .0917090407872
396 .03250735082830745 204 88 64 4 3.15246909495346 2.718489021410125 3.55202187
112489 .296702561942659 3.16007494971574 2.720796863054515 3.882242222425595 .29
57288026761955 3.167635854788575 2.72601894557451 4.36580253989106 .293521716677
9765 3.16685580583611 2.73675360248382 5.18062213450579 .288968845024647 3.15840
919129009 2.741777649173435 5.65469557579866 .286830761487393 3.15183025315145 2
.743565245486065 5.91854554034637 .286068915285118 3.147992030783725 2.744148019
331005 6.05865479306244 .285820422051644 3.14333415737633 2.74448228487716 6.222
59870956963 .285677864659788 3.139615716514805 2.74447466020082 .068790519084416
 .2856811166504935 3.1361146037462 2.744245341125955 .191728306970035 .285778918
3677745 3.131387661447765 2.743571466999 .36341945123055 .2860662627697435 3.125
066678818185 2.74188243128356 .615836586740741 .2867861208032775 3.1169767613218
75 2.737373572879425 1.051961561474854 .288705251824196 3.11482843263782 2.72702
6465490175 1.837824001763905 .293095305801631 3.120791930308055 2.72190626400151
5 2.281876326581095 .2952603491024755 3.125502159578335 2.71988577958781 2.51231
3034209735 .2961133412168545 3.132615391070135 2.71814041195102 2.80574316315240
5 .296849564688489 3.13655787563406 2.71764620680734 2.955493690090515 .29705792
31022585 3.14112681475949 2.717427368461395 3.12446454221422 .297150171183533 3.
14527640586212 2.717543194496795 3.277415856072035 .2971013475596925 3.149693864
171675 2.71800469365682 3.44365962138465 .2969067885654985 3.15246909495345 2.71
8489021410125 3.5520218711247 .296702561942658 14 69 213 72 ?73 44 74 4 61 -0 0
 73 44 20 54 70 157 0 75 76 61 0 +0 0 .222406325119886 0 0 -1 .513430755875251 .
4625 -1 0 0 141 71 56 71 71 61 14 75 96 77 ?78 73 32 4 70 -0 0 78 73 20 50 255 7
6 22 0 73 79 70 0 +0 0 0 0 0 -1 -1 0 0 14 73 17 80 ?75 69 81 4 76 +0 0 75 69 20
 50 79 11 0 78 82 76 0 +0 0 .1233333333333332 0 0 -1 -1 0 0 14 78 8 83 ?84 75 85
 4 79 -0 0 84 75 20 54 82 199 0 1 86 79 87 +0 0 .222406325119886 0 0 -1 .5134307
55875251 .4625 -1 0 0 51 86 200 0 84 88 82 89 +.0894166666666667 0 .329209912770
9655 0 0 -1 .0025 -1 0 0 141 87 90 87 87 82 38 90 203 0 91 92 67 0 +82 86 93 94
 94 95 16 91 167 0 ?96 97 98 90 0 0 1 31 92 204 0 98 99 90 0 +.0894166666666667
 0 0 0 0 -1 1 0 0 .0025 31 67 116 0 97 90 60 0 +0 0 .1233333333333332 0 0 -1 -1
 0 0 .0616666666666667 40 22 93 0 1 22 .000843087478899439 .3841156796873125 ??.
09170904078724 -.000997507338984903 .0325073508283066 .0912617426830468 -.001686
91863875494 .03348111009477015 .0902658896947707 -.002351344349204895 .035688196
09298875 .0882883908778029 -.0022309176910554 .0402410677463183 .087394375783430
3 -.00146980936980922 .04237915128357265 .0870810359528481 -.000891531922408553
 .0431409974858475 .0869794198043619 -.000556621713720956 .04338949071932135 .08
69212536830278 -.000151373845450336 .0435320481111773 .0869225795038142 .0001718
40693942072 .04352879612047185 .0869624757604412 .000476389542076957 .0434309944
031912 .0870799497418796 .000888681052692109 .04314365000122205 .087375940453449
6 .00144410405535366 .0424237919676878 .0881769951973077 .002170993930912155 .04
050466094676955 .0900763307224169 .00241139862601591 .0361146069693345 .09104829
77201094 .001894143633794325 .0339495636684898 .0914377959343646 .00147140629441
8594 .0330965715541112 .0917769933732693 .00082392829669729 .03236034808247665 .
091873500433138 .000462566583235391 .0321519896687069 .0919162999603828 42818184
75643315e-20 .0320597415874324 .0918936421676435 -.0003385149443683315 .03210856
5211273 .0918034757117733 -.000743735559320069 .0323031242054669 .09170904078723
96 -.000997507338984207 .03250735082830745 41 1 94 H?.0917090407872396 -.0009975
07338984207 .03250735082830745 204 88 95 4 3.15246909495346 2.718489021410125 3.
55202187112489 .296702561942659 3.16007494971574 2.720796863054515 3.88224222242
5595 .2957288026761955 3.167635854788575 2.72601894557451 4.36580253989106 .2935
217166779765 3.16685580583611 2.73675360248382 5.18062213450579 .288968845024647
 3.15840919129009 2.741777649173435 5.65469557579866 .286830761487393 3.15183025
315145 2.743565245486065 5.91854554034637 .286068915285118 3.147992030783725 2.7
44148019331005 6.05865479306244 .285820422051644 3.14333415737633 2.744482284877
16 6.22259870956963 .285677864659788 3.139615716514805 2.74447466020082 .0687905
19084416 .2856811166504935 3.1361146037462 2.744245341125955 .191728306970035 .2
857789183677745 3.131387661447765 2.743571466999 .36341945123055 .28606626276974
35 3.125066678818185 2.74188243128356 .615836586740741 .2867861208032775 3.11697
6761321875 2.737373572879425 1.051961561474854 .288705251824196 3.11482843263782
 2.727026465490175 1.837824001763905 .293095305801631 3.120791930308055 2.721906
264001515 2.281876326581095 .2952603491024755 3.125502159578335 2.71988577958781
 2.512313034209735 .2961133412168545 3.132615391070135 2.71814041195102 2.805743
163152405 .296849564688489 3.13655787563406 2.71764620680734 2.955493690090515 .
2970579231022585 3.14112681475949 2.717427368461395 3.12446454221422 .2971501711
83533 3.14527640586212 2.717543194496795 3.277415856072035 .2971013475596925 3.1
49693864171675 2.71800469365682 3.44365962138465 .2969067885654985 3.15246909495
345 2.718489021410125 3.5520218711247 .296702561942658 16 97 68 0 ?100 66 91 67
 0 0 1 17 100 0 101 100 100 0 102 97 0 0 +16 66 19 103 ?104 59 97 60 0 0 1 81 1
 103 21 24 66 0 0 0 105 106 17 104 0 107 104 104 0 108 66 0 0 +15 255 107 18 0 1
04 73 0 17 108 0 109 108 108 0 104 66 0 0 -15 109 137 0 108 75 101 15 101 101 0
 100 75 0 80 255 1 24 110 111 9000 0 0 0 0 3 6 0 0 0 FFFFTFTTFFFFFF1 81 1 105 17
2 24 98 0 0 103 57 112 82 255 1 106 17 16 98 169 105 ?113 91 114 92 0 0 1 81 1 5
7 225 24 55 0 0 105 25 115 82 1 112 17 81 1 25 240 24 31 0 0 57 21 116 82 1 115
 17 82 1 116 17 17 113 0 117 113 113 0 118 98 0 0 +16 114 291 0 ?119 98 120 121
 0 0 1 17 119 0 122 119 119 0 123 114 0 0 +16 120 288 26 ?124 114 0 99 0 0 1 31
 121 315 0 114 0 99 0 +0 0 .09 0 0 -1 1 0 0 .04625 31 99 314 0 120 121 92 0 +0 0
 .1233333333333332 0 0 -1 1 0 0 .04625 81 1 26 290 24 120 0 0 21 0 125 17 124 0
 85 124 124 0 126 120 0 0 +15 85 282 0 124 78 127 17 126 0 128 126 126 0 124 120
 0 0 -15 128 298 0 126 129 0 14 129 292 130 ?131 84 122 4 88 +0 0 131 84 20 81 2
 130 343 132 129 133 0 134 135 136 137 14 131 299 135 ?0 129 138 4 139 -0 0 0 12
9 20 14 84 180 134 ?129 78 140 4 86 -0 0 129 78 20 15 122 297 0 119 129 128 51 8
8 311 0 129 139 86 0 -0 0 .09 0 0 1 .04625 1 0 0 13 20 132 0 0 0 0 0 0 7 15 50 1
39 313 0 131 0 88 0 +0 0 .09 0 0 -1 -1 0 0 81 2 134 340 132 84 141 0 83 130 142
 143 15 140 185 0 144 84 117 17 144 0 140 144 144 0 96 91 0 0 -15 117 186 0 113
 84 0 17 96 0 145 96 96 0 144 91 0 0 +15 145 143 0 96 75 109 80 2 132 146 147 80
14 0 0 0 0 3 5 0 0 0 FFFFTFFFFFFFFF2 1 81 1 141 339 148 84 149 134 150 133 151 8
1 2 83 337 132 78 150 0 77 134 152 153 83 255 1 142 0 82 1 143 0 81 1 150 336 14
8 78 154 83 155 141 156 81 2 77 334 132 75 155 0 80 83 157 158 83 1 152 0 82 1 1
53 0 81 1 155 333 148 75 159 77 160 150 161 81 2 80 331 132 73 160 0 72 77 162 1
63 83 1 157 0 82 1 158 0 81 1 160 330 148 73 164 80 165 155 166 81 2 72 328 132
 69 165 0 167 80 168 169 83 1 162 0 82 1 163 0 81 1 165 327 148 69 170 72 171 16
0 172 81 2 167 325 132 44 171 0 43 72 173 174 83 1 168 0 82 1 169 0 14 44 228 16
7 ?69 15 175 4 46 -0 0 69 15 20 81 1 171 324 148 44 176 167 177 165 178 81 2 43
 322 132 15 177 0 0 167 179 180 83 1 173 0 82 1 174 0 81 1 177 321 148 15 181 43
 0 171 182 83 1 179 0 82 1 180 0 80 1 148 132 183 8015 0 0 0 0 3 5 0 0 0 FFFFTFF
FFFFFFF2 81 1 181 320 184 15 185 177 0 176 186 83 1 182 0 80 1 184 0 187 8001 0
 0 0 0 3 5 0 0 0 FFFFTFTFFFFFFF2 81 1 185 272 188 15 189 181 190 191 0 81 1 176
 323 184 44 191 171 181 170 192 83 3 186 .505882382392883 .529411792755127 .5490
19634723663 81 1 191 273 188 44 193 176 185 194 0 81 1 170 326 184 69 194 165 17
6 164 195 83 3 192 .505882382392883 .529411792755127 .549019634723663 81 1 194 2
74 188 69 196 170 191 197 0 81 1 164 329 184 73 197 160 170 159 198 83 3 195 .50
5882382392883 .529411792755127 .549019634723663 81 1 197 275 188 73 199 164 194
 200 0 81 1 159 332 184 75 200 155 164 154 201 83 3 198 .505882382392883 .529411
792755127 .549019634723663 81 1 200 276 188 75 202 159 197 203 0 81 1 154 335 18
4 78 203 150 159 149 204 83 3 201 .505882382392883 .529411792755127 .54901963472
3663 81 1 203 317 188 78 205 154 200 206 0 81 1 149 338 184 84 207 141 154 208 2
09 83 3 204 .505882382392883 .529411792755127 .549019634723663 91 255 207 0 10 8
4 190 149 0 0 81 1 208 341 184 129 206 133 149 210 211 83 3 209 .505882382392883
 .529411792755127 .549019634723663 81 1 206 318 188 129 212 208 203 213 0 81 1 1
33 342 148 129 208 130 141 214 215 81 1 210 344 184 131 213 214 208 0 216 83 3 2
11 .505882382392883 .529411792755127 .549019634723663 81 1 213 319 188 131 217 2
10 206 0 0 81 1 214 345 148 131 210 135 133 0 218 83 3 216 .505882382392883 .529
411792755127 .549019634723663 81 2 135 346 132 131 214 0 130 0 219 220 83 1 218
 0 83 1 219 0 82 1 220 0 80 1 188 24 221 9000 1 1 1 1 1 1 1 1 0 FFFFTFTTFFFFFF1
 81 1 217 300 222 131 223 213 212 0 224 80 1 222 225 226 9000 0 0 0 0 3 6 0 0 0
 FFFFTFFFFFFFFF1 81 3 223 302 227 131 0 217 228 0 229 230 0 81 1 212 293 222 129
 228 206 231 217 232 82 1 224 2817 81 3 228 296 227 129 0 212 233 223 234 235 0
 81 1 231 268 222 15 233 189 236 212 237 82 1 232 2817 81 3 233 266 227 15 0 231
 238 228 239 240 0 91 189 0 241 15 231 185 0 0 81 1 236 263 222 44 238 193 242 2
31 243 82 1 237 2548 81 3 238 261 227 44 0 236 244 233 245 246 0 91 193 0 247 44
 236 191 0 0 81 1 242 258 222 69 244 196 248 236 249 82 1 243 2548 81 3 244 256
 227 69 0 242 250 238 251 252 0 91 196 0 253 69 242 194 0 0 81 1 248 181 222 84
 250 190 202 242 254 82 1 249 2548 81 3 250 184 227 84 0 248 255 244 256 257 0 8
1 1 190 210 188 84 248 207 0 185 0 81 1 202 97 222 75 255 200 258 248 259 82 1 2
54 2524 81 3 255 100 227 75 0 202 205 250 260 261 0 81 1 258 58 222 78 0 205 199
 202 262 82 1 259 1376 81 3 205 59 227 78 258 203 263 255 264 265 0 81 1 199 37
 222 73 263 197 0 258 266 82 1 262 1145 81 3 263 35 227 73 0 199 0 205 267 268 0
 82 1 266 1145 80 3 227 269 270 9000 0 0 0 0 3 6 0 0 0 FFFFTFTTFFFFFF1 1 3 82 1
 267 0 82 1 268 1 79 255 27 270 MONIKER/MONIKER_DATA_ATTRIB82 1 264 0 82 1 265 0
 82 1 260 0 82 1 261 7 82 1 256 0 82 1 257 10 90 255 253 259 271 1 272 247 9 196
 81 2 271 260 273 253 0 0 0 274 275 0 81 2 272 46 276 1 0 253 0 0 277 278 90 247
 264 274 1 253 241 9 193 81 2 274 265 273 247 0 0 271 279 280 0 90 241 269 279 1
 247 281 9 189 81 2 279 270 273 241 0 0 274 282 283 0 81 5 281 277 284 1 241 10
 0 0 285 0 286 287 0 80 5 284 273 288 9000 0 0 0 0 3 6 0 0 0 TTTFFFFFFFFFFF1 1 2
 1 2 90 10 278 282 1 281 2 9 207 82 9 285 1 2547 61 1 1 1 4 4 1 83 2 286 1.57079
6326794895 0 82 4 287 1074791425 1074791172 1074793475 1074790668 81 2 282 279 2
73 10 0 0 279 0 289 0 80 2 273 290 291 9000 0 0 0 0 3 6 0 0 0 TTTTTTTTTFFFTT1 1
 82 3 289 2 2547 0 79 27 291 SolidEdge/PatternOccurrence79 21 288 SolidEdge/Patt
ernData82 3 283 2 2547 3 82 3 280 2 2547 2 80 2 276 9 292 9000 2 2 2 2 3 6 0 0 0
 FFTFFFFFFFFFFF2 3 83 2 277 1 105 84 255 20 278 SE 219.0.0.91 Type8679 22 292 MO
NIKER/BODY_ID_ATTRIB82 3 275 2 2547 1 82 1 251 0 82 1 252 11 82 1 245 0 82 1 246
 12 82 1 239 0 82 1 240 13 82 1 234 0 82 1 235 16 82 1 229 0 82 1 230 14 79 23 2
26 SolidEdge/MNKR_ATTR_CID79 17 221 SolidEdge/Display83 1 215 0 79 15 187 SDL/TY
SA_COLOUR79 21 183 SDL/TYSA_TRANSLUCENCY83 1 178 0 15 175 233 0 293 44 294 17 29
3 0 175 293 293 0 54 35 0 0 -15 294 234 0 34 44 0 17 34 0 294 34 34 0 295 31 0 0
 +17 295 0 296 295 295 0 34 31 0 0 -15 296 227 0 295 73 297 15 297 212 0 298 73
 299 17 298 0 297 298 298 0 58 55 0 0 -15 299 151 0 118 73 107 17 118 0 299 118
 118 0 113 98 0 0 -17 58 0 300 58 58 0 298 55 0 0 +15 300 219 0 58 69 0 17 54 0
 301 54 54 0 293 35 0 0 +15 301 226 0 54 75 302 15 302 211 0 65 75 145 17 65 0 3
02 65 65 0 303 59 0 0 +17 303 0 74 303 303 0 65 59 0 0 -15 74 218 0 303 69 300 8
3 1 172 0 83 1 166 0 83 1 161 0 83 1 156 0 83 1 151 0 79 21 147 SDL/TYSA_REFLECT
IVITY15 138 303 0 123 131 0 17 123 0 138 123 123 0 119 114 0 0 -83 1 136 0 82 1
 137 0 15 127 52 0 102 78 0 17 102 0 127 102 102 0 100 97 0 0 -82 1 125 17 79 27
 111 SolidEdge/MNKR_ATTR_TYPE_EX141 89 90 89 89 86 15 81 242 0 29 73 296 17 29 0
 81 29 29 0 22 8 0 0 -15 32 241 0 30 75 301 141 68 56 68 68 48 141 49 40 49 49 4
6 15 45 248 0 33 15 28 17 33 0 45 33 33 0 30 23 0 0 -15 28 249 0 22 15 0 82 1 27
 17 19 16 30 0 1 0 7 4 S0 141 18 19 18 18 5 74 4 CI16 index_map_offset0 0 1 dCCZ
20 14 11 0 0 26 223 217 272 213 282 281 2 210 214 135 0 0 0 0 0 0 0 0 0 80 3 9 3
04 305 9000 0 0 0 0 3 6 0 0 0 FFTFFFFFFFFFFF3 3 1 84 38 11 {1e428284-8c92-4afd-a
e1e-df6033561271}84 2 12 SE82 1 13 0 79 25 305 MONIKER/GUID_TABLE_ATTRIB1 0 
