**ABCDEFGHIJKLMNOPQRSTUVWXYZabcdefghijklmnopqrstuvwxyz**************************
**PARASOLID !"#$%&'()*+,-./:;<=>?@[\]^_`{|}~0123456789**************************
**PART1;
MC=RODRIGO;
MC_MODEL=unknown;
MC_ID=unknown;
OS=Windows NT;
OS_RELEASE=6.2;
FRU=Unigraphics Solutions;
APPL=SolidEdge;
SITE=Huntsville, AL;
USER=GoniR
FORMAT=text;
GUISE=transmit;
KEY=C:\Users\GoniR\OneDrive\Documentos\Facultad\R2\Protecto final R2\Piezas_xt\Brazo4;
FILE=C:\Users\GoniR\OneDrive\Documentos\Facultad\R2\Protecto final R2\Piezas_xt\Brazo4.x_t;
DATE=sáb., nov. 21 20;
**PART2;
SCH=SCH_3001256_30100;
USFLD_SIZE=0;
**PART3;
**END_OF_HEADER*****************************************************************
T51 : TRANSMIT FILE created by modeller version 300125623 SCH_3001256_30100_1300
6214 0 12 34 CCCCCCI4 mesh1006 0 I8 polyline1008 0 CCCCCCCDI5 owner1040 0 CCCCCC
I13 boundary_mesh1006 0 I17 boundary_polyline1008 0 CCCA16 index_map_offset0 0 1
 dA9 index_map82 0 A17 node_id_index_map82 0 A20 schema_embedding_map82 0 A5 chi
ld12 0 A14 lowest_node_id0 0 1 dA16 mesh_offset_data206 0 Z1 1815 2 3 0 0 0 0 0
 0 1e3 1e-8 0 0 0 1 0 1 1 4 5 6 7 0 0 8 9 10 0 0 0 0 0 0 0 81 255 3 2 1703 11 1
 12 0 12 0 13 14 15 70 11 CI9 list_type0 0 1 uI10 notransmit0 0 1 lCCCDCCDI12 fi
nger_index0 0 1 dI12 finger_block1012 0 CZ3 0 4 T1 0 0 9 20 1 16 16 13 255 4 3 0
 1 17 18 0 0 19 0 51 255 5 1050 0 20 21 0 0 +0 0 .5 0 0 -1 .019 -1 0 0 32 255 6
 225 0 9 22 0 0 +0 0 .472 0 -.707106781186548 -.707106781186548 0 .7071067811865
48 -.707106781186548 .0268700576850888 .019 29 255 7 1162 0 10 23 0 .01745709025
00961 .0075 .45 19 8 CCCCCCCA5 owner12 0 Z8 1 0 1 19 0 24 V0 16 255 9 1121 0 ?25
 0 26 6 0 0 1 18 255 10 1160 0 27 0 28 7 ?1 17 255 27 0 29 30 31 10 32 33 0 34 +
18 28 1273 0 30 10 35 23 ?1 17 30 0 29 36 27 28 37 38 0 39 -18 35 1269 0 36 28 4
0 41 ?1 29 23 1390 0 28 41 7 .0174570902500961 .0075 .4795 29 41 1391 0 35 42 23
 -.0174570902500961 .0075 .4795 29 42 1392 0 40 43 41 -.0174570902500961 -.0075
 .4795 18 40 1277 0 44 35 45 42 ?1 29 43 1393 0 45 46 42 .0174570902500961 -.007
5 .4795 18 45 1267 0 47 40 48 43 ?1 29 46 1394 0 48 49 43 -.0174570902500961 -.0
075 .45 18 48 1272 0 50 45 51 46 ?1 29 49 1395 0 51 52 46 .0174570902500961 -.00
75 .45 18 51 1268 0 53 48 54 49 ?1 29 52 1397 0 54 55 49 -.0174570902500961 .007
5 .45 18 54 1270 0 31 51 56 52 ?1 29 55 1617 0 56 57 52 .00953939201416946 -.010
2469507659596 .075 18 56 1494 0 58 54 59 55 ?1 29 57 1618 0 59 60 55 .0095393920
1416946 .0102469507659596 .075 18 59 1488 0 61 56 62 57 ?1 29 60 1619 0 62 63 57
 -.00953939201416946 .0102469507659596 .075 18 62 1486 0 64 59 65 60 ?1 29 63 16
20 0 65 66 60 -.00953939201416946 -.0102469507659596 .075 18 65 1489 0 67 62 68
 63 ?1 29 66 1621 0 68 69 63 -.00953939201416946 .01157583690279022 .075 18 68 1
496 0 70 65 71 66 ?1 29 69 1622 0 71 72 66 .00953939201416946 .01157583690279022
 .075 18 71 1495 0 73 68 74 69 ?1 29 72 1623 0 74 75 69 -.00953939201416946 -.01
157583690279022 .075 18 74 1487 0 76 71 77 72 ?1 29 75 1624 0 77 78 72 .00953939
201416946 -.01157583690279022 .075 18 77 1497 0 79 74 80 75 ?1 29 78 1625 0 80 8
1 75 .00630476010645925 -.0125 .476062019202318 18 80 1555 0 82 77 83 78 ?1 29 8
1 1626 0 83 84 78 .00630476010645925 -.0125 .467937980797682 18 83 1483 0 85 80
 86 81 ?1 29 84 1627 0 86 87 81 -.00630476010645925 -.0125 .467937980797682 18 8
6 1491 0 88 83 89 84 ?1 29 87 1628 0 89 90 84 -.00630476010645925 -.0125 .476062
019202318 18 89 1556 0 91 86 92 87 ?1 29 90 1629 0 92 93 87 .00630476010645927 .
0125 .467937980797682 18 92 1493 0 94 89 95 90 ?1 29 93 1630 0 95 96 90 -.006304
76010645927 .0125 .467937980797682 18 95 1485 0 97 92 98 93 ?1 29 96 1631 0 98 9
9 93 .00630476010645927 .0125 .476062019202318 18 98 1429 0 100 95 101 96 ?1 29
 99 1632 0 101 102 96 -.00630476010645927 .0125 .476062019202318 18 101 1430 0 1
03 98 104 99 ?1 29 102 1633 0 105 106 99 .00630476010645925 -.0125 .4845 18 105
 1554 0 107 108 109 102 ?1 29 106 1634 0 104 110 102 .00630476010645925 .0125 .4
45 18 104 1484 0 111 101 112 106 ?1 29 110 1635 0 113 114 106 -.0063047601064592
5 .0125 .445 18 113 1490 0 115 116 0 110 ?1 29 114 1636 0 109 117 110 -.00630476
010645925 -.0125 .445 18 109 1482 0 118 105 116 114 ?1 29 117 1637 0 108 119 114
 -.00630476010645925 -.0125 .4845 18 108 1553 0 120 121 105 117 ?1 29 119 1638 0
 116 122 117 .00630476010645925 -.0125 .445 18 116 1492 0 123 109 113 119 ?1 29
 122 1639 0 112 124 119 .00630476010645925 .0125 .4845 18 112 1431 0 125 104 121
 122 ?1 29 124 1640 0 121 0 122 -.00630476010645925 .0125 .4845 18 121 1428 0 12
6 112 108 124 ?1 17 126 0 127 128 103 121 129 130 0 131 -15 255 127 1435 0 126 1
32 0 17 128 0 127 100 126 112 131 133 0 134 -17 103 0 127 126 100 101 135 136 0
 137 +17 129 0 138 139 140 101 126 130 0 0 +16 130 1425 0 ?129 141 142 143 141 1
41 1 17 131 0 144 134 134 121 128 133 0 140 +15 144 1443 0 131 145 0 17 134 0 14
4 131 131 112 140 146 0 0 -16 133 1426 0 ?131 147 148 149 0 0 1 17 140 0 138 129
 125 121 134 146 0 0 +15 138 1439 0 139 150 0 17 125 0 138 140 139 112 100 142 0
 128 -16 146 1424 0 ?140 151 152 153 0 0 1 16 151 1468 154 ?155 156 146 157 156
 156 1 16 152 1549 0 ?158 146 159 160 159 159 1 32 153 1615 0 146 149 161 0 -0 0
 .472 0 .707106781186548 -.707106781186548 0 .707106781186548 .707106781186548 .
01979898987322335 .014 31 255 149 1616 0 133 0 153 0 -0 .0125 .472 0 1 0 0 0 1 .
014 30 255 161 1614 0 142 153 162 0 +.00630476010645925 .0125 .4845 0 0 -1 16 14
2 1422 0 ?100 130 163 161 163 163 1 31 162 1613 0 164 161 165 0 +0 0 .445 0 0 -1
 -1 0 0 .014 16 164 1454 166 ?167 168 169 162 0 0 1 30 165 1612 0 170 162 171 0
 +.00630476010645925 -.0125 .4845 0 0 -1 16 170 1474 0 ?123 163 172 165 172 172
 1 32 171 1611 0 173 165 174 0 +0 0 .472 0 -.707106781186548 -.707106781186548 0
 .707106781186548 -.707106781186548 .01979898987322335 .014 16 173 1548 0 ?175 1
76 177 171 0 0 1 30 174 1610 0 178 171 179 0 +-.00630476010645925 -.0125 .4845 0
 0 -1 16 178 1551 0 ?180 172 181 174 181 181 1 31 179 1609 0 182 174 143 0 +0 0
 .445 0 0 -1 -1 0 0 .014 16 182 1450 183 ?184 181 168 179 0 0 1 30 143 1608 0 14
1 179 157 0 +-.00630476010645925 .0125 .4845 0 0 -1 16 141 1472 0 ?115 185 130 1
43 130 130 1 31 157 1607 0 156 143 160 0 +0 0 .075 0 0 -1 -1 0 0 .014 16 156 147
0 186 ?187 188 151 157 151 151 1 38 12 CCCCCCCCCCCA17 intersection_data204 0 Z16
0 1606 0 159 157 189 0 +190 191 192 193 193 194 16 159 1473 0 ?195 152 196 160 1
52 152 1 38 189 1605 0 147 160 197 0 +191 190 198 199 199 200 51 190 1591 0 201
 0 191 202 +0 0 .5 0 0 -1 .014 -1 0 0 51 191 1590 0 203 190 204 205 +0 -.4942479
13500907 .472 0 1 0 .0075 0 0 1 40 255 21 192 0 1 21 .00052619603112696 .3971552
8562332 ??-.000411530174235137 -.01399395022556872 .464511298983422 .00187972178
946245 -.0138732348785069 .464739377024372 .00395533894453584 -.0134296423568849
4 .46562777167438 .00572780769705771 -.01277467099323996 .467158283467041 .00703
740357225935 -.01210268362641738 .469406748959096 .00749990802422974 -.011821648
7694439 .471962856654776 .00718256352697327 -.01201710369352754 .474158884244464
 .00628626489185675 -.0125093114802298 .476090583541429 .00467484598998448 -.013
19643190297764 .477864794537742 .002342888823735 -.01380256758576524 .4791246664
45499 -.000152999160884678 -.01399916394849236 .479498439254723 -.00237666451965
5815 -.0137967918648144 .479113470725392 -.0043492228648683 -.01330730102130806
 .478110176795454 -.00605476545545599 -.01262298757344776 .47642603832783 -.0072
1349712263063 -.0119985607162609 .474053158362572 -.00748580015272975 -.01183058
730889516 .471538701752235 -.00704349763633002 -.01209913802909172 .469423346929
249 -.00601356559614456 -.01264266699794258 .467518144489069 -.00423416142627654
 -.01334435749731818 .465809533376535 -.001808233669899185 -.0138827335562937 .4
64721243856603 -.000411530174235119 -.0139939502255687 .464511298983422 41 3 CI8
 term_use0 0 1 cCZ1 193 H?-.000411530174235119 -.0139939502255687 .4645112989834
22 204 2 17 INTERSECTION_DATA17 Intersection data7 uv_type0 0 1 u6 values0 1 1 f
T84 194 4 4.74178822768575 .03548870101657785 3.196490914904095 .480253963275338
 4.57771642135509 .03526062297562815 2.888262124719785 .4803746786224 4.42596447
336975 .0343722283256203 2.58608048199059 .480818271144022 4.29088953492791 .032
84171653295875 2.272555532467485 .481473242507667 4.185702452947615 .03059325104
090425 1.92385219958859 .48214522987449 4.14704333044933 .0280371433452241 1.575
74879306955 .482426264731463 4.17366601164164 .02584111575553635 1.2788139811361
2 .48223080980738 4.24672193538256 .02390941645857105 .993916769857442 .48173860
2020677 4.3719323256741 .02213520546225815 .672972050618037 .481051481597929 4.5
44248643748 .0208753335545011 .317702829022458 .480445345915142 4.72331770942447
 .0205015607452771 6.26278400387587 .480248749552415 4.88297688680066 .020886529
27460795 5.96073808889328 .480451121636093 5.02827500243075 .0218898232045458 5.
6645838092778 .480940612479599 5.15963408245901 .02357396167217035 5.34361929977
22 .481624925927459 5.25368806595068 .0259468416374279 4.98968342166031 .4822493
52784646 5.2765416885804 .02846129824776515 4.6508437009526 .482417326192012 5.2
3957911156107 .03057665307075155 4.361690621818165 .482148775471815 5.1563727521
2797 .0324818555109314 4.07190853604391 .481605246502964 5.01964058865409 .03419
046662346475 3.741486498741625 .480903556003589 4.84191036181044 .03527875614339
72 3.38508953785935 .480365179944613 4.74178822768575 .0354887010165778 3.196490
914904095 .480253963275338 14 255 203 1444 206 ?0 145 207 17 191 +208 209 0 145
 210 51 204 1589 0 211 191 212 213 +0 0 .08 0 0 -1 .015 -1 0 0 141 255 205 160 2
14 214 191 141 214 189 205 205 191 14 211 1522 215 ?201 216 217 218 204 -0 0 201
 216 219 51 212 1588 0 220 204 221 222 +0 -.0979795897113271 .072 0 1 0 .01 0 0
 1 141 213 223 224 224 204 38 223 1597 0 225 226 227 0 +204 212 228 229 229 230
 141 224 227 213 213 204 38 227 1596 0 188 223 231 0 +212 204 232 233 233 234 16
 188 1478 0 ?235 225 156 227 0 0 1 30 231 1595 0 176 227 236 0 --.00953939201416
946 -.0979795897113271 .075 0 1 0 40 22 232 0 1 22 .00078912197033737 .394988422
756584 ??.000813272388997679 .01497793670774764 .0819668745362473 -.002101062198
9509 .01485212232767222 .0817767856494934 -.00477128585200551 .0142209293408853
 .0807883349571152 -.00710985925512091 .01320794841647906 .0790320623839932 -.00
905065045672817 .01196184460315908 .0762527316292151 -.00987603533362331 .011289
99229800552 .0735696898066255 -.00991048040214179 .0112597681236678 .07066494262
34189 -.00927587700908928 .0117880492751027 .0682639451673926 -.0074987769064406
3 .01299108713339392 .0653842351230237 -.00481933482664579 .01420471794259496 .0
632379219457552 -.00201226125165402 .0148644140367218 .062204551840008 .00105702
1400589224 .01496271050841712 .0620560216332347 .00375668431184977 .014521960025
4615 .0627324586334292 .00619324703236478 .01366176017927794 .0641486503583075 .
00834530224835246 .01246418590938226 .0664903783810825 .00976956240169423 .01138
22515557952 .0698656030173835 .00999127574027096 .01118813697993876 .07241762313
37857 .00956299815999039 .01155634311501786 .0749238786212872 .00815620980562563
 .0125887347103121 .0777858656747816 .00591068660246469 .01378636224271814 .0800
662124871246 .002595264933991685 .01477378082693774 .0816573598836532 .000813272
388997676 .01497793670774762 .0819668745362473 41 1 233 H?.000813272388997676 .0
1497793670774762 .0819668745362473 204 88 234 4 .0814171581391905 .1129575264190
748 1.625041084624635 -.001966874536247275 6.07150170368201 .1128317120389994 1.
430263394119116 -.00177678564949338 5.7858008060351 .1122005190522124 1.24708667
2353668 -.000788334957115153 5.49228604652346 .1111875381278062 1.07697898509298
 .000967937616006831 5.15165266039039 .1099414343144862 .923067631842906 .003747
268370784945 4.87000981471272 .1092695820093326 .852102188697033 .00643031019337
451 4.57848343138997 .109239357834995 .849047163625001 .00933505737658107 4.3294
9604183061 .1097676389864298 .904101669117863 .01173605483260736 3.9894698375869
05 .110970676844721 1.04729170242389 .01461576487697626 3.64445267882153 .112184
307653922 1.243705997964894 .01676207805424485 3.344202143336095 .11284400374804
9 1.43623991048605 .01779544815999205 3.03569268326474 .1129423002197442 1.64132
2872059295 .0179439783667653 2.7564747239026 .1125015497367886 1.82393684447475
 .01726754136657085 2.47371034524221 .111641349890605 1.9964136796425 .015851349
6416925 2.154313064796695 .1104437756207094 2.160787253143105 .01350962161891752
 1.78589077218076 .1093618412671222 2.280098174486545 .0101343969826165 1.529021
864334255 .109167726691266 2.29974393354971 .00758237686621428 1.27407345824598
 .109535932826345 2.2620884697607 .00507612137871279 .953801656112881 .110568324
4216392 2.14569209877167 .00221413432521836 .632383058712116 .1117659519540452 1
.97582571774974 -662124871245867e-19 .2625318641152935 .112753370538265 1.744689
04596842 -.00165735988365316 .0814171581391904 .1129575264190748 1.6250410846246
35 -.00196687453624726 16 176 1463 0 ?76 237 173 231 237 237 1 30 236 1594 0 238
 231 239 0 -.00953939201416946 -.0979795897113271 .075 0 1 0 16 238 1481 0 ?79 2
40 237 236 240 240 1 38 239 1593 0 241 236 242 0 +212 190 243 244 245 246 16 241
 1477 0 ?247 248 240 239 0 0 1 38 242 1592 0 248 239 249 0 +212 190 250 251 252
 253 40 9 243 0 1 9 .00077401356505628 .382576298471474 ??.00953939201416946 .01
02469507659596 .075 .00795724084323774 .01151878110577284 .0780565929500594 .005
47782511657019 .01288384383607132 .080366207742596 .002722003198894725 .01373283
286817424 .0816224060704798 -.0004068593360094185 .01399408680410058 .0819917198
459876 -.003133195911106805 .0136448922085381 .0814964774196869 -.00556834249829
526 .0128449819704692 .080306236321083 -.0077893305077499 .01163298458010826 .07
82710709006546 -.00953939201416946 .0102469507659596 .075 41 1 244 L?.0095393920
1416946 .0102469507659596 .075 41 1 245 L?-.00953939201416946 .0102469507659596
 .075 204 36 246 4 1.2661036727795 .1082265404772866 2.320449765249585 .425 .920
202173114573 .1094983708171 2.175325000151585 .4219434070499405 .579711400962211
 .1108634335473984 1.97281103798899 .419633792257404 .27567895725759 .1117124225
795014 1.766471430753175 .41837759392952 6.24248814033149 .1119736765154276 1.54
1730853397125 .4180082801540125 5.96449867848376 .1116244819198652 1.34508499472
686 .418503522580313 5.69261569106451 .1108245716817962 1.16174538247019 .419693
763678917 5.39022267515577 .1096125742914354 .980772585271491 .4217289290993455
 5.01708163440009 .1082265404772866 .821142888340209 .425 16 248 1480 0 ?254 33
 241 242 0 0 1 30 249 1383 0 33 242 255 0 +-.0174570902500961 .0075 .45 1 0 0 40
 9 250 0 1 9 .00077401356505628 .382576298471474 ??-.00953939201416946 -.0102469
507659596 .075 -.00795724084323774 -.01151878110577284 .0780565929500594 -.00547
782511657019 -.01288384383607132 .080366207742596 -.002722003198894725 -.0137328
3286817424 .0816224060704798 .0004068593360094185 -.01399408680410058 .081991719
8459876 .003133195911106805 -.0136448922085381 .0814964774196869 .00556834249829
526 -.0128449819704692 .080306236321083 .0077893305077499 -.01163298458010826 .0
782710709006546 .00953939201416946 -.0102469507659596 .075 41 1 251 L?-.00953939
201416946 -.0102469507659596 .075 41 1 252 L?.00953939201416946 -.01024695076595
96 .075 204 36 253 4 5.01708163440009 .0877326389453675 5.46204241883938 .425 5.
36298313406501 .0864608086055543 5.31691765374138 .4219434070499405 5.7034739062
1738 .0850957458752558 5.11440369157878 .419633792257404 6.007506349922 .0842467
568431529 4.90806408434297 .41837759392952 .0406971668480957 .0839855029072266 4
.68332350698692 .4180082801540125 .31868662869583 .084334697502789 4.48667764831
665 .418503522580313 .590569616115073 .0851346077408579 4.303338036059985 .41969
3763678917 .89296263202382 .0863466051312189 4.122365238861285 .4217289290993455
 1.2661036727795 .0877326389453675 3.96273554193 .425 16 33 1255 256 ?27 257 248
 249 0 0 1 31 255 1382 0 257 249 258 0 +0 0 .45 0 0 -1 0 -1 0 .019 16 257 1258 2
59 ?260 261 33 255 0 0 1 30 258 1381 0 261 255 262 0 +-.0174570902500961 -.0075
 .45 -1 496853556670837e-31 0 16 261 1263 263 ?264 265 257 258 0 0 1 31 262 1380
 0 265 258 266 0 +0 0 .45 0 0 -1 0 -1 0 .019 16 265 1250 267 ?268 269 261 262 0
 0 1 30 266 1379 0 269 262 270 0 +-.0174570902500961 -.0075 .944247913500907 0 0
 -1 16 269 1228 0 ?271 272 265 266 0 0 1 30 270 1378 0 272 266 273 0 +.017457090
2500961 -.0075 .944247913500907 0 0 -1 16 272 1218 0 ?53 38 269 270 0 0 1 30 273
 1377 0 38 270 274 0 +.0174570902500961 .0075 .944247913500907 0 0 -1 16 38 1224
 0 ?37 275 272 273 0 0 1 30 274 1376 0 275 273 276 0 +-.0174570902500961 .0075 .
944247913500907 0 0 -1 16 275 1220 0 ?31 277 38 274 0 0 1 31 276 1375 0 278 274
 279 0 -0 -.0075 .472 -496853556670837e-31 -1 0 1 -496853556670837e-31 0 .019 16
 278 1241 0 ?47 280 277 276 0 0 1 31 279 1374 0 281 276 282 0 -0 .0075 .472 0 1
 0 0 0 1 .019 16 281 1231 0 ?36 283 280 279 0 0 1 31 282 1369 0 280 279 284 0 -0
 .0075 .472 0 1 0 0 0 1 .0025 16 280 1222 0 ?285 281 278 282 0 0 1 31 284 1368 0
 277 282 286 0 -0 -.0075 .472 -496853556670837e-31 -1 0 1 -496853556670837e-31 0
 .0025 16 277 1226 0 ?287 278 275 284 0 0 1 38 286 1096 0 283 284 288 0 +289 290
 291 292 292 293 16 283 1063 0 ?294 295 281 286 0 0 1 38 288 1040 0 295 286 296
 0 +297 298 299 300 300 301 51 289 1092 0 1 290 298 302 +0 0 .5 0 0 -1 .019 -1 0
 0 51 290 1093 0 1 303 289 304 -0 .494247913500907 .472 0 -1 0 .0025 0 0 -1 40 2
0 291 0 1 20 .0001425894777940474 .340020544253621 ??0 .019 .4695 .0008234831725
6058 .01898214622914145 .469639517959291 .001554070278230155 .01893633717407675
 .470041718720326 .00211386943057878 .0188820432165183 .470665250573904 .0024370
7757861309 .0188430531728757 .471442637572291 .00248436451981806 .01883687694212
26 .472279164705271 .00225512013745638 .0188656946112683 .473079089044351 .00177
494268659107 .01891691249806155 .473760561972586 .00109159397480517 .01896861678
12566 .474249093727298 .0002836507891979655 .0189978825722707 .474483856322292 -
.000550741748920391 .01899201631017615 .474438582277881 -.001320299155037654 .01
895407107038505 .474122924902395 -.0019461832459119 .01890006271876715 .47356919
4307067 -.00235654474429678 .01885329405881445 .47283468369346 -.002499990102003
035 .01883480951562525 .472007034904894 -.002363338328157395 .01885244365981935
 .471184750377699 -.001964815561782995 .01889813482352625 .470454199298688 -.001
343673098594354 .01895242840915415 .46989179161274 -.00056766391814993 .01899151
80455916 .4695653013172 1233232223572442e-32 .019 .4695 41 1 292 H?1233232223572
442e-32 .019 .4695 204 80 293 4 1.570796326794895 .0305 0 .475247913500907 1.614
15112702036 .03036048204070895 .3356609108277375 .475265767271766 1.652680976062
715 .029958281279674 .6708194885016 .47531157632683 1.68228342156219 .0293347494
260963 1.007590318321932 .475365870284389 1.69941791670452 .0285573624277087 1.3
45961887901702 .475404860328031 1.70192784261129 .02772083529472875 1.6826955861
3386 .475411036558785 1.689767316265985 .0269209109556488 2.017101545625535 .475
382218889639 1.664350774754095 .0262394380274137 2.35212699882016 .4753310010028
46 1.628280294427845 .02575090627270245 2.689734901641695 .47527929671965 1.5857
2587030469 .0255161436777085 3.027887483100705 .475250030928636 1.54180585830097
 .0255614177221188 3.36371128583778 .475255897190731 1.501250850839985 .02587707
509760545 3.69797736563345 .475293842430522 1.46818566067027 .0264308056929329 4
.033822486834205 .47534785078214 1.44644744327265 .02716531630654045 4.371979103
58356 .475394619442093 1.43883524465121 .0279929650951064 4.70957501471358 .4754
13103985282 1.446087095792498 .02881524962230115 5.04456392380527 .4753954698410
88 1.4671997769206 .0295458007013116 5.37899263379242 .475349778677381 1.5000176
0899939 .0301082083872601 5.71575215766606 .475295485091753 1.540914831786615 .0
304346986828005 6.05412182551632 .475256395455316 1.570796326794895 .0305 493292
889428976e-29 .475247913500907 50 255 303 1362 0 305 306 290 0 +-.01745709025009
61 .0075 .944247913500907 0 1 0 0 0 1 141 304 286 304 304 290 14 305 1296 307 ?3
08 309 310 4 303 -0 0 308 309 24 50 306 1364 0 308 311 303 0 +-.0174570902500961
 -.0075 .944247913500907 -496853556670837e-31 -1 0 1 -496853556670837e-31 0 14 3
08 1309 312 ?313 305 314 4 306 -0 0 313 305 24 50 311 1366 0 313 315 306 0 +0 0
 .45 0 0 -1 -1 0 0 14 313 1355 316 ?0 308 317 4 311 -0 0 0 308 24 50 315 1582 0
 318 319 311 0 +0 0 .445 0 0 -1 -1 0 0 14 318 1498 320 ?321 0 322 218 315 +0 0 3
21 0 219 50 319 1583 0 321 323 315 0 +-.0174570902500961 -.0125 .944247913500907
 -496853556670837e-31 -1 0 1 -496853556670837e-31 0 14 321 1502 324 ?325 318 326
 218 319 +327 327 325 318 219 50 323 1584 0 325 328 319 0 +-.0174570902500961 .0
125 .944247913500907 0 1 0 0 0 1 14 325 1506 329 ?209 321 330 218 323 +132 132 2
09 321 219 50 328 1585 0 331 332 323 0 +0 0 .005 0 0 -1 -1 0 0 14 331 1514 333 ?
216 209 334 218 328 -0 0 216 209 219 50 332 1586 0 216 221 328 0 +0 0 .075 0 0 -
1 -1 0 0 14 216 1518 335 ?211 331 336 218 332 +337 337 211 331 219 51 221 1587 0
 145 212 332 0 +0 -.503189825016365 .472 0 1 0 .014 0 0 1 14 145 1440 338 ?203 1
50 144 17 221 -339 339 203 150 210 81 2 338 1767 340 145 341 0 342 206 343 344 1
4 150 1436 342 ?145 132 138 17 190 -345 201 145 132 210 13 17 1420 0 1 218 132 0
 0 19 0 14 339 1557 346 ?345 0 347 348 221 -145 145 345 0 349 13 210 1574 0 0 0
 0 0 0 350 132 19 350 1573 0 1 351 19 210 V0 14 132 1432 352 ?150 0 127 17 323 +
325 325 150 0 210 81 2 352 1761 340 132 353 0 316 342 354 355 80 255 2 340 356 3
57 8014 0 0 0 0 3 5 0 0 0 FFFFTFFFFFFFFF2 1 81 1 353 1760 358 132 359 352 360 36
1 362 81 2 316 1758 340 313 360 0 312 352 363 364 81 2 342 1764 340 150 361 0 35
2 338 365 366 83 255 1 354 0 82 255 1 355 0 81 1 361 1763 358 150 367 342 353 34
1 368 83 1 365 0 82 1 366 0 80 1 358 340 369 8015 0 0 0 0 3 5 0 0 0 FFFFTFFFFFFF
FF2 81 1 367 1762 370 150 371 361 359 372 373 81 1 341 1766 358 145 372 338 361
 374 375 83 1 368 0 81 1 372 1765 370 145 376 341 367 377 378 81 1 374 1769 358
 203 377 206 341 379 380 83 1 375 0 81 1 377 1768 370 203 381 374 372 382 383 81
 2 206 1770 340 203 374 0 338 320 384 385 81 1 379 1772 358 318 382 320 374 386
 387 83 1 380 0 81 1 382 1771 370 318 388 379 377 389 390 81 2 320 1773 340 318
 379 0 206 324 391 392 81 1 386 1775 358 321 389 324 379 393 394 83 1 387 0 81 1
 389 1774 370 321 395 386 382 396 397 81 2 324 1776 340 321 386 0 320 329 398 39
9 81 1 393 1778 358 325 396 329 386 400 401 83 1 394 0 81 1 396 1777 370 325 402
 393 389 403 404 81 2 329 1779 340 325 393 0 324 405 406 407 81 1 400 1781 358 2
09 403 405 393 408 409 83 1 401 0 14 209 1510 405 ?331 325 410 218 191 +203 411
 331 325 219 81 1 403 1780 370 209 412 400 396 413 414 81 2 405 1782 340 209 400
 0 329 333 415 416 81 1 408 1784 358 331 413 333 400 417 418 83 1 409 0 81 1 413
 1783 370 331 419 408 403 420 421 81 2 333 1785 340 331 408 0 405 335 422 423 81
 1 417 1787 358 216 420 335 408 424 425 83 1 418 0 81 1 420 1786 370 216 426 417
 413 427 428 81 2 335 1788 340 216 417 0 333 215 429 430 81 1 424 1790 358 211 4
27 215 417 431 432 83 1 425 0 81 1 427 1789 370 211 433 424 420 434 435 81 2 215
 1791 340 211 424 0 335 436 437 438 81 1 431 1793 358 201 434 436 424 439 440 83
 1 432 0 14 201 1527 436 ?411 211 441 218 190 -150 345 411 211 219 81 1 434 1792
 370 201 442 431 427 443 444 81 2 436 1794 340 201 431 0 215 445 446 447 81 1 43
9 1796 358 411 443 445 431 448 449 83 1 440 0 14 411 1532 445 ?337 201 450 218 1
91 +209 208 337 201 219 81 1 443 1795 370 411 451 439 434 452 453 81 2 445 1797
 340 411 439 0 436 454 455 456 81 1 448 1799 358 337 452 454 439 457 458 83 1 44
9 0 14 337 1536 454 ?220 411 459 218 332 +216 216 220 411 219 81 1 452 1798 370
 337 460 448 443 461 462 81 2 454 1800 340 337 448 0 445 463 464 465 81 1 457 18
02 358 220 461 463 448 466 467 83 1 458 0 14 220 1540 463 ?0 337 468 218 212 +0
 0 0 337 219 81 1 461 1801 370 220 469 457 452 470 471 81 2 463 1803 340 220 457
 0 454 346 472 473 81 1 466 1805 358 339 470 346 457 474 475 83 1 467 0 81 1 470
 1804 370 339 476 466 461 477 478 81 2 346 1806 340 339 466 0 463 479 480 481 81
 1 474 1808 358 345 477 479 466 482 483 83 1 475 0 14 345 1561 479 ?327 339 484
 348 190 -201 150 327 339 349 81 1 477 1807 370 345 485 474 470 486 487 81 2 479
 1809 340 345 474 0 346 488 489 490 81 1 482 1811 358 327 486 488 474 491 492 83
 1 483 0 14 327 1565 488 ?208 345 493 348 319 +321 321 208 345 349 81 1 486 1810
 370 327 494 482 477 495 496 81 2 488 1812 340 327 482 0 479 497 498 499 81 1 49
1 1814 358 208 495 497 482 0 500 83 1 492 0 14 208 1569 497 ?0 327 501 348 191 +
411 203 0 327 349 81 1 495 1813 370 208 502 491 486 0 503 81 2 497 1815 340 208
 491 0 488 0 504 505 83 1 500 0 83 1 504 0 82 1 505 0 80 1 370 0 506 8001 0 0 0
 0 3 5 0 0 0 FFFFTFTFFFFFFF2 81 1 502 1722 507 208 508 495 494 0 0 83 3 503 .800
000011920929 0 0 80 1 507 509 510 9000 1 1 1 1 1 1 1 1 0 FFFFTFTTFFFFFF1 81 1 50
8 1683 511 208 512 502 513 514 515 81 1 494 1721 507 327 516 486 485 502 0 81 1
 516 1695 511 327 517 494 518 519 520 81 1 485 1720 507 345 521 477 476 494 0 81
 1 521 1659 511 345 522 485 523 524 525 81 1 476 1719 507 339 526 470 469 485 0
 81 1 526 1677 511 339 527 476 528 513 529 81 1 469 1718 507 220 528 461 460 476
 0 81 1 528 1674 511 220 530 469 531 526 532 81 1 460 1717 507 337 533 452 451 4
69 0 81 1 533 1668 511 337 534 460 535 531 536 81 1 451 1716 507 411 537 443 442
 460 0 81 1 537 1650 511 411 538 451 539 540 541 81 1 442 1715 507 201 540 434 4
33 451 0 81 1 540 1653 511 201 542 442 537 523 543 81 1 433 1714 507 211 524 427
 426 442 0 81 1 524 1662 511 211 544 433 521 535 545 81 1 426 1713 507 216 535 4
20 419 433 0 81 1 535 1665 511 216 546 426 524 533 547 81 1 419 1712 507 331 531
 413 412 426 0 81 1 531 1671 511 331 548 419 533 528 549 81 1 412 1711 507 209 5
13 403 402 419 0 81 1 513 1680 511 209 550 412 526 508 551 81 1 402 1710 507 325
 514 396 395 412 0 81 1 514 1686 511 325 552 402 508 553 554 81 1 395 1709 507 3
21 518 389 388 402 0 81 1 518 1692 511 321 555 395 553 516 556 81 1 388 1708 507
 318 519 382 381 395 0 81 1 519 1698 511 318 557 388 516 0 558 81 1 381 1707 507
 203 539 377 376 388 0 81 1 539 1647 511 203 559 381 560 537 561 81 1 376 1706 5
07 145 560 372 371 381 0 81 1 560 1644 511 145 562 376 563 539 564 81 1 371 1705
 507 150 523 367 565 376 0 81 1 523 1656 511 150 566 371 540 521 567 81 1 565 17
04 507 132 553 359 568 371 0 81 1 553 1689 511 132 569 565 514 518 570 81 1 359
 1759 370 132 565 353 571 367 572 81 1 568 1419 507 313 563 571 573 565 0 81 1 5
63 1356 511 313 574 568 575 560 576 81 1 571 1756 370 313 568 360 577 359 578 81
 1 573 1418 507 308 579 577 580 568 0 81 3 579 1310 581 308 575 573 582 574 583
 584 0 81 1 577 1753 370 308 573 585 586 571 587 81 1 580 1417 507 305 582 586 5
88 573 0 81 3 582 1297 581 305 589 580 590 579 591 592 0 81 1 586 1750 370 305 5
80 593 594 577 595 81 1 588 1416 507 309 596 594 597 580 0 14 309 1010 598 ?305
 599 600 4 298 -601 601 305 599 24 81 3 596 1011 581 309 602 588 603 604 605 606
 0 81 1 594 1747 370 309 588 607 608 586 609 81 1 597 1415 507 599 603 608 610 5
88 0 14 599 445 611 ?309 612 613 4 614 +18 18 309 612 24 81 3 603 446 581 599 61
5 597 616 596 617 618 0 81 1 608 1744 370 599 597 619 620 594 621 81 1 610 1414
 507 20 604 622 623 597 0 14 20 1046 624 ?625 601 626 4 5 +0 0 625 601 24 81 3 6
04 1048 581 20 627 610 596 628 629 630 0 81 1 622 1729 370 20 610 631 632 633 63
4 81 1 623 1413 507 601 635 632 636 610 0 14 601 1110 637 ?20 18 638 4 298 -309
 309 20 18 24 81 1 635 1112 511 601 628 623 627 639 640 81 1 632 1726 370 601 62
3 641 642 622 643 81 1 636 1412 507 18 639 642 644 623 0 14 18 1134 645 ?601 0 6
46 4 614 +599 599 601 0 24 81 1 639 1136 511 18 590 636 635 589 647 81 1 642 172
3 370 18 636 648 0 632 649 81 1 644 987 507 650 651 652 653 636 0 14 650 17 654
 ?612 655 656 4 657 +0 0 612 655 24 81 1 651 37 511 650 658 644 659 660 661 81 1
 652 1738 370 650 644 662 663 620 664 81 1 653 986 507 655 659 663 665 644 0 14
 655 8 666 ?650 625 667 4 668 -0 0 650 625 24 81 1 659 34 511 655 669 653 0 651
 670 81 1 663 1735 370 655 653 671 633 652 672 81 1 665 985 507 625 616 633 673
 653 0 14 625 103 674 ?655 20 675 4 21 +0 0 655 20 24 81 3 616 105 581 625 676 6
65 677 603 678 679 0 81 1 633 1732 370 625 665 680 622 663 681 81 1 673 160 507
 612 677 620 0 665 0 14 612 67 682 ?599 650 683 4 684 -0 0 599 650 24 81 3 677 6
8 581 612 660 673 658 616 685 686 0 81 1 620 1741 370 612 673 687 652 608 688 81
 1 687 1742 358 612 620 682 662 619 689 83 3 688 .800000011920929 0 0 81 2 682 1
743 340 612 687 0 654 611 690 691 81 1 662 1739 358 650 652 654 671 687 692 81 1
 619 1745 358 599 608 611 687 607 693 83 1 689 0 81 2 611 1746 340 599 619 0 682
 598 694 695 81 1 607 1748 358 309 594 598 619 593 696 83 1 693 0 81 2 598 1749
 340 309 607 0 611 307 697 698 81 1 593 1751 358 305 586 307 607 585 699 83 1 69
6 0 81 2 307 1752 340 305 593 0 598 312 700 701 81 1 585 1754 358 308 577 312 59
3 360 702 83 1 699 0 81 2 312 1755 340 308 585 0 307 316 703 704 81 1 360 1757 3
58 313 571 316 585 353 705 83 1 702 0 83 1 705 0 83 1 703 0 82 1 704 0 83 1 700
 0 82 1 701 0 83 1 697 0 82 1 698 0 83 1 694 0 82 1 695 0 81 2 654 1740 340 650
 662 0 666 682 706 707 81 1 671 1736 358 655 663 666 680 662 708 83 1 692 0 81 2
 666 1737 340 655 671 0 674 654 709 710 81 1 680 1733 358 625 633 674 631 671 71
1 83 1 708 0 81 2 674 1734 340 625 680 0 624 666 712 713 81 1 631 1730 358 20 62
2 624 641 680 714 83 1 711 0 81 2 624 1731 340 20 631 0 637 674 715 716 81 1 641
 1727 358 601 632 637 648 631 717 83 1 714 0 81 2 637 1728 340 601 641 0 645 624
 718 719 81 1 648 1724 358 18 642 645 0 641 720 83 1 717 0 81 2 645 1725 340 18
 648 0 0 637 721 722 83 1 720 0 83 1 721 0 82 1 722 0 83 1 718 0 82 1 719 0 83 1
 715 0 82 1 716 0 83 1 712 0 82 1 713 0 83 1 709 0 82 1 710 0 83 1 706 0 82 1 70
7 0 83 1 690 0 82 1 691 0 80 3 581 723 724 9000 0 0 0 0 3 6 0 0 0 FFFFTFTTFFFFFF
1 1 3 81 1 660 71 511 612 0 677 651 676 725 81 3 658 35 581 650 0 651 669 677 72
6 727 0 82 1 685 1 82 1 686 2 81 3 669 31 581 655 0 659 0 658 728 729 0 82 1 726
 0 82 1 727 1 82 1 728 0 82 1 729 0 80 1 511 730 731 9000 0 0 0 0 3 6 0 0 0 FFFF
TFFFFFFFFF1 81 1 676 104 511 625 0 616 660 615 732 82 1 725 2269 81 1 615 449 51
1 599 0 603 676 602 733 82 1 732 1899 81 1 602 1014 511 309 0 596 615 627 734 82
 1 733 4585 81 1 627 1047 511 20 0 604 602 635 735 82 1 734 4645 82 1 735 2389 7
9 255 23 731 SolidEdge/MNKR_ATTR_CID79 27 724 MONIKER/MONIKER_DATA_ATTRIB15 683
 73 0 736 612 737 51 684 94 0 612 738 739 740 +0 -.0979795897113271 .072 0 1 0 .
005 0 0 1 13 24 29 0 0 0 0 0 0 8 18 51 738 149 0 1 741 684 742 +0 0 .08 0 0 -1 .
02 -1 0 0 51 739 93 0 1 684 668 743 +0 0 .08 0 0 -1 .02 -1 0 0 141 740 744 740 7
40 684 38 744 97 0 745 746 747 0 +739 684 748 749 749 750 16 745 61 0 ?736 751 7
52 744 0 0 1 38 746 153 0 752 753 744 0 +738 741 754 755 755 756 31 747 6 0 26 7
44 22 0 +0 0 .08 0 0 -1 1 0 0 .02 40 20 748 0 1 20 .000294184589394217 .34754490
9381219 ??0 -.02 .077 -.00162640939493463 -.0199337601189557 .0767280854983882 -
.00306897267512256 -.01976313251282175 .0759473290614479 -.0041958943777472 -.01
95549091118008 .0747192775457444 -.004863783161705 -.01939957765921505 .07315914
3371596 -.0049742611641345 -.0193715442304165 .0714933187678794 -.00454854717611
537 -.0194759009698307 .0699237729925047 -.00363532724332211 -.0196668349216126
 .0685671592180877 -.00229194782641626 -.01986824036398255 .0675562431253515 -.0
00676305323631037 -.01998856200703865 .0670459500295992 .000977900888744501 -.01
99760784402693 .0670965614257143 .002499116023819745 -.0198432461835126 .0676693
627374846 .0037711017257334 -.01964125229648485 .0687168929694312 .0046494416279
5361 -.0194520613958586 .0701607902381044 .00499647858863292 -.01936582561403805
 .0718123788036155 .00478824658392136 -.01941835973123285 .0734396856085845 .004
07425861254281 -.0195806132886108 .0748983472459526 .002899230289003125 -.019788
74588576365 .0760736302889839 .001370241292116356 -.0199530057585663 .0768085797
072919 -2880407736187405e-33 -.02 .077 41 1 749 H?-2880407736187405e-33 -.02 .07
7 204 80 750 4 4.71238898038469 .003 0 .0779795897113271 4.79379934687507 .00327
1914501611835 5.95187550438248 .0780458295923714 4.866446281796 .004052670938552
105 5.622327186241 .0782164571985054 4.923753981879 .00528072245425564 5.2874136
6916093 .0784246805995263 4.95804134674465 .006840856628404 4.94634613225194 .07
85800120521121 4.96374031536015 .00850668123212062 4.6108784899865 .078608045480
9106 4.94182397334271 .0100762270074953 4.28417643590273 .0785036887414964 4.895
17141962049 .01143284078191226 3.955630642071965 .0783127547897146 4.82723869191
942 .0124437568746485 3.61777498420115 .0781113493473446 4.7462106943542 .012954
0499704008 3.2772695974864 .0779910277042885 4.66347443252066 .01290343857428566
 2.944743635333635 .0780035112710578 4.58710569730378 .01233063726251544 2.61819
8011517925 .0781363435278145 4.52269834733665 .01128310703056884 2.2871267186731
9 .0783383374148423 4.47777034976437 .00983920976189559 1.947483519161535 .07852
75283154685 4.459890565875875 .00818762119638447 1.60832937777306 .0786137640972
891 4.470628447930365 .00656031439141547 1.27872429489886 .0785612299800943 4.50
724008978279 .00510165275404743 .952473352301245 .0783989764227164 4.56691490439
22 .00392636971101612 .618539728319773 .0781908438255635 4.64382320408425 .00319
142029270811 .2775999340769145 .0780265839527608 4.71238898038469 .003 6.2831853
0717959 .0779795897113271 16 26 5 0 ?757 9 751 747 0 0 1 31 22 23 0 751 747 6 0
 +0 0 0 0 0 -1 1 0 0 .02 16 751 19 758 ?759 26 745 22 0 0 1 81 1 758 21 509 751
 0 0 0 760 761 17 759 0 656 759 759 0 762 751 0 0 +15 656 623 0 759 650 0 17 762
 0 675 762 762 0 759 751 0 0 -15 675 979 0 762 625 763 15 763 661 0 757 625 764
 17 757 0 763 757 757 0 765 26 0 0 +15 764 49 0 766 625 767 17 766 0 764 766 766
 0 736 745 0 0 -15 767 101 0 768 625 0 17 768 0 767 768 768 0 769 752 0 0 +17 76
9 0 737 769 769 0 768 752 0 0 -16 752 120 0 ?768 745 770 746 0 0 1 16 770 169 76
0 ?771 752 772 753 0 0 1 81 1 760 171 509 770 0 0 758 267 773 17 771 0 774 771 7
71 0 775 770 0 0 +16 772 1127 0 ?776 770 295 296 0 0 1 31 753 194 0 770 296 746
 0 +0 0 .08 0 0 -1 1 0 0 .019 32 296 920 0 772 288 753 0 -0 0 .472 0 .7071067811
86548 -.707106781186548 0 -.707106781186548 -.707106781186548 .0268700576850888
 .019 17 776 0 646 39 39 35 777 772 0 0 +16 295 1004 0 ?778 772 283 288 0 0 1 17
 778 0 779 778 778 0 780 295 0 0 +15 779 1016 0 778 309 0 17 780 0 781 780 780 0
 778 295 0 0 -15 781 992 0 780 20 782 15 782 1044 0 294 20 0 17 294 0 782 294 29
4 0 783 283 0 0 +17 783 0 784 783 783 0 294 283 0 0 -15 784 1072 0 783 601 0 15
 646 1138 0 39 18 0 17 39 0 646 776 776 28 36 281 0 777 -17 777 0 626 37 785 28
 776 772 0 0 -15 626 1166 0 37 20 786 17 37 0 626 260 777 10 30 38 0 0 +17 785 0
 626 777 268 35 31 275 0 776 -17 268 0 626 785 271 54 50 265 0 0 +17 31 0 29 27
 36 54 785 275 0 32 +15 29 1302 0 36 305 0 17 36 0 29 31 30 35 39 281 0 785 +17
 32 0 317 50 34 54 27 33 0 268 -15 317 1359 0 50 313 0 17 50 0 317 787 32 48 268
 265 0 264 -17 34 0 317 32 787 10 260 257 0 37 -17 787 0 317 34 50 51 264 261 0
 260 -17 260 0 626 788 37 51 34 257 0 0 +17 788 0 626 25 260 45 53 272 0 789 -17
 25 0 626 271 788 40 789 9 0 0 +17 53 0 790 264 47 51 788 272 0 787 +17 789 0 61
3 791 791 45 25 9 0 0 -15 613 1133 0 791 599 0 17 791 0 613 789 789 40 47 278 0
 25 -17 47 0 790 53 44 45 791 278 0 788 +15 790 1315 0 47 308 0 17 44 0 790 47 2
64 40 271 269 0 791 -17 264 0 790 44 53 48 787 261 0 271 +17 271 0 626 268 25 48
 44 269 0 0 +15 786 981 0 775 20 781 17 775 0 786 775 775 0 771 770 0 0 -15 774
 162 0 771 655 0 80 1 509 792 793 9000 0 0 0 0 3 6 0 0 0 FFFFTFTTFFFFFF1 81 1 26
7 1254 509 265 0 0 760 256 794 82 1 773 17 81 1 256 1257 509 33 0 0 267 259 795
 82 1 794 17 81 1 259 1262 509 257 0 0 256 263 796 82 1 795 17 81 1 263 1265 509
 261 0 0 259 183 797 82 1 796 17 81 1 183 1451 509 182 0 0 263 798 799 82 1 797
 17 81 1 798 1453 509 169 0 0 183 166 800 82 1 799 17 16 169 1452 798 ?801 164 0
 802 0 0 1 81 1 166 1455 509 164 0 0 798 803 804 82 1 800 17 81 1 803 1457 509 1
68 0 0 166 805 806 82 1 804 17 16 168 1456 803 ?807 182 164 808 0 0 1 81 1 805 1
466 509 809 0 0 803 154 810 82 1 806 17 16 809 1465 805 ?811 812 225 226 0 0 1 8
1 1 154 1469 509 151 0 0 805 186 813 82 1 810 17 81 1 186 1471 509 156 0 0 154 0
 814 82 1 813 17 82 1 814 17 17 811 0 217 811 811 0 815 809 0 0 +16 812 1476 0 ?
816 177 809 817 177 177 1 16 225 1467 0 ?818 809 188 223 0 0 1 31 226 1598 0 809
 817 223 0 +0 0 .005 0 0 -1 -1 0 0 .015 31 817 1599 0 812 819 226 0 +0 0 .075 0
 0 -1 -1 0 0 .015 31 819 1600 0 820 821 817 0 -0 -.0125 .472 -496853556670837e-3
1 -1 0 1 -496853556670837e-31 0 .014 16 820 1547 0 ?822 136 823 819 0 0 1 31 821
 1601 0 185 808 819 0 -0 -.0125 .472 -496853556670837e-31 -1 0 1 -49685355667083
7e-31 0 .0075 16 185 1552 0 ?824 823 141 821 823 823 1 30 808 1602 0 168 802 821
 0 +-621066945838546e-33 -.0125 .445 -1 496853556670837e-31 0 30 802 1603 0 169
 197 808 0 +0 .0125 .445 1 0 0 31 197 1604 0 148 189 802 0 -0 .0125 .472 0 1 0 0
 0 1 .0075 16 148 1460 0 ?825 133 136 197 136 136 1 17 825 0 330 111 97 92 826 1
48 0 0 +16 136 1423 0 ?103 148 820 197 148 148 1 15 330 1509 0 825 325 0 17 111
 0 330 827 825 104 94 163 0 801 +17 97 0 330 825 827 95 115 141 0 828 -17 826 0
 450 829 829 95 825 148 0 0 -15 450 1535 0 829 411 0 17 829 0 450 826 826 92 828
 147 0 825 +17 828 0 830 115 94 95 829 147 0 826 -16 147 1475 0 ?829 196 133 189
 196 196 1 16 196 1427 0 ?137 159 147 189 147 147 1 17 137 0 207 135 135 101 139
 196 0 129 +15 207 1447 0 137 203 0 17 135 0 207 137 137 98 103 136 0 0 -17 139
 0 138 125 129 98 137 196 0 135 -15 830 1531 0 115 201 0 17 115 0 830 831 828 11
3 97 141 0 827 +17 94 0 830 828 832 92 111 163 0 829 -17 832 0 830 94 123 104 16
7 164 0 0 -16 163 1461 0 ?111 142 170 161 142 142 1 17 123 0 830 832 195 116 85
 170 0 833 +17 167 0 322 807 801 116 832 164 0 0 +15 322 1501 0 184 318 0 17 807
 0 322 184 167 109 833 168 0 0 +17 801 0 322 167 184 104 827 169 0 832 +17 184 0
 322 801 807 113 831 182 0 0 +17 827 0 330 97 111 113 801 169 0 184 -17 831 0 83
0 88 115 109 184 182 0 807 -17 88 0 830 195 831 86 118 181 0 834 -17 195 0 830 1
23 88 83 834 159 0 835 +17 118 0 326 833 836 109 88 181 0 831 +16 181 1458 0 ?11
8 178 182 174 178 178 1 17 834 0 410 835 835 86 195 159 0 836 -15 410 1513 0 835
 209 0 17 835 0 410 834 834 83 836 823 0 0 -17 836 0 326 118 85 86 835 823 0 0 +
15 326 1505 0 118 321 0 17 85 0 326 836 833 83 123 170 0 195 -16 823 1459 0 ?836
 820 185 821 185 185 1 17 833 0 326 85 118 116 807 168 0 167 -17 824 0 493 107 1
80 80 91 185 0 0 +15 493 1568 0 107 327 0 17 107 0 493 837 824 105 838 172 0 822
 -17 180 0 493 824 837 89 120 178 0 158 +17 91 0 501 82 82 89 824 185 0 180 -15
 501 1572 0 82 208 0 17 82 0 501 91 91 80 158 152 0 838 -17 158 0 484 120 838 89
 82 152 0 0 +17 838 0 484 158 839 80 107 172 0 824 +15 484 1564 0 158 345 0 17 8
39 0 484 838 120 105 175 173 0 0 -16 172 1550 0 ?838 170 178 165 170 170 1 17 12
0 0 484 839 158 108 180 178 0 837 -17 175 0 347 822 822 108 839 173 0 0 +15 347
 1560 0 822 339 0 17 822 0 347 175 175 105 837 820 0 839 +17 837 0 493 180 107 1
08 822 820 0 175 -17 818 0 840 841 842 77 843 225 0 0 +15 840 1526 0 842 211 0 1
7 841 0 840 844 818 71 816 812 0 0 -17 842 0 840 818 844 74 845 177 0 843 -17 84
3 0 846 847 79 74 818 225 0 0 -15 846 1544 0 254 220 0 17 847 0 846 254 843 65 7
6 176 0 848 -17 79 0 846 843 254 77 58 238 0 816 +17 254 0 846 79 847 56 67 248
 0 187 +17 58 0 459 849 816 56 79 238 0 254 -17 816 0 459 58 73 77 841 812 0 818
 +15 459 1539 0 816 337 0 17 73 0 459 816 849 71 850 240 0 235 -17 849 0 459 73
 58 59 187 156 0 0 -17 850 0 468 247 235 59 73 240 0 849 +16 240 1479 0 ?850 241
 238 236 238 238 1 17 235 0 468 850 70 71 844 188 0 841 +15 468 1543 0 247 220 8
46 17 70 0 468 235 247 68 64 237 0 844 -17 844 0 840 842 841 68 235 188 0 845 -1
7 845 0 336 64 76 68 842 177 0 0 +15 336 1521 0 64 216 0 17 64 0 336 848 845 62
 70 237 0 247 +17 76 0 336 845 848 74 847 176 0 842 +16 177 1464 0 ?845 173 812
 817 812 812 1 17 848 0 336 76 64 65 155 151 0 0 -17 155 0 441 61 67 62 848 151
 0 0 +15 441 1530 0 155 201 830 17 61 0 441 187 155 59 247 241 0 850 -17 67 0 44
1 155 187 65 254 248 0 847 -17 187 0 441 67 61 56 849 156 0 0 +17 247 0 468 70 8
50 62 61 241 0 155 +16 237 1462 0 ?64 238 176 231 176 176 1 15 217 1525 0 811 21
1 840 17 815 0 334 815 815 0 811 809 0 0 -15 334 1517 0 815 331 0 79 27 793 Soli
dEdge/MNKR_ATTR_TYPE_EX15 737 129 0 769 612 0 17 736 0 683 736 736 0 766 745 0 0
 +17 765 0 667 765 765 0 757 26 0 0 -15 667 980 0 765 655 774 82 1 761 17 51 741
 150 0 1 614 738 851 -0 .0979795897113271 .072 0 -1 0 .005 0 0 -1 40 20 754 0 1
 20 .000294184589394217 .347544909381219 ??0 .02 .067 .00162640939493463 .019933
7601189557 .0672719145016119 .00306897267512256 .01976313251282175 .068052670938
5521 .0041958943777472 .0195549091118008 .0692807224542557 .004863783161705 .019
39957765921505 .070840856628404 .0049742611641345 .0193715442304165 .07250668123
21206 .00454854717611537 .0194759009698307 .0740762270074953 .00363532724332211
 .0196668349216126 .0754328407819123 .00229194782641626 .01986824036398255 .0764
437568746485 .000676305323631037 .01998856200703865 .0769540499704008 -.00097790
0888744501 .0199760784402693 .0769034385742857 -.002499116023819745 .01984324618
35126 .0763306372625155 -.0037711017257334 .01964125229648485 .0752831070305689
 -.00464944162795361 .0194520613958586 .0738392097618956 -.00499647858863292 .01
936582561403805 .0721876211963845 -.00478824658392136 .01941835973123285 .070560
3143914155 -.00407425861254281 .0195806132886108 .0691016527540475 -.00289923028
9003125 .01978874588576365 .0679263697110161 -.001370241292116356 .0199530057585
663 .0671914202927081 2880407736187405e-33 .02 .067 41 1 755 H?2880407736187405e
-33 .02 .067 204 80 756 4 1.570796326794895 .013 0 .0779795897113271 1.652206693
285275 .01272808549838814 .331309802797109 .0780458295923714 1.724853628206205 .
01194732906144788 .660858120938582 .0782164571985054 1.782161328289205 .01071927
754574434 .99577163801866 .0784246805995263 1.816448693154855 .00915914337159598
 1.336839174927646 .0785800120521121 1.82214766177036 .00749331876787937 1.67230
681719309 .0786080454809106 1.800231319752915 .00592377299250468 1.9990088712768
55 .0785036887414964 1.7535787660307 .00456715921808772 2.32755466510762 .078312
7547897146 1.685646038329625 .003556243125351495 2.665410322978435 .078111349347
3446 1.60461804076441 .003045950029599175 3.005915709693185 .0779910277042885 1.
52188177893087 .003096561425714325 3.338441671845955 .0780035112710578 1.4455130
43713982 .00366936273748454 3.66498729566166 .0781363435278145 1.381105693746858
 .00471689296943115 3.996058588506395 .0783383374148423 1.336177696174574 .00616
07902381044 4.33570178801805 .0785275283154685 1.31829791228608 .007812378803615
52 4.67485592940653 .0786137640972891 1.329035794340574 .00943968560858452 5.004
46101228073 .0785612299800943 1.365647436192996 .01089834724595254 5.33071195487
834 .0783989764227164 1.42532225080241 .01207363028898386 5.66464557885981 .0781
908438255635 1.50223055049446 .01280857970729188 6.00558537310267 .0780265839527
608 1.570796326794895 .013 576081547237481e-30 .0779795897113271 51 614 527 0 59
9 297 741 0 +0 -.503189825016365 .472 0 1 0 .019 0 0 1 141 851 746 851 851 741 5
1 297 1036 0 1 298 614 852 +0 0 .5 0 0 -1 .019 -1 0 0 51 298 1037 0 309 289 297
 853 +0 -.494247913500907 .472 0 1 0 .0025 0 0 1 141 852 288 852 852 297 141 853
 288 853 853 298 50 668 11 0 655 739 657 0 +0 0 .08 0 0 -1 -1 0 0 141 743 744 74
3 743 739 50 657 22 0 650 668 21 0 +0 0 0 0 0 -1 -1 0 0 51 21 107 0 625 657 5 0
 +0 0 .08 0 0 -1 .02 -1 0 0 141 742 746 742 742 738 83 3 681 .800000011920929 0
 0 82 1 678 0 82 1 679 2 83 3 672 .800000011920929 0 0 82 1 670 1899 83 3 664 .8
00000011920929 0 0 82 1 661 1899 83 3 649 .800000011920929 0 0 81 3 590 1135 581
 18 0 639 628 582 854 855 0 81 1 589 1300 511 305 0 582 639 575 856 82 1 647 458
5 81 1 575 1313 511 308 0 579 589 563 857 82 1 856 7314 82 1 857 7314 81 3 628 1
111 581 601 0 635 604 590 858 859 0 82 1 854 4 82 1 855 1 82 1 858 2 82 1 859 17
 83 3 643 .800000011920929 0 0 82 1 640 4645 15 638 1114 0 285 601 784 17 285 0
 638 285 285 0 860 280 0 0 +17 860 0 310 860 860 0 285 280 0 0 -15 310 1301 0 86
0 305 29 83 3 634 .800000011920929 0 0 82 1 629 1 82 1 630 5 83 3 621 .800000011
920929 0 0 82 1 617 4 82 1 618 1 83 3 609 .800000011920929 0 0 82 1 605 2 82 1 6
06 17 15 600 1107 0 287 309 779 17 287 0 600 287 287 0 861 277 0 0 +17 861 0 314
 861 861 0 287 277 0 0 -15 314 1314 0 861 308 790 83 3 595 .800000011920929 0 0
 82 1 591 4 82 1 592 9 83 3 587 .800000011920929 0 0 81 3 574 1358 581 313 0 563
 579 562 862 863 0 82 1 583 4 82 1 584 6 81 3 562 1641 581 145 0 560 574 559 864
 865 0 82 1 862 4 82 1 863 4 81 3 559 1645 581 203 0 539 562 538 866 867 0 82 1
 864 5 82 1 865 0 81 3 538 1648 581 411 0 537 559 542 868 869 0 82 1 866 5 82 1
 867 1 81 3 542 1651 581 201 0 540 538 566 870 871 0 82 1 868 5 82 1 869 1 81 3
 566 1654 581 150 0 523 542 522 872 873 0 82 1 870 5 82 1 871 2 81 3 522 1657 58
1 345 0 521 566 544 874 875 0 82 1 872 5 82 1 873 2 81 3 544 1660 581 211 0 524
 522 546 876 877 0 82 1 874 5 82 1 875 2 81 3 546 1663 581 216 0 535 544 534 878
 879 0 82 1 876 5 82 1 877 3 81 3 534 1666 581 337 0 533 546 548 880 881 0 82 1
 878 5 82 1 879 4 81 3 548 1669 581 331 0 531 534 530 882 883 0 82 1 880 5 82 1
 881 4 81 3 530 1672 581 220 0 528 548 527 884 885 0 82 1 882 5 82 1 883 5 81 3
 527 1675 581 339 0 526 530 550 886 887 0 82 1 884 5 82 1 885 6 81 3 550 1678 58
1 209 0 513 527 512 888 889 0 82 1 886 5 82 1 887 0 81 3 512 1681 581 208 0 508
 550 552 890 891 0 82 1 888 5 82 1 889 1 81 3 552 1684 581 325 0 514 512 569 892
 893 0 82 1 890 5 82 1 891 1 81 3 569 1687 581 132 0 553 552 555 894 895 0 82 1
 892 5 82 1 893 7 81 3 555 1690 581 321 0 518 569 517 896 897 0 82 1 894 5 82 1
 895 7 81 3 517 1693 581 327 0 516 555 557 898 899 0 82 1 896 5 82 1 897 8 81 3
 557 1696 581 318 0 519 517 0 900 901 0 82 1 898 5 82 1 899 8 82 1 900 5 82 1 90
1 9 83 3 578 .800000011920929 0 0 82 1 576 7314 83 3 572 .800000011920929 0 0 82
 1 570 7545 82 1 567 7545 82 1 564 7545 82 1 561 7545 82 1 558 7545 82 1 556 754
5 82 1 554 7545 82 1 551 7545 82 1 549 7545 82 1 547 7545 82 1 545 7545 82 1 543
 7545 82 1 541 7545 82 1 536 7545 82 1 532 7545 82 1 529 7545 82 1 525 7545 82 1
 520 7545 82 1 515 7545 79 17 510 SolidEdge/Display79 15 506 SDL/TYSA_COLOUR13 3
48 1545 0 1 0 339 0 0 19 0 13 349 1580 0 0 0 0 0 0 902 339 19 902 1579 0 1 0 351
 349 V0 19 351 1576 0 1 902 350 219 V0 13 219 1577 0 0 0 0 0 0 351 318 19 19 30
 0 1 350 8 4 S0 83 1 498 0 82 1 499 0 83 3 496 .800000011920929 0 0 83 1 489 0 8
2 1 490 0 83 3 487 .800000011920929 0 0 83 1 480 0 82 1 481 0 83 3 478 .80000001
1920929 0 0 83 1 472 0 82 1 473 0 83 3 471 .800000011920929 0 0 13 218 1448 0 1
 348 318 0 0 19 0 83 1 464 0 82 1 465 0 83 3 462 .800000011920929 0 0 83 1 455 0
 82 1 456 0 83 3 453 .800000011920929 0 0 83 1 446 0 82 1 447 0 83 3 444 .800000
011920929 0 0 83 1 437 0 82 1 438 0 83 3 435 .800000011920929 0 0 83 1 429 0 82
 1 430 0 83 3 428 .800000011920929 0 0 83 1 422 0 82 1 423 0 83 3 421 .800000011
920929 0 0 83 1 415 0 82 1 416 0 83 3 414 .800000011920929 0 0 83 1 406 0 82 1 4
07 0 83 3 404 .800000011920929 0 0 83 1 398 0 82 1 399 0 83 3 397 .8000000119209
29 0 0 83 1 391 0 82 1 392 0 83 3 390 .800000011920929 0 0 83 1 384 0 82 1 385 0
 83 3 383 .800000011920929 0 0 83 3 378 .800000011920929 0 0 83 3 373 .800000011
920929 0 0 79 21 369 SDL/TYSA_TRANSLUCENCY83 1 363 0 82 1 364 0 83 1 362 0 79 21
 357 SDL/TYSA_REFLECTIVITY83 1 343 0 82 1 344 0 141 302 286 302 302 289 40 20 29
9 0 1 20 .0001425894777940474 .340020544253621 ??0 -.019 .4745 -.000823483172560
58 -.01898214622914145 .474360482040709 -.001554070278230155 -.01893633717407675
 .473958281279674 -.00211386943057878 -.0188820432165183 .473334749426096 -.0024
3707757861309 -.0188430531728757 .472557362427709 -.00248436451981806 -.01883687
69421226 .471720835294729 -.00225512013745638 -.0188656946112683 .47092091095564
9 -.00177494268659107 -.01891691249806155 .470239438027414 -.00109159397480517 -
.0189686167812566 .469750906272703 -.0002836507891979655 -.0189978825722707 .469
516143677709 .000550741748920391 -.01899201631017615 .469561417722119 .001320299
155037654 -.01895407107038505 .469877075097606 .0019461832459119 -.0189000627187
6715 .470430805692933 .00235654474429678 -.01885329405881445 .471165316306541 .0
02499990102003035 -.01883480951562525 .471992965095107 .002363338328157395 -.018
85244365981935 .472815249622301 .001964815561782995 -.01889813482352625 .4735458
00701312 .001343673098594354 -.01895242840915415 .47410820838726 .00056766391814
993 -.0189915180455916 .474434698682801 -1233232223572442e-32 -.019 .4745 41 1 3
00 H?-1233232223572442e-32 -.019 .4745 204 80 301 4 4.71238898038469 .0255 0 .47
5247913500907 4.75574378061015 .025639517959291 5.94752439635185 .47526576727176
6 4.79427362965251 .02604171872032595 5.61236581867799 .47531157632683 4.8238760
7515198 .0266652505739036 5.27559498885765 .475365870284389 4.84101057029432 .02
744263757229125 4.93722341927789 .475404860328031 4.84352049620108 .028279164705
2712 4.60048972104573 .475411036558785 4.83135996985578 .02907908904435115 4.266
08376155405 .475382218889639 4.80594342834389 .02976056197258625 3.9310583083594
25 .475331001002846 4.76987294801764 .0302490937272975 3.59345040553789 .4752792
9671965 4.72731852389448 .03048385632229145 3.25529782407888 .475250030928636 4.
68339851189076 .03043858227788115 2.91947402134181 .475255897190731 4.6428435044
2978 .0301229249023945 2.58520794154614 .475293842430522 4.60977831426006 .02956
919430706705 2.24936282034538 .47534785078214 4.58804009686244 .0288346836934595
 1.91120620359603 .475394619442093 4.580427898241 .02800703490489355 1.573610292
466005 .475413103985282 4.58767974938229 .0271847503776988 1.23862138337432 .475
395469841088 4.60879243051039 .02645419929868835 .904192673387168 .4753497786773
81 4.64161026258919 .02589179161273985 .567433149513524 .475295485091753 4.68250
748537641 .0255653013171994 .2290634816632675 .475256395455316 4.71238898038469
 .0255 6.28318530717958 .475247913500907 40 22 228 0 1 22 .000789121970337373 .3
94988422756584 ??-.000813272388997679 -.01497793670774764 .0620331254637527 .002
1010621989509 -.01485212232767222 .0622232143505066 .00477128585200551 -.0142209
293408853 .0632116650428849 .00710985925512091 -.01320794841647906 .064967937616
0069 .00905065045672817 -.01196184460315908 .067747268370785 .00987603533362331
 -.01128999229800552 .0704303101933745 .00991048040214179 -.0112597681236678 .07
33350573765811 .00927587700908928 -.0117880492751027 .0757360548326074 .00749877
690644063 -.01299108713339392 .0786157648769763 .00481933482664579 -.01420471794
259496 .0807620780542449 .002012261251654025 -.0148644140367218 .081795448159992
1 -.00105702140058922 -.01496271050841712 .0819439783667653 -.003756684311849765
 -.0145219600254615 .0812675413665709 -.00619324703236478 -.01366176017927796 .0
798513496416925 -.00834530224835246 -.01246418590938226 .0775096216189175 -.0097
6956240169423 -.0113822515557952 .0741343969826165 -.00999127574027096 -.0111881
3697993876 .0715823768662143 -.0095629981599904 -.01155634311501786 .06907612137
87128 -.00815620980562563 -.0125887347103121 .0662141343252184 -.005910686602464
69 -.01378636224271814 .0639337875128754 -.0025952649339917 -.01477378082693774
 .0623426401163469 -.000813272388997675 -.01497793670774762 .0620331254637528 41
 1 229 H?-.000813272388997675 -.01497793670774762 .0620331254637528 204 88 230 4
 4.76663373821443 .01796687453624725 3.223009811728985 .0830016530035795 4.57185
604770891 .01777678564949335 2.929909050092215 .0831274673836549 4.3886793259434
6 .01678833495711515 2.644208152445305 .0837586603704418 4.218571638682775 .0150
3206238399315 2.35069339293367 .0847716412948481 4.0646602854327 .01225273162921
504 2.010060006800595 .0860177451081681 3.993694842286825 .00956968980662548 1.7
2841716112293 .0866895974133216 3.990639817214795 .00666494262341892 1.436890777
800176 .0867198215876593 4.045694322707655 .00426394516739262 1.187903388240816
 .0861915404362244 4.188884356013685 .001384235123023728 .847877183997112 .08498
85025779332 4.385298651554685 -.000762078054244844 .502860025231736 .08377487176
87322 4.57783256407584 -.001795448159992065 .2026094897463005 .0831151756746053
 4.78291552564909 -.00194397836676531 6.17728533685453 .08301687920291 4.9655294
9806454 -.001267541366570854 5.89806737749239 .0834576296858656 5.1380063332323
 .000148650358307495 5.615302998832 .0843178295320492 5.3023799067329 .002490378
381082475 5.29590571838649 .0855154038019449 5.42169082807634 .00586560301738348
 4.92748342577055 .0865973381555319 5.4413365871395 .0084176231337857 4.67061451
792405 .0867914527313884 5.40368112335049 .0109238786212872 4.415666111835775 .0
864232465963093 5.28728475236146 .01378586567478162 4.095394309702675 .085390855
001015 5.11741837133953 .01606621248712455 3.77397571230191 .084193227468609 4.8
8628169955821 .01765735988365315 3.40412451770509 .0832058088843894 4.7666337382
1443 .01796687453624725 3.223009811728985 .0830016530035795 141 222 223 903 904
 212 141 903 242 905 222 212 141 904 227 222 905 212 141 905 239 904 903 212 141
 202 160 906 907 190 141 906 242 908 202 190 141 907 189 202 908 190 141 908 239
 907 906 190 40 21 198 0 1 21 .000526196031126959 .39715528562332 ??.00041153017
4235137 .01399395022556872 .479488701016578 -.00187972178946245 .013873234878506
9 .479260622975628 -.00395533894453584 .01342964235688494 .47837222832562 -.0057
2780769705771 .01277467099323996 .476841716532959 -.00703740357225935 .012102683
62641738 .474593251040904 -.00749990802422974 .0118216487694439 .472037143345224
 -.00718256352697327 .01201710369352754 .469841115755536 -.00628626489185675 .01
25093114802298 .467909416458571 -.00467484598998448 .01319643190297764 .46613520
5462258 -.002342888823735 .01380256758576524 .464875333554501 .00015299916088467
65 .01399916394849236 .464501560745277 .00237666451965581 .0137967918648144 .464
886529274608 .0043492228648683 .01330730102130806 .465889823204546 .006054765455
45599 .01262298757344776 .46757396167217 .00721349712263063 .0119985607162609 .4
69946841637428 .00748580015272975 .01183058730889516 .472461298247765 .007043497
63633002 .01209913802909172 .474576653070752 .00601356559614456 .012642666997942
58 .476481855510932 .00423416142627654 .01334435749731818 .478190466623465 .0018
0823366989919 .0138827335562937 .479278756143397 .000411530174235119 .0139939502
255687 .479488701016578 41 1 199 H?.000411530174235119 .0139939502255687 .479488
701016578 204 84 200 4 .0548982613143018 .508241863726476 1.600195574095955 .020
5112989834221 6.02985477830958 .508121148379414 1.436123767765298 .0207393770243
718 5.72767313558038 .507677555857792 1.284371819779956 .02162777167437965 5.414
14818605728 .507022584494147 1.149296881338118 .0231582834670412 5.0654448531783
8 .506350597127324 1.04410979935782 .02540674895909565 4.71734144665934 .5060695
62270351 1.005450676859538 .02796285665477585 4.420406634725915 .506265017194435
 1.032073358051848 .0301588842444636 4.135509423447235 .506757224981137 1.105129
281792766 .0320905835414289 3.81456470420783 .507444345403885 1.230339672084306
 .03386479453774175 3.45929548261225 .508050481086672 1.40265599015821 .03512466
644549885 3.12119135028608 .508247077449399 1.581725055834675 .03549843925472285
 2.81914543530349 .508044705365721 1.74138423321087 .035113470725392 2.522991155
68801 .507555214522215 1.886682348840955 .03411017679545415 2.202026646182405 .5
06870901074355 2.01804142886922 .0324260383278296 1.84809076807052 .506246474217
168 2.11209541236089 .03005315836257205 1.5092510473628 .506078500809802 2.13494
903499061 .0275387017522348 1.22009796822837 .506347051529999 2.09798645797128 .
0254233469292484 .93031588245412 .50689058049885 2.014780098538175 .023518144489
06855 .59989384515183 .507592270998225 1.8780479350643 .0218095333765352 .243496
8842695575 .508130647057201 1.700317708220645 .02072124385660275 .05489826131429
99 .508241863726476 1.60019557409595 .02051129898342215 17 100 0 127 103 128 98
 125 142 0 139 +74 4 CI16 index_map_offset0 0 1 dCCZ20 16 9 0 0 186 557 519 502
 909 2 495 491 497 0 0 0 0 0 0 0 0 0 0 0 81 2 909 46 910 1 0 911 0 0 912 913 80
 2 910 11 914 9000 2 2 2 2 3 6 0 0 0 FFTFFFFFFFFFFF2 3 81 3 911 1699 11 1 909 91
5 0 915 916 917 918 83 2 912 1 43 84 255 20 913 SE 219.0.0.91 Type8680 3 11 919
 920 9000 0 0 0 0 3 6 0 0 0 FFTFFFFFFFFFFF3 3 1 81 3 915 1700 11 1 911 921 911 9
21 922 923 924 84 38 916 {5e9cf68d-c542-4e3b-abb9-60d36638362a}84 2 917 SE82 1 9
18 0 81 3 921 1701 11 1 915 12 915 12 925 926 927 84 38 922 {fda0636d-c288-41f6-
9aa3-b8d92ef2b4e1}84 2 923 SE82 1 924 1 81 3 12 1702 11 1 921 2 921 2 928 929 93
0 84 38 925 {88d8e91c-01bd-4690-9730-f2d457fe5612}84 2 926 SE82 1 927 2 84 38 92
8 {aea8177f-1d84-466b-8d27-0eff0afbdfd7}84 2 929 SE82 1 930 4 79 25 920 MONIKER/
GUID_TABLE_ATTRIB79 22 914 MONIKER/BODY_ID_ATTRIB84 38 13 {c7c3c187-0ebc-4311-a5
fb-eace1427ae78}84 2 14 SE82 1 15 5 1 0 
