**ABCDEFGHIJKLMNOPQRSTUVWXYZabcdefghijklmnopqrstuvwxyz**************************
**PARASOLID !"#$%&'()*+,-./:;<=>?@[\]^_`{|}~0123456789**************************
**PART1;
MC=RODRIGO;
MC_MODEL=unknown;
MC_ID=unknown;
OS=Windows NT;
OS_RELEASE=6.2;
FRU=Unigraphics Solutions;
APPL=SolidEdge;
SITE=Huntsville, AL;
USER=GoniR
FORMAT=text;
GUISE=transmit;
KEY=C:\Users\GoniR\OneDrive\Documentos\Facultad\R2\Protecto final R2\Piezas_xt\Efector;
FILE=C:\Users\GoniR\OneDrive\Documentos\Facultad\R2\Protecto final R2\Piezas_xt\Efector.x_t;
DATE=sáb., nov. 21 20;
**PART2;
SCH=SCH_3001256_30100;
USFLD_SIZE=0;
**PART3;
**END_OF_HEADER*****************************************************************
T51 : TRANSMIT FILE created by modeller version 300125623 SCH_3001256_30100_1300
6214 0 12 34 CCCCCCI4 mesh1006 0 I8 polyline1008 0 CCCCCCCDI5 owner1040 0 CCCCCC
I13 boundary_mesh1006 0 I17 boundary_polyline1008 0 CCCA16 index_map_offset0 0 1
 dA9 index_map82 0 A17 node_id_index_map82 0 A20 schema_embedding_map82 0 A5 chi
ld12 0 A14 lowest_node_id0 0 1 dA16 mesh_offset_data206 0 Z1 331 2 3 0 0 0 0 0 0
 1e3 1e-8 0 0 0 1 0 1 1 4 5 6 0 0 0 7 8 0 0 0 0 0 0 0 0 81 255 3 2 300 9 1 10 0
 10 0 11 12 13 70 11 CI9 list_type0 0 1 uI10 notransmit0 0 1 lCCCDCCDI12 finger_
index0 0 1 dI12 finger_block1012 0 CZ3 0 4 T1 0 0 9 20 1 14 14 13 255 4 3 0 1 15
 16 0 0 17 0 50 255 5 282 0 18 19 0 0 +0 0 .113 0 0 -1 -1 0 0 31 255 6 285 0 20
 21 0 0 +0 0 .005 0 0 -1 -1 0 0 .0025 19 8 CCCCCCCA5 owner12 0 Z7 1 0 1 22 0 23
 V0 16 255 8 259 0 ?24 0 25 26 0 0 1 17 255 24 0 27 24 24 0 28 8 0 0 +16 25 258
 0 ?29 8 20 21 0 0 1 31 26 283 0 8 30 21 0 -0 0 .113 0 0 -1 -1 0 0 .001752053094
72848 31 30 23 0 31 32 26 0 +0 0 0 0 0 -1 1 0 0 .0075 31 21 284 0 25 26 6 0 -0 0
 .1119464160458052 0 0 -1 -1 0 0 .0025 16 31 19 33 ?34 20 35 30 0 0 1 31 32 116
 0 35 36 30 0 +0 0 .118 0 0 1 1 0 0 .004334336081800365 16 35 76 0 ?37 31 38 32
 0 0 1 31 36 117 0 38 39 32 0 +0 0 .113540736 0 0 1 1 0 0 .0075 16 38 79 0 ?40 3
5 41 36 0 0 1 38 12 CCCCCCCCCCCA17 intersection_data204 0 Z39 191 0 41 42 36 0 +
43 44 45 46 46 47 16 41 155 0 ?48 38 49 39 0 0 1 38 42 247 0 49 0 39 0 +50 51 52
 53 53 54 51 255 43 187 0 1 44 55 56 +0 0 .118 0 0 -1 .0075 -1 0 0 51 44 188 0 5
7 50 43 58 +.1198916177220076 0 .018 -1 0 0 .0025 0 0 1 40 255 20 45 0 1 20 .000
152541854377189 .356141978077952 ??.0075 0 .0205 .00745694065941855 -.0008025185
36801797 .02036769170250045 .00734558515776425 -.001514060332362495 .01998937711
60759 .00720568111893838 -.00208042294069617 .01938630457974615 .007096763493084
94 -.002426097261697645 .0186033672818302 .00707471864513702 -.00248964979307345
 .01777274703995475 .0071407819821427 -.00229330169918965 .0170046270465329 .007
2651700035521 -.001862070036139035 .0163318587648184 .00740261432449075 -.001204
69961519227 .01580940673853965 .00748950358475619 -.0003966560902396185 .0155316
6778044855 .00748795759247211 .000424842433543578 .0155363626673837 .00740724657
120829 .001175881895992552 .01579380377874565 .00727615961952075 .00181865367545
768 .0162846286673888 .00714292708774254 .002286611602173375 .01698935298901835
 .00707348246866117 .002493159795428915 .01781519135719115 .00709836022873896 .0
024214214963647 .0186218664944688 .00719794794140086 .002107022883806225 .019345
53133264035 .00733608303572632 .00155945044580728 .0199539995668043 .00745602025
523874 .00081102524835519 .02036479133255565 .0075 358054337676866e-32 .0205 41
 3 CI8 term_use0 0 1 cCZ1 46 H?.0075 358054337676866e-32 .0205 204 2 17 INTERSEC
TION_DATA17 Intersection data7 uv_type0 0 1 u6 values0 1 1 fT80 47 4 3.141592653
589795 .0975 0 .1123916177220076 3.24880037240701 .0976323082974995 5.9563923015
9789 .112434677062589 3.34486431822533 .0980106228839241 5.63263534151663 .11254
60325642432 3.42266880075379 .0986136954202539 5.30017723200423 .112685936603069
2 3.470997187552315 .0993966327181698 4.95614253421945 .1127948542289226 3.47996
620077544 .1002272529600452 4.62136214211242 .1128168990768706 3.452343450913915
 .100995372953467 4.302890655240275 .112750835739865 3.392492782321255 .10166814
12351816 3.981869707320585 .1126264477184554 3.3029181326386 .1021905932614604 3
.644391465391965 .1124890033975168 3.19450481850575 .1024683322195514 3.30092843
4282775 .1124021141372514 3.08491665851658 .1024636373326162 2.970826941652505 .
1124036601295354 2.98415886306281 .1022061962212542 2.65190218216621 .1124843711
507992 2.89666395013996 .1017153713326112 2.32697767568116 .112615458102487 2.83
1778601265775 .1010106470109816 1.98696464758435 .112748690634265 2.802722929928
39 .100184808642809 1.6447872780012 .1128181352533464 2.81284690432763 .09937813
35055312 1.31941036398644 .1127932574932686 2.856823004911835 .0986544686673596
 1.00248150137506 .1126936697806066 2.932137772138165 .0980460004331957 .6735698
86234608 .1125555346862812 3.033244086797525 .0976352086674443 .3303880326862825
 .112435597466769 3.141592653589795 .0975 1432217350707464e-30 .1123916177220076
 14 255 57 161 59 ?0 60 61 4 44 -0 0 0 60 23 51 50 243 0 1 51 44 62 +0 0 .118 0
 0 -1 .0075 -1 0 0 141 255 58 39 58 58 44 51 51 244 0 1 0 50 63 --.1198916177220
076 0 .018 1 0 0 .0025 0 0 -1 141 62 42 62 62 50 141 63 42 63 63 51 81 2 59 319
 64 57 65 0 66 67 68 69 14 60 53 66 ?57 70 71 4 72 -0 0 57 70 23 15 255 61 167 0
 48 57 73 13 23 29 0 0 0 0 0 0 7 16 14 16 197 74 ?75 0 76 4 77 +0 0 75 0 23 81 2
 74 307 64 16 78 0 0 79 80 81 14 75 17 79 ?70 16 82 4 83 +0 0 70 16 23 15 76 57
 0 84 16 85 51 77 201 0 16 83 86 0 +0 0 .118 0 0 -1 .0075 -1 0 0 50 83 22 0 75 7
2 77 0 +0 0 0 0 0 -1 -1 0 0 51 86 279 0 87 77 88 0 +0 0 .118 0 0 -1 .0025 -1 0 0
 14 87 260 67 ?89 0 90 15 86 -0 0 89 0 91 50 88 280 0 89 86 19 0 +0 0 .005 0 0 -
1 -1 0 0 14 89 265 92 ?93 87 94 15 88 -0 0 93 87 91 52 255 19 281 0 93 88 5 0 +0
 0 .1151056417776274 0 0 -1 .000257242695503642 .578871644474507 .81541867725934
5 -1 0 0 14 93 269 95 ?18 89 96 15 19 -0 0 18 89 91 81 2 95 328 64 93 97 0 92 98
 99 100 14 18 274 98 ?0 93 101 15 5 +0 0 0 93 91 15 96 272 0 102 93 27 13 15 255
 0 1 0 87 0 0 17 0 13 91 278 0 0 0 0 0 0 22 87 19 22 254 0 1 17 7 91 V0 19 17 30
 0 1 0 22 4 S0 17 102 0 96 102 102 0 29 25 0 0 -15 27 273 0 24 93 0 17 29 0 90 2
9 29 0 102 25 0 0 +15 90 263 0 29 87 103 15 103 264 0 104 87 0 17 104 0 103 104
 104 0 105 20 0 0 +17 105 0 94 105 105 0 104 20 0 0 -16 20 256 106 ?104 25 31 6
 0 0 1 81 1 106 257 107 20 0 0 33 0 108 80 255 1 107 109 110 9000 0 0 0 0 3 6 0
 0 0 FFFFTFTTFFFFFF1 81 1 33 21 107 31 0 0 0 106 111 82 255 1 108 17 82 1 111 17
 79 255 27 110 SolidEdge/MNKR_ATTR_TYPE_EX15 94 268 0 105 89 0 81 2 98 331 64 18
 112 0 95 0 113 114 15 101 277 0 28 18 0 17 28 0 101 28 28 0 24 8 0 0 -80 2 64 1
15 116 8014 0 0 0 0 3 5 0 0 0 FFFFTFFFFFFFFF2 1 81 1 112 330 117 18 118 98 97 0
 119 83 255 1 113 0 82 1 114 0 80 1 117 64 120 8015 0 0 0 0 3 5 0 0 0 FFFFTFFFFF
FFFF2 81 1 118 329 121 18 122 112 123 0 124 81 1 97 327 117 93 123 95 125 112 12
6 83 1 119 0 81 1 123 326 121 93 127 97 128 118 129 81 1 125 324 117 89 128 92 1
30 97 131 83 1 126 0 81 1 128 323 121 89 132 125 133 123 134 81 2 92 325 64 89 1
25 0 67 95 135 136 81 1 130 321 117 87 133 67 65 125 137 83 1 131 0 81 1 133 320
 121 87 138 130 139 128 140 81 2 67 322 64 87 130 0 59 92 141 142 81 1 65 318 11
7 57 139 59 143 130 144 83 1 137 0 81 1 139 317 121 57 145 65 146 133 147 81 1 1
43 315 117 60 146 66 148 65 149 83 1 144 0 81 1 146 314 121 60 150 143 151 139 1
52 81 2 66 316 64 60 143 0 153 59 154 155 81 1 148 312 117 70 151 153 156 143 15
7 83 1 149 0 14 70 98 153 ?60 75 158 4 55 +0 0 60 75 23 81 1 151 311 121 70 159
 148 160 146 161 81 2 153 313 64 70 148 0 79 66 162 163 81 1 156 309 117 75 160
 79 78 148 164 83 1 157 0 81 1 160 308 121 75 165 156 166 151 167 81 2 79 310 64
 75 156 0 74 153 168 169 81 1 78 306 117 16 166 74 0 156 170 83 1 164 0 81 1 166
 305 121 16 171 78 0 160 172 83 1 170 0 80 1 121 0 173 8001 0 0 0 0 3 5 0 0 0 FF
FFTFTFFFFFFF2 81 1 171 252 174 16 175 166 150 145 0 83 3 172 .800000011920929 0
 0 80 1 174 107 176 9000 1 1 1 1 1 1 1 1 0 FFFFTFTTFFFFFF1 81 1 175 199 177 16 1
78 171 179 180 181 81 1 150 140 174 60 182 146 159 171 0 81 1 145 253 174 57 183
 139 171 138 0 81 3 183 162 184 57 179 145 185 178 186 187 0 81 1 138 301 174 87
 180 133 145 132 0 81 1 180 289 177 87 188 138 175 189 190 81 1 132 302 174 89 1
89 128 138 127 0 81 1 189 292 177 89 191 132 180 192 193 81 1 127 303 174 93 192
 123 132 122 0 81 1 192 295 177 93 194 127 189 195 196 81 1 122 304 174 18 195 1
18 127 0 0 81 1 195 298 177 18 197 122 192 0 198 80 1 177 199 200 9000 0 0 0 0 3
 6 0 0 0 FFFFTFFFFFFFFF1 81 3 197 296 184 18 0 195 194 0 201 202 0 82 1 198 3180
 80 3 184 203 204 9000 0 0 0 0 3 6 0 0 0 FFFFTFTTFFFFFF1 1 3 81 3 194 293 184 93
 0 192 191 197 205 206 0 82 1 201 1 82 1 202 6 81 3 191 290 184 89 0 189 188 194
 207 208 0 82 1 205 1 82 1 206 5 81 3 188 286 184 87 0 180 178 191 209 210 0 82
 1 207 1 82 1 208 4 81 3 178 198 184 16 0 175 183 188 211 212 0 82 1 209 1 82 1
 210 3 82 1 211 0 82 1 212 2 79 27 204 MONIKER/MONIKER_DATA_ATTRIB79 23 200 Soli
dEdge/MNKR_ATTR_CID82 1 196 3180 82 1 193 3180 82 1 190 3180 81 1 179 165 177 57
 0 183 213 175 214 81 3 185 102 184 70 0 213 182 183 215 216 0 82 1 186 0 82 1 1
87 9 81 1 213 99 177 70 185 159 217 179 218 81 3 182 55 184 60 217 150 219 185 2
20 221 0 82 1 215 0 82 1 216 5 81 1 217 54 177 60 0 182 222 213 223 81 3 219 35
 184 75 0 222 0 182 224 225 0 82 1 220 0 82 1 221 0 81 1 222 37 177 75 219 165 0
 217 226 82 1 224 0 82 1 225 1 81 1 165 45 174 75 222 160 0 159 0 82 1 226 473 8
1 1 159 139 174 70 213 151 165 150 0 82 1 223 473 82 1 218 1940 82 1 214 3514 82
 1 181 473 79 17 176 SolidEdge/Display79 15 173 SDL/TYSA_COLOUR83 1 168 0 82 1 1
69 0 83 3 167 .800000011920929 0 0 83 1 162 0 82 1 163 0 83 3 161 .8000000119209
29 0 0 15 158 136 0 40 70 227 52 55 114 0 70 43 72 0 +0 0 .118 0 0 -1 .004334336
081800365 .578871644474507 .815418677259345 -1 0 0 50 72 11 0 60 55 83 0 +0 0 .1
18 0 0 -1 -1 0 0 17 40 0 158 40 40 0 84 38 0 0 +15 227 103 0 228 70 0 17 228 0 2
27 228 228 0 37 35 0 0 -17 37 0 71 37 37 0 228 35 0 0 +15 71 51 0 37 60 0 17 84
 0 76 84 84 0 40 38 0 0 -83 1 154 0 82 1 155 0 83 3 152 .800000011920929 0 0 83
 3 147 .800000011920929 0 0 83 1 141 0 82 1 142 0 83 3 140 .800000011920929 0 0
 83 1 135 0 82 1 136 0 83 3 134 .800000011920929 0 0 83 3 129 .800000011920929 0
 0 83 3 124 .800000011920929 0 0 79 21 120 SDL/TYSA_TRANSLUCENCY79 21 116 SDL/TY
SA_REFLECTIVITY83 1 99 0 82 1 100 0 15 85 26 0 229 16 230 17 229 0 85 229 229 0
 34 31 0 0 -15 230 143 0 231 16 232 17 231 0 230 231 231 0 48 41 0 0 -15 232 195
 0 233 16 0 17 233 0 232 233 233 0 234 49 0 0 +17 234 0 73 234 234 0 233 49 0 0
 -16 49 214 0 ?233 41 0 42 0 0 1 15 73 223 0 234 57 0 17 48 0 61 48 48 0 231 41
 0 0 +17 34 0 82 34 34 0 229 31 0 0 +15 82 18 0 34 75 0 83 1 80 0 82 1 81 0 83 1
 68 0 82 1 69 0 141 56 39 56 56 43 40 20 52 0 1 20 .0001525418543771885 .3561419
780779505 ??-.0075 0 .0205 -.00745694065941855 -.000802518536801796 .02036769170
250045 -.00734558515776425 -.00151406033236249 .0199893771160759 -.0072056811189
3838 -.00208042294069617 .01938630457974615 -.00709676349308494 -.00242609726169
7645 .0186033672818302 -.00707471864513702 -.00248964979307345 .0177727470399547
5 -.0071407819821427 -.00229330169918965 .0170046270465329 -.0072651700035521 -.
001862070036139035 .0163318587648184 -.00740261432449075 -.00120469961519227 .01
580940673853965 -.00748950358475619 -.000396656090239621 .01553166778044855 -.00
748795759247211 .0004248424335435755 .0155363626673837 -.00740724657120829 .0011
7588189599255 .01579380377874565 -.00727615961952075 .001818653675457675 .016284
6286673888 -.00714292708774254 .002286611602173375 .01698935298901835 -.00707348
246866117 .002493159795428915 .01781519135719115 -.00709836022873895 .0024214214
963647 .0186218664944688 -.00719794794140086 .002107022883806225 .01934553133264
035 -.00733608303572632 .001559450445807285 .0199539995668043 -.0074560202552387
4 .000811025248355192 .02036479133255565 -.0075 1038172297700216e-34 .0205 41 1
 53 H?-.0075 1038172297700216e-34 .0205 204 80 54 4 0 .0975 3.141592653589795 .1
123916177220076 6.17597758836237 .0976323082974995 3.46838565917149 .11243467706
2589 6.07991364254405 .0980106228839241 3.792142619252755 .1125460325642432 6.00
210916001559 .0986136954202539 4.12460072876515 .1126859366030692 5.953780773217
06 .0993966327181698 4.46863542654993 .1127948542289226 5.94481175999394 .100227
2529600452 4.80341581865696 .1128168990768706 5.97243450985546 .100995372953467
 5.1218873055291 .112750835739865 6.03228517844813 .1016681412351816 5.442908253
44879 .1126264477184554 6.12185982813078 .1021905932614604 5.78038649537742 .112
4890033975168 6.23027314226363 .1024683322195514 6.1238495264866 .11240211413725
14 .056675995073214 .1024636373326162 .170765711937289 .1124036601295354 .157433
7905269855 .1022061962212542 .489690471423584 .1124843711507992 .244928703449832
 .1017153713326112 .814614977908631 .112615458102487 .30981405232402 .1010106470
109816 1.154628006005444 .112748690634265 .3388697236614025 .100184808642809 1.4
9680537558859 .1128181352533464 .328745749262162 .0993781335055312 1.82218228960
335 .1127932574932686 .284769648677959 .0986544686673596 2.139111152214735 .1126
936697806066 .2094548814516295 .0980460004331957 2.468022767355185 .112555534686
2812 .1083485667922692 .0976352086674443 2.81120462090351 .112435597466769 13842
29730266956e-32 .0975 3.141592653589795 .1123916177220076 74 4 CI16 index_map_of
fset0 0 1 dCCZ20 14 9 0 0 106 197 195 122 235 2 118 112 98 0 0 0 0 0 0 0 0 0 0 0
 81 2 235 46 236 1 0 10 0 0 237 238 80 2 236 9 239 9000 2 2 2 2 3 6 0 0 0 FFTFFF
FFFFFFFF2 3 81 3 10 299 9 1 235 2 0 2 240 241 242 83 2 237 1 20 84 255 20 238 SE
 219.0.0.91 Type8680 3 9 243 244 9000 0 0 0 0 3 6 0 0 0 FFTFFFFFFFFFFF3 3 1 84 3
8 240 {b11697ff-500b-4852-818c-50a330725faf}84 2 241 SE82 1 242 0 79 25 244 MONI
KER/GUID_TABLE_ATTRIB79 22 239 MONIKER/BODY_ID_ATTRIB84 38 11 {a2c91523-1772-4f1
6-aa7f-25cc7cd02f88}84 2 12 SE82 1 13 1 1 0 
